<?xml version="1.0" standalone="no"?>
<svg xmlns="http://www.w3.org/2000/svg" xmlns:xlink="http://www.w3.org/1999/xlink" width="247pt" height="404pt" viewBox="0.00 0.00 246.61 404.00">
<g id="graph0" class="graph" transform="translate(-10.324121359496601,261.08501898739553) scale(0.667284081746456)" data-name="problema_1_5">

<polygon fill="white" stroke="none" points="-4,4 -4,-400 242.61,-400 242.61,4 -4,4" style=""/>
<!-- inicio -->
<g id="node1" class="node" pointer-events="visible" data-name="inicio">

<ellipse fill="#90ee90" stroke="black" cx="119.31" cy="-378" rx="30.89" ry="18" style=""/>
<text text-anchor="middle" x="119.31" y="-374.7" font-family="Arial" font-size="11.00" style="">INICIO</text>
</g>
<!-- entrada -->
<g id="node2" class="node" pointer-events="visible" data-name="entrada">

<polygon fill="#87ceeb" stroke="black" points="238.42,-324 48.94,-324 0.19,-288 189.68,-288 238.42,-324" style=""/>
<text text-anchor="middle" x="119.31" y="-302.7" font-family="Arial" font-size="11.00" style="">Leer: RADIO, ALTURA </text>
</g>
<!-- inicio&#45;&gt;entrada -->
<g id="edge1" class="edge" data-name="inicio-&gt;entrada">

<path fill="none" stroke="black" d="M119.31,-359.7C119.31,-352.41 119.31,-343.73 119.31,-335.54" style=""/>
<polygon fill="black" stroke="black" points="122.81,-335.62 119.31,-325.62 115.81,-335.62 122.81,-335.62" style=""/>
</g>
<!-- calc_vol -->
<g id="node3" class="node" pointer-events="visible" data-name="calc_vol">

<polygon fill="none" stroke="black" points="218.15,-252 20.46,-252 20.46,-216 218.15,-216 218.15,-252" style=""/>
<text text-anchor="middle" x="119.31" y="-230.7" font-family="Arial" font-size="11.00" style="">VOLUMEN = π × RADIO² × ALTURA</text>
</g>
<!-- entrada&#45;&gt;calc_vol -->
<g id="edge2" class="edge" data-name="entrada-&gt;calc_vol">

<path fill="none" stroke="black" d="M119.31,-287.7C119.31,-280.41 119.31,-271.73 119.31,-263.54" style=""/>
<polygon fill="black" stroke="black" points="122.81,-263.62 119.31,-253.62 115.81,-263.62 122.81,-263.62" style=""/>
</g>
<!-- calc_area -->
<g id="node4" class="node" pointer-events="visible" data-name="calc_area">

<polygon fill="none" stroke="black" points="211.94,-180 26.68,-180 26.68,-144 211.94,-144 211.94,-180" style=""/>
<text text-anchor="middle" x="119.31" y="-158.7" font-family="Arial" font-size="11.00" style="">AREA = 2 × π × RADIO × ALTURA</text>
</g>
<!-- calc_vol&#45;&gt;calc_area -->
<g id="edge3" class="edge" data-name="calc_vol-&gt;calc_area">

<path fill="none" stroke="black" d="M119.31,-215.7C119.31,-208.41 119.31,-199.73 119.31,-191.54" style=""/>
<polygon fill="black" stroke="black" points="122.81,-191.62 119.31,-181.62 115.81,-191.62 122.81,-191.62" style=""/>
</g>
<!-- salida -->
<g id="node5" class="node" pointer-events="visible" data-name="salida">

<polygon fill="#ffb6c1" stroke="black" points="128.58,-72.05 134.71,-72.15 140.79,-72.3 146.77,-72.49 152.64,-72.74 158.38,-73.03 163.96,-73.36 169.36,-73.75 174.55,-74.18 179.53,-74.65 184.27,-75.16 188.75,-75.71 192.96,-76.31 196.9,-76.94 200.53,-77.61 203.86,-78.31 206.88,-79.04 209.58,-79.8 211.96,-80.59 214.01,-81.41 215.73,-82.25 217.12,-83.11 218.19,-83.99 218.93,-84.89 219.36,-85.8 219.47,-86.72 219.28,-87.65 218.8,-88.59 218.03,-89.53 216.98,-90.47 215.68,-91.41 214.12,-92.35 212.32,-93.28 210.29,-94.2 208.06,-95.11 205.62,-96.01 203,-96.89 200.21,-97.75 197.26,-98.59 194.17,-99.41 190.94,-100.2 187.6,-100.96 184.14,-101.69 180.59,-102.39 176.96,-103.06 173.24,-103.69 169.46,-104.29 165.63,-104.84 161.74,-105.35 157.81,-105.82 153.84,-106.25 149.84,-106.64 145.82,-106.97 141.77,-107.26 137.71,-107.51 133.63,-107.7 129.55,-107.85 125.45,-107.95 121.36,-108 117.26,-108 113.16,-107.95 109.07,-107.85 104.98,-107.7 100.91,-107.51 96.84,-107.26 92.8,-106.97 88.77,-106.64 84.77,-106.25 80.81,-105.82 76.88,-105.35 72.99,-104.84 69.15,-104.29 65.37,-103.69 61.66,-103.06 58.02,-102.39 54.47,-101.69 51.02,-100.96 47.67,-100.2 44.44,-99.41 41.35,-98.59 38.4,-97.75 35.61,-96.89 32.99,-96.01 30.56,-95.11 28.32,-94.2 26.3,-93.28 24.5,-92.35 22.94,-91.41 21.63,-90.47 20.58,-89.53 19.81,-88.59 19.33,-87.65 19.14,-86.72 19.26,-85.8 19.68,-84.89 20.43,-83.99 21.49,-83.11 22.88,-82.25 24.61,-81.41 26.65,-80.59 29.03,-79.8 31.73,-79.04 34.75,-78.31 38.08,-77.61 41.72,-76.94 45.65,-76.31 49.86,-75.71 54.35,-75.16 59.09,-74.65 64.06,-74.18 69.26,-73.75 74.66,-73.36 80.23,-73.03 85.97,-72.74 91.84,-72.49 97.83,-72.3 103.9,-72.15 110.04,-72.05 116.21,-72 122.4,-72 128.58,-72.05" style=""/>
<text text-anchor="middle" x="119.31" y="-86.7" font-family="Arial" font-size="11.00" style="">Imprimir: VOLUMEN, AREA</text>
</g>
<!-- calc_area&#45;&gt;salida -->
<g id="edge4" class="edge" data-name="calc_area-&gt;salida">

<path fill="none" stroke="black" d="M119.31,-143.7C119.31,-136.41 119.31,-127.73 119.31,-119.54" style=""/>
<polygon fill="black" stroke="black" points="122.81,-119.62 119.31,-109.62 115.81,-119.62 122.81,-119.62" style=""/>
</g>
<!-- fin -->
<g id="node6" class="node" pointer-events="visible" data-name="fin">

<ellipse fill="#ff6b6b" stroke="black" cx="119.31" cy="-18" rx="27" ry="18" style=""/>
<text text-anchor="middle" x="119.31" y="-14.7" font-family="Arial" font-size="11.00" style="">FIN</text>
</g>
<!-- salida&#45;&gt;fin -->
<g id="edge5" class="edge" data-name="salida-&gt;fin">

<path fill="none" stroke="black" d="M119.31,-71.7C119.31,-64.41 119.31,-55.73 119.31,-47.54" style=""/>
<polygon fill="black" stroke="black" points="122.81,-47.62 119.31,-37.62 115.81,-47.62 122.81,-47.62" style=""/>
</g>
</g>
</svg>