<?xml version="1.0" encoding="UTF-8" standalone="no"?>
<!DOCTYPE svg PUBLIC "-//W3C//DTD SVG 1.1//EN"
 "http://www.w3.org/Graphics/SVG/1.1/DTD/svg11.dtd">
<!-- Generated by graphviz version 14.1.0 (20251206.1807)
 -->
<!-- Title: G Pages: 1 -->
<svg width="538pt" height="550pt"
 viewBox="0.00 0.00 538.00 550.00" xmlns="http://www.w3.org/2000/svg" xmlns:xlink="http://www.w3.org/1999/xlink">
<g id="graph0" class="graph" transform="scale(1 1) rotate(0) translate(4 545.5)">
<title>G</title>
<polygon fill="white" stroke="none" points="-4,4 -4,-545.5 534.5,-545.5 534.5,4 -4,4"/>
<!-- INICIO -->
<g id="node1" class="node">
<title>INICIO</title>
<ellipse fill="#f5f5f5" stroke="black" cx="302.25" cy="-523.5" rx="42.79" ry="18"/>
<text xml:space="preserve" text-anchor="middle" x="302.25" y="-518.83" font-family="Inter, sans-serif" font-size="14.00">INICIO</text>
</g>
<!-- LEER -->
<g id="node3" class="node">
<title>LEER</title>
<polygon fill="#f5f5f5" stroke="black" points="367.3,-468.5 263.82,-468.5 237.2,-432.5 340.68,-432.5 367.3,-468.5"/>
<text xml:space="preserve" text-anchor="middle" x="302.25" y="-445.82" font-family="Inter, sans-serif" font-size="14.00">A, B, C</text>
</g>
<!-- INICIO&#45;&gt;LEER -->
<g id="edge1" class="edge">
<title>INICIO&#45;&gt;LEER</title>
<path fill="none" stroke="black" d="M302.25,-505.31C302.25,-497.73 302.25,-488.6 302.25,-480.04"/>
<polygon fill="black" stroke="black" points="305.75,-480.04 302.25,-470.04 298.75,-480.04 305.75,-480.04"/>
</g>
<!-- FIN -->
<g id="node2" class="node">
<title>FIN</title>
<ellipse fill="#f5f5f5" stroke="black" cx="259.25" cy="-18" rx="27.53" ry="18"/>
<text xml:space="preserve" text-anchor="middle" x="259.25" y="-13.32" font-family="Inter, sans-serif" font-size="14.00">FIN</text>
</g>
<!-- D1_A_gt_B -->
<g id="node4" class="node">
<title>D1_A_gt_B</title>
<polygon fill="#f5f5f5" stroke="black" points="302.25,-395.5 246.2,-377.5 302.25,-359.5 358.3,-377.5 302.25,-395.5"/>
<text xml:space="preserve" text-anchor="middle" x="302.25" y="-372.82" font-family="Inter, sans-serif" font-size="14.00">A &gt; B</text>
</g>
<!-- LEER&#45;&gt;D1_A_gt_B -->
<g id="edge2" class="edge">
<title>LEER&#45;&gt;D1_A_gt_B</title>
<path fill="none" stroke="black" d="M302.25,-432.31C302.25,-424.84 302.25,-415.87 302.25,-407.42"/>
<polygon fill="black" stroke="black" points="305.75,-407.54 302.25,-397.54 298.75,-407.54 305.75,-407.54"/>
</g>
<!-- D2_A_gt_C -->
<g id="node5" class="node">
<title>D2_A_gt_C</title>
<polygon fill="#f5f5f5" stroke="black" points="237.25,-306.25 181.2,-288.25 237.25,-270.25 293.3,-288.25 237.25,-306.25"/>
<text xml:space="preserve" text-anchor="middle" x="237.25" y="-283.57" font-family="Inter, sans-serif" font-size="14.00">A &gt; C</text>
</g>
<!-- D1_A_gt_B&#45;&gt;D2_A_gt_C -->
<g id="edge3" class="edge">
<title>D1_A_gt_B&#45;&gt;D2_A_gt_C</title>
<path fill="none" stroke="black" d="M291.81,-362.48C281.76,-349 266.39,-328.37 254.53,-312.44"/>
<polygon fill="black" stroke="black" points="257.35,-310.38 248.57,-304.45 251.74,-314.56 257.35,-310.38"/>
<text xml:space="preserve" text-anchor="middle" x="281.95" y="-328.2" font-family="Inter, sans-serif" font-size="14.00">Si</text>
</g>
<!-- D3_B_gt_C -->
<g id="node6" class="node">
<title>D3_B_gt_C</title>
<polygon fill="#f5f5f5" stroke="black" points="377.25,-306.25 321.2,-288.25 377.25,-270.25 433.3,-288.25 377.25,-306.25"/>
<text xml:space="preserve" text-anchor="middle" x="377.25" y="-283.57" font-family="Inter, sans-serif" font-size="14.00">B &gt; C</text>
</g>
<!-- D1_A_gt_B&#45;&gt;D3_B_gt_C -->
<g id="edge8" class="edge">
<title>D1_A_gt_B&#45;&gt;D3_B_gt_C</title>
<path fill="none" stroke="black" d="M313.97,-362.87C325.86,-349.04 344.45,-327.41 358.41,-311.17"/>
<polygon fill="black" stroke="black" points="360.76,-313.8 364.63,-303.93 355.45,-309.24 360.76,-313.8"/>
<text xml:space="preserve" text-anchor="middle" x="355.84" y="-328.2" font-family="Inter, sans-serif" font-size="14.00">No</text>
</g>
<!-- D4_B_gt_C -->
<g id="node7" class="node">
<title>D4_B_gt_C</title>
<polygon fill="#f5f5f5" stroke="black" points="153.25,-217 97.2,-199 153.25,-181 209.3,-199 153.25,-217"/>
<text xml:space="preserve" text-anchor="middle" x="153.25" y="-194.32" font-family="Inter, sans-serif" font-size="14.00">B &gt; C</text>
</g>
<!-- D2_A_gt_C&#45;&gt;D4_B_gt_C -->
<g id="edge4" class="edge">
<title>D2_A_gt_C&#45;&gt;D4_B_gt_C</title>
<path fill="none" stroke="black" d="M223.97,-274.03C217.46,-267.52 209.53,-259.51 202.5,-252.25 192.81,-242.24 182.19,-231 173.31,-221.53"/>
<polygon fill="black" stroke="black" points="176.13,-219.42 166.74,-214.51 171.02,-224.2 176.13,-219.42"/>
<text xml:space="preserve" text-anchor="middle" x="208.87" y="-238.95" font-family="Inter, sans-serif" font-size="14.00">Si</text>
</g>
<!-- OUT_CAB -->
<g id="node11" class="node">
<title>OUT_CAB</title>
<polygon fill="#ffb6c1" stroke="black" points="240.62,-127.05 243.52,-127.15 246.38,-127.3 249.21,-127.49 251.98,-127.74 254.68,-128.03 257.31,-128.36 259.86,-128.75 262.31,-129.18 264.66,-129.65 266.89,-130.16 269.01,-130.71 271,-131.31 272.85,-131.94 274.56,-132.61 276.14,-133.31 277.56,-134.04 278.83,-134.8 279.96,-135.59 280.92,-136.41 281.73,-137.25 282.39,-138.11 282.89,-138.99 283.24,-139.89 283.45,-140.8 283.5,-141.72 283.41,-142.65 283.18,-143.59 282.82,-144.53 282.33,-145.47 281.71,-146.41 280.97,-147.35 280.12,-148.28 279.17,-149.2 278.11,-150.11 276.97,-151.01 275.73,-151.89 274.41,-152.75 273.02,-153.59 271.56,-154.41 270.04,-155.2 268.46,-155.96 266.83,-156.69 265.16,-157.39 263.44,-158.06 261.69,-158.69 259.91,-159.29 258.1,-159.84 256.27,-160.35 254.41,-160.82 252.54,-161.25 250.65,-161.64 248.75,-161.97 246.85,-162.26 244.93,-162.51 243.01,-162.7 241.08,-162.85 239.15,-162.95 237.22,-163 235.28,-163 233.35,-162.95 231.42,-162.85 229.49,-162.7 227.57,-162.51 225.65,-162.26 223.75,-161.97 221.85,-161.64 219.96,-161.25 218.09,-160.82 216.23,-160.35 214.4,-159.84 212.59,-159.29 210.81,-158.69 209.06,-158.06 207.34,-157.39 205.67,-156.69 204.04,-155.96 202.46,-155.2 200.94,-154.41 199.48,-153.59 198.09,-152.75 196.77,-151.89 195.53,-151.01 194.38,-150.11 193.33,-149.2 192.38,-148.28 191.53,-147.35 190.79,-146.41 190.17,-145.47 189.68,-144.53 189.32,-143.59 189.09,-142.65 189,-141.72 189.05,-140.8 189.26,-139.89 189.61,-138.99 190.11,-138.11 190.77,-137.25 191.58,-136.41 192.54,-135.59 193.66,-134.8 194.94,-134.04 196.36,-133.31 197.93,-132.61 199.65,-131.94 201.5,-131.31 203.49,-130.71 205.61,-130.16 207.84,-129.65 210.19,-129.18 212.64,-128.75 215.19,-128.36 217.82,-128.03 220.52,-127.74 223.29,-127.49 226.12,-127.3 228.98,-127.15 231.88,-127.05 234.79,-127 237.71,-127 240.62,-127.05"/>
<text xml:space="preserve" text-anchor="middle" x="236.25" y="-140.32" font-family="Inter, sans-serif" font-size="14.00">C, A, B</text>
</g>
<!-- D2_A_gt_C&#45;&gt;OUT_CAB -->
<g id="edge7" class="edge">
<title>D2_A_gt_C&#45;&gt;OUT_CAB</title>
<path fill="none" stroke="black" d="M237.13,-269.93C236.96,-246.21 236.66,-203.31 236.45,-174.73"/>
<polygon fill="black" stroke="black" points="239.95,-174.95 236.38,-164.98 232.96,-175 239.95,-174.95"/>
<text xml:space="preserve" text-anchor="middle" x="246.37" y="-238.95" font-family="Inter, sans-serif" font-size="14.00">No</text>
</g>
<!-- D5_A_gt_C -->
<g id="node8" class="node">
<title>D5_A_gt_C</title>
<polygon fill="#f5f5f5" stroke="black" points="377.25,-217 321.2,-199 377.25,-181 433.3,-199 377.25,-217"/>
<text xml:space="preserve" text-anchor="middle" x="377.25" y="-194.32" font-family="Inter, sans-serif" font-size="14.00">A &gt; C</text>
</g>
<!-- D3_B_gt_C&#45;&gt;D5_A_gt_C -->
<g id="edge9" class="edge">
<title>D3_B_gt_C&#45;&gt;D5_A_gt_C</title>
<path fill="none" stroke="black" d="M377.25,-270.01C377.25,-258.26 377.25,-242.41 377.25,-228.77"/>
<polygon fill="black" stroke="black" points="380.75,-229.01 377.25,-219.01 373.75,-229.01 380.75,-229.01"/>
<text xml:space="preserve" text-anchor="middle" x="383.62" y="-238.95" font-family="Inter, sans-serif" font-size="14.00">Si</text>
</g>
<!-- OUT_CBA -->
<g id="node14" class="node">
<title>OUT_CBA</title>
<polygon fill="#ffb6c1" stroke="black" points="487.62,-127.05 490.52,-127.15 493.38,-127.3 496.21,-127.49 498.98,-127.74 501.68,-128.03 504.31,-128.36 506.86,-128.75 509.31,-129.18 511.66,-129.65 513.89,-130.16 516.01,-130.71 518,-131.31 519.85,-131.94 521.56,-132.61 523.14,-133.31 524.56,-134.04 525.83,-134.8 526.96,-135.59 527.92,-136.41 528.73,-137.25 529.39,-138.11 529.89,-138.99 530.24,-139.89 530.45,-140.8 530.5,-141.72 530.41,-142.65 530.18,-143.59 529.82,-144.53 529.33,-145.47 528.71,-146.41 527.97,-147.35 527.12,-148.28 526.17,-149.2 525.11,-150.11 523.97,-151.01 522.73,-151.89 521.41,-152.75 520.02,-153.59 518.56,-154.41 517.04,-155.2 515.46,-155.96 513.83,-156.69 512.16,-157.39 510.44,-158.06 508.69,-158.69 506.91,-159.29 505.1,-159.84 503.27,-160.35 501.41,-160.82 499.54,-161.25 497.65,-161.64 495.75,-161.97 493.85,-162.26 491.93,-162.51 490.01,-162.7 488.08,-162.85 486.15,-162.95 484.22,-163 482.28,-163 480.35,-162.95 478.42,-162.85 476.49,-162.7 474.57,-162.51 472.65,-162.26 470.75,-161.97 468.85,-161.64 466.96,-161.25 465.09,-160.82 463.23,-160.35 461.4,-159.84 459.59,-159.29 457.81,-158.69 456.06,-158.06 454.34,-157.39 452.67,-156.69 451.04,-155.96 449.46,-155.2 447.94,-154.41 446.48,-153.59 445.09,-152.75 443.77,-151.89 442.53,-151.01 441.38,-150.11 440.33,-149.2 439.38,-148.28 438.53,-147.35 437.79,-146.41 437.17,-145.47 436.68,-144.53 436.32,-143.59 436.09,-142.65 436,-141.72 436.05,-140.8 436.26,-139.89 436.61,-138.99 437.11,-138.11 437.77,-137.25 438.58,-136.41 439.54,-135.59 440.66,-134.8 441.94,-134.04 443.36,-133.31 444.93,-132.61 446.65,-131.94 448.5,-131.31 450.49,-130.71 452.61,-130.16 454.84,-129.65 457.19,-129.18 459.64,-128.75 462.19,-128.36 464.82,-128.03 467.52,-127.74 470.29,-127.49 473.12,-127.3 475.98,-127.15 478.88,-127.05 481.79,-127 484.71,-127 487.62,-127.05"/>
<text xml:space="preserve" text-anchor="middle" x="483.25" y="-140.32" font-family="Inter, sans-serif" font-size="14.00">C, B, A</text>
</g>
<!-- D3_B_gt_C&#45;&gt;OUT_CBA -->
<g id="edge12" class="edge">
<title>D3_B_gt_C&#45;&gt;OUT_CBA</title>
<path fill="none" stroke="black" d="M390.9,-274.3C404.76,-260.77 426.38,-238.53 442.25,-217 452.48,-203.12 462.21,-186.48 469.62,-172.8"/>
<polygon fill="black" stroke="black" points="472.51,-174.82 474.09,-164.35 466.32,-171.55 472.51,-174.82"/>
<text xml:space="preserve" text-anchor="middle" x="436.41" y="-238.95" font-family="Inter, sans-serif" font-size="14.00">No</text>
</g>
<!-- OUT_ABC -->
<g id="node9" class="node">
<title>OUT_ABC</title>
<polygon fill="#ffb6c1" stroke="black" points="51.62,-73.05 54.52,-73.15 57.38,-73.3 60.21,-73.49 62.98,-73.74 65.68,-74.03 68.31,-74.36 70.86,-74.75 73.31,-75.18 75.66,-75.65 77.89,-76.16 80.01,-76.71 82,-77.31 83.85,-77.94 85.56,-78.61 87.14,-79.31 88.56,-80.04 89.83,-80.8 90.96,-81.59 91.92,-82.41 92.73,-83.25 93.39,-84.11 93.89,-84.99 94.24,-85.89 94.45,-86.8 94.5,-87.72 94.41,-88.65 94.18,-89.59 93.82,-90.53 93.33,-91.47 92.71,-92.41 91.97,-93.35 91.12,-94.28 90.17,-95.2 89.11,-96.11 87.97,-97.01 86.73,-97.89 85.41,-98.75 84.02,-99.59 82.56,-100.41 81.04,-101.2 79.46,-101.96 77.83,-102.69 76.16,-103.39 74.44,-104.06 72.69,-104.69 70.91,-105.29 69.1,-105.84 67.27,-106.35 65.41,-106.82 63.54,-107.25 61.65,-107.64 59.75,-107.97 57.85,-108.26 55.93,-108.51 54.01,-108.7 52.08,-108.85 50.15,-108.95 48.22,-109 46.28,-109 44.35,-108.95 42.42,-108.85 40.49,-108.7 38.57,-108.51 36.65,-108.26 34.75,-107.97 32.85,-107.64 30.96,-107.25 29.09,-106.82 27.23,-106.35 25.4,-105.84 23.59,-105.29 21.81,-104.69 20.06,-104.06 18.34,-103.39 16.67,-102.69 15.04,-101.96 13.46,-101.2 11.94,-100.41 10.48,-99.59 9.09,-98.75 7.77,-97.89 6.53,-97.01 5.38,-96.11 4.33,-95.2 3.38,-94.28 2.53,-93.35 1.79,-92.41 1.17,-91.47 0.68,-90.53 0.32,-89.59 0.09,-88.65 0,-87.72 0.05,-86.8 0.26,-85.89 0.61,-84.99 1.11,-84.11 1.77,-83.25 2.58,-82.41 3.54,-81.59 4.66,-80.8 5.94,-80.04 7.36,-79.31 8.93,-78.61 10.65,-77.94 12.5,-77.31 14.49,-76.71 16.61,-76.16 18.84,-75.65 21.19,-75.18 23.64,-74.75 26.19,-74.36 28.82,-74.03 31.52,-73.74 34.29,-73.49 37.12,-73.3 39.98,-73.15 42.88,-73.05 45.79,-73 48.71,-73 51.62,-73.05"/>
<text xml:space="preserve" text-anchor="middle" x="47.25" y="-86.33" font-family="Inter, sans-serif" font-size="14.00">A, B, C</text>
</g>
<!-- D4_B_gt_C&#45;&gt;OUT_ABC -->
<g id="edge5" class="edge">
<title>D4_B_gt_C&#45;&gt;OUT_ABC</title>
<path fill="none" stroke="black" d="M140.25,-185C122.98,-167.73 92.14,-136.89 70.73,-115.48"/>
<polygon fill="black" stroke="black" points="73.38,-113.18 63.83,-108.58 68.43,-118.13 73.38,-113.18"/>
<text xml:space="preserve" text-anchor="middle" x="122.31" y="-140.32" font-family="Inter, sans-serif" font-size="14.00">Si</text>
</g>
<!-- OUT_ACB -->
<g id="node10" class="node">
<title>OUT_ACB</title>
<polygon fill="#ffb6c1" stroke="black" points="163.62,-73.05 166.52,-73.15 169.38,-73.3 172.21,-73.49 174.98,-73.74 177.68,-74.03 180.31,-74.36 182.86,-74.75 185.31,-75.18 187.66,-75.65 189.89,-76.16 192.01,-76.71 194,-77.31 195.85,-77.94 197.56,-78.61 199.14,-79.31 200.56,-80.04 201.83,-80.8 202.96,-81.59 203.92,-82.41 204.73,-83.25 205.39,-84.11 205.89,-84.99 206.24,-85.89 206.45,-86.8 206.5,-87.72 206.41,-88.65 206.18,-89.59 205.82,-90.53 205.33,-91.47 204.71,-92.41 203.97,-93.35 203.12,-94.28 202.17,-95.2 201.11,-96.11 199.97,-97.01 198.73,-97.89 197.41,-98.75 196.02,-99.59 194.56,-100.41 193.04,-101.2 191.46,-101.96 189.83,-102.69 188.16,-103.39 186.44,-104.06 184.69,-104.69 182.91,-105.29 181.1,-105.84 179.27,-106.35 177.41,-106.82 175.54,-107.25 173.65,-107.64 171.75,-107.97 169.85,-108.26 167.93,-108.51 166.01,-108.7 164.08,-108.85 162.15,-108.95 160.22,-109 158.28,-109 156.35,-108.95 154.42,-108.85 152.49,-108.7 150.57,-108.51 148.65,-108.26 146.75,-107.97 144.85,-107.64 142.96,-107.25 141.09,-106.82 139.23,-106.35 137.4,-105.84 135.59,-105.29 133.81,-104.69 132.06,-104.06 130.34,-103.39 128.67,-102.69 127.04,-101.96 125.46,-101.2 123.94,-100.41 122.48,-99.59 121.09,-98.75 119.77,-97.89 118.53,-97.01 117.38,-96.11 116.33,-95.2 115.38,-94.28 114.53,-93.35 113.79,-92.41 113.17,-91.47 112.68,-90.53 112.32,-89.59 112.09,-88.65 112,-87.72 112.05,-86.8 112.26,-85.89 112.61,-84.99 113.11,-84.11 113.77,-83.25 114.58,-82.41 115.54,-81.59 116.66,-80.8 117.94,-80.04 119.36,-79.31 120.93,-78.61 122.65,-77.94 124.5,-77.31 126.49,-76.71 128.61,-76.16 130.84,-75.65 133.19,-75.18 135.64,-74.75 138.19,-74.36 140.82,-74.03 143.52,-73.74 146.29,-73.49 149.12,-73.3 151.98,-73.15 154.88,-73.05 157.79,-73 160.71,-73 163.62,-73.05"/>
<text xml:space="preserve" text-anchor="middle" x="159.25" y="-86.33" font-family="Inter, sans-serif" font-size="14.00">A, C, B</text>
</g>
<!-- D4_B_gt_C&#45;&gt;OUT_ACB -->
<g id="edge6" class="edge">
<title>D4_B_gt_C&#45;&gt;OUT_ACB</title>
<path fill="none" stroke="black" d="M154.21,-180.97C155.13,-164.76 156.53,-140.06 157.62,-120.79"/>
<polygon fill="black" stroke="black" points="161.11,-121.03 158.18,-110.85 154.12,-120.64 161.11,-121.03"/>
<text xml:space="preserve" text-anchor="middle" x="166.51" y="-140.32" font-family="Inter, sans-serif" font-size="14.00">No</text>
</g>
<!-- OUT_BAC -->
<g id="node12" class="node">
<title>OUT_BAC</title>
<polygon fill="#ffb6c1" stroke="black" points="313.62,-73.05 316.52,-73.15 319.38,-73.3 322.21,-73.49 324.98,-73.74 327.68,-74.03 330.31,-74.36 332.86,-74.75 335.31,-75.18 337.66,-75.65 339.89,-76.16 342.01,-76.71 344,-77.31 345.85,-77.94 347.56,-78.61 349.14,-79.31 350.56,-80.04 351.83,-80.8 352.96,-81.59 353.92,-82.41 354.73,-83.25 355.39,-84.11 355.89,-84.99 356.24,-85.89 356.45,-86.8 356.5,-87.72 356.41,-88.65 356.18,-89.59 355.82,-90.53 355.33,-91.47 354.71,-92.41 353.97,-93.35 353.12,-94.28 352.17,-95.2 351.11,-96.11 349.97,-97.01 348.73,-97.89 347.41,-98.75 346.02,-99.59 344.56,-100.41 343.04,-101.2 341.46,-101.96 339.83,-102.69 338.16,-103.39 336.44,-104.06 334.69,-104.69 332.91,-105.29 331.1,-105.84 329.27,-106.35 327.41,-106.82 325.54,-107.25 323.65,-107.64 321.75,-107.97 319.85,-108.26 317.93,-108.51 316.01,-108.7 314.08,-108.85 312.15,-108.95 310.22,-109 308.28,-109 306.35,-108.95 304.42,-108.85 302.49,-108.7 300.57,-108.51 298.65,-108.26 296.75,-107.97 294.85,-107.64 292.96,-107.25 291.09,-106.82 289.23,-106.35 287.4,-105.84 285.59,-105.29 283.81,-104.69 282.06,-104.06 280.34,-103.39 278.67,-102.69 277.04,-101.96 275.46,-101.2 273.94,-100.41 272.48,-99.59 271.09,-98.75 269.77,-97.89 268.53,-97.01 267.38,-96.11 266.33,-95.2 265.38,-94.28 264.53,-93.35 263.79,-92.41 263.17,-91.47 262.68,-90.53 262.32,-89.59 262.09,-88.65 262,-87.72 262.05,-86.8 262.26,-85.89 262.61,-84.99 263.11,-84.11 263.77,-83.25 264.58,-82.41 265.54,-81.59 266.66,-80.8 267.94,-80.04 269.36,-79.31 270.93,-78.61 272.65,-77.94 274.5,-77.31 276.49,-76.71 278.61,-76.16 280.84,-75.65 283.19,-75.18 285.64,-74.75 288.19,-74.36 290.82,-74.03 293.52,-73.74 296.29,-73.49 299.12,-73.3 301.98,-73.15 304.88,-73.05 307.79,-73 310.71,-73 313.62,-73.05"/>
<text xml:space="preserve" text-anchor="middle" x="309.25" y="-86.33" font-family="Inter, sans-serif" font-size="14.00">B, A, C</text>
</g>
<!-- D5_A_gt_C&#45;&gt;OUT_BAC -->
<g id="edge10" class="edge">
<title>D5_A_gt_C&#45;&gt;OUT_BAC</title>
<path fill="none" stroke="black" d="M368.08,-183.7C357.3,-166.9 339.2,-138.69 325.92,-117.98"/>
<polygon fill="black" stroke="black" points="329,-116.3 320.65,-109.78 323.11,-120.08 329,-116.3"/>
<text xml:space="preserve" text-anchor="middle" x="359.69" y="-140.32" font-family="Inter, sans-serif" font-size="14.00">Si</text>
</g>
<!-- OUT_BCA -->
<g id="node13" class="node">
<title>OUT_BCA</title>
<polygon fill="#ffb6c1" stroke="black" points="425.62,-73.05 428.52,-73.15 431.38,-73.3 434.21,-73.49 436.98,-73.74 439.68,-74.03 442.31,-74.36 444.86,-74.75 447.31,-75.18 449.66,-75.65 451.89,-76.16 454.01,-76.71 456,-77.31 457.85,-77.94 459.56,-78.61 461.14,-79.31 462.56,-80.04 463.83,-80.8 464.96,-81.59 465.92,-82.41 466.73,-83.25 467.39,-84.11 467.89,-84.99 468.24,-85.89 468.45,-86.8 468.5,-87.72 468.41,-88.65 468.18,-89.59 467.82,-90.53 467.33,-91.47 466.71,-92.41 465.97,-93.35 465.12,-94.28 464.17,-95.2 463.11,-96.11 461.97,-97.01 460.73,-97.89 459.41,-98.75 458.02,-99.59 456.56,-100.41 455.04,-101.2 453.46,-101.96 451.83,-102.69 450.16,-103.39 448.44,-104.06 446.69,-104.69 444.91,-105.29 443.1,-105.84 441.27,-106.35 439.41,-106.82 437.54,-107.25 435.65,-107.64 433.75,-107.97 431.85,-108.26 429.93,-108.51 428.01,-108.7 426.08,-108.85 424.15,-108.95 422.22,-109 420.28,-109 418.35,-108.95 416.42,-108.85 414.49,-108.7 412.57,-108.51 410.65,-108.26 408.75,-107.97 406.85,-107.64 404.96,-107.25 403.09,-106.82 401.23,-106.35 399.4,-105.84 397.59,-105.29 395.81,-104.69 394.06,-104.06 392.34,-103.39 390.67,-102.69 389.04,-101.96 387.46,-101.2 385.94,-100.41 384.48,-99.59 383.09,-98.75 381.77,-97.89 380.53,-97.01 379.38,-96.11 378.33,-95.2 377.38,-94.28 376.53,-93.35 375.79,-92.41 375.17,-91.47 374.68,-90.53 374.32,-89.59 374.09,-88.65 374,-87.72 374.05,-86.8 374.26,-85.89 374.61,-84.99 375.11,-84.11 375.77,-83.25 376.58,-82.41 377.54,-81.59 378.66,-80.8 379.94,-80.04 381.36,-79.31 382.93,-78.61 384.65,-77.94 386.5,-77.31 388.49,-76.71 390.61,-76.16 392.84,-75.65 395.19,-75.18 397.64,-74.75 400.19,-74.36 402.82,-74.03 405.52,-73.74 408.29,-73.49 411.12,-73.3 413.98,-73.15 416.88,-73.05 419.79,-73 422.71,-73 425.62,-73.05"/>
<text xml:space="preserve" text-anchor="middle" x="421.25" y="-86.33" font-family="Inter, sans-serif" font-size="14.00">B, C, A</text>
</g>
<!-- D5_A_gt_C&#45;&gt;OUT_BCA -->
<g id="edge11" class="edge">
<title>D5_A_gt_C&#45;&gt;OUT_BCA</title>
<path fill="none" stroke="black" d="M383.55,-182.81C390.41,-166.29 401.51,-139.55 409.9,-119.35"/>
<polygon fill="black" stroke="black" points="413.05,-120.89 413.65,-110.31 406.58,-118.2 413.05,-120.89"/>
<text xml:space="preserve" text-anchor="middle" x="415.14" y="-140.32" font-family="Inter, sans-serif" font-size="14.00">No</text>
</g>
<!-- OUT_ABC&#45;&gt;FIN -->
<g id="edge13" class="edge">
<title>OUT_ABC&#45;&gt;FIN</title>
<path fill="none" stroke="black" d="M84.18,-77.63C123.59,-64.43 185.56,-43.68 224.23,-30.73"/>
<polygon fill="black" stroke="black" points="225.14,-34.11 233.51,-27.62 222.92,-27.48 225.14,-34.11"/>
</g>
<!-- OUT_ACB&#45;&gt;FIN -->
<g id="edge14" class="edge">
<title>OUT_ACB&#45;&gt;FIN</title>
<path fill="none" stroke="black" d="M181.44,-74.24C196.31,-63.69 215.99,-49.72 231.83,-38.47"/>
<polygon fill="black" stroke="black" points="233.76,-41.39 239.89,-32.74 229.71,-35.68 233.76,-41.39"/>
</g>
<!-- OUT_CAB&#45;&gt;FIN -->
<g id="edge15" class="edge">
<title>OUT_CAB&#45;&gt;FIN</title>
<path fill="none" stroke="black" d="M239.45,-126.62C243.22,-106.1 249.56,-71.67 254.04,-47.29"/>
<polygon fill="black" stroke="black" points="257.44,-48.19 255.8,-37.72 250.55,-46.92 257.44,-48.19"/>
</g>
<!-- OUT_BAC&#45;&gt;FIN -->
<g id="edge16" class="edge">
<title>OUT_BAC&#45;&gt;FIN</title>
<path fill="none" stroke="black" d="M297.4,-73.17C291.25,-64.44 283.61,-53.6 276.79,-43.91"/>
<polygon fill="black" stroke="black" points="279.82,-42.13 271.2,-35.97 274.1,-46.16 279.82,-42.13"/>
</g>
<!-- OUT_BCA&#45;&gt;FIN -->
<g id="edge17" class="edge">
<title>OUT_BCA&#45;&gt;FIN</title>
<path fill="none" stroke="black" d="M389.63,-76.14C361.38,-63.76 320.17,-45.7 291.68,-33.21"/>
<polygon fill="black" stroke="black" points="293.38,-30.14 282.82,-29.33 290.57,-36.55 293.38,-30.14"/>
</g>
<!-- OUT_CBA&#45;&gt;FIN -->
<g id="edge18" class="edge">
<title>OUT_CBA&#45;&gt;FIN</title>
<path fill="none" stroke="black" d="M486.95,-126.68C489.26,-110.84 489.77,-87.68 477.25,-73 454.22,-46 353.7,-30.09 297.55,-23.15"/>
<polygon fill="black" stroke="black" points="298.13,-19.7 287.78,-21.99 297.3,-26.65 298.13,-19.7"/>
</g>
</g>
</svg>
