<?xml version="1.0" encoding="UTF-8" standalone="no"?>
<!DOCTYPE svg PUBLIC "-//W3C//DTD SVG 1.1//EN"
 "http://www.w3.org/Graphics/SVG/1.1/DTD/svg11.dtd">
<!-- Generated by graphviz version 14.1.0 (20251206.1807)
 -->
<!-- Title: ejemplo_3_2 Pages: 1 -->
<svg width="535pt" height="532pt"
 viewBox="0.00 0.00 535.00 532.00" xmlns="http://www.w3.org/2000/svg" xmlns:xlink="http://www.w3.org/1999/xlink">
<g id="graph0" class="graph" transform="scale(1 1) rotate(0) translate(4 527.5)">
<title>ejemplo_3_2</title>
<polygon fill="white" stroke="none" points="-4,4 -4,-527.5 530.56,-527.5 530.56,4 -4,4"/>
<!-- inicio -->
<g id="node1" class="node">
<title>inicio</title>
<ellipse fill="#90ee90" stroke="black" cx="400.11" cy="-505.5" rx="31.01" ry="18"/>
<text xml:space="preserve" text-anchor="middle" x="400.11" y="-501.8" font-family="Arial" font-size="11.00">INICIO</text>
</g>
<!-- init_nomina -->
<g id="node2" class="node">
<title>init_nomina</title>
<polygon fill="none" stroke="black" points="468.11,-450.5 332.11,-450.5 332.11,-414.5 468.11,-414.5 468.11,-450.5"/>
<text xml:space="preserve" text-anchor="middle" x="400.11" y="-435.55" font-family="Arial" font-size="11.00">NOMINA = 0</text>
<text xml:space="preserve" text-anchor="middle" x="400.11" y="-422.05" font-family="Arial" font-size="11.00">(Acumulador de sueldos)</text>
</g>
<!-- inicio&#45;&gt;init_nomina -->
<g id="edge1" class="edge">
<title>inicio&#45;&gt;init_nomina</title>
<path fill="none" stroke="black" d="M400.11,-487.31C400.11,-479.73 400.11,-470.6 400.11,-462.04"/>
<polygon fill="black" stroke="black" points="403.61,-462.04 400.11,-452.04 396.61,-462.04 403.61,-462.04"/>
</g>
<!-- init_i -->
<g id="node3" class="node">
<title>init_i</title>
<polygon fill="none" stroke="black" points="473.36,-377.5 326.86,-377.5 326.86,-341.5 473.36,-341.5 473.36,-377.5"/>
<text xml:space="preserve" text-anchor="middle" x="400.11" y="-362.55" font-family="Arial" font-size="11.00">I = 1</text>
<text xml:space="preserve" text-anchor="middle" x="400.11" y="-349.05" font-family="Arial" font-size="11.00">(Contador de trabajadores)</text>
</g>
<!-- init_nomina&#45;&gt;init_i -->
<g id="edge2" class="edge">
<title>init_nomina&#45;&gt;init_i</title>
<path fill="none" stroke="black" d="M400.11,-414.31C400.11,-406.73 400.11,-397.6 400.11,-389.04"/>
<polygon fill="black" stroke="black" points="403.61,-389.04 400.11,-379.04 396.61,-389.04 403.61,-389.04"/>
</g>
<!-- ciclo -->
<g id="node4" class="node">
<title>ciclo</title>
<polygon fill="#ffd700" stroke="black" points="400.11,-304.5 350.96,-286.5 400.11,-268.5 449.26,-286.5 400.11,-304.5"/>
<text xml:space="preserve" text-anchor="middle" x="400.11" y="-282.8" font-family="Arial" font-size="11.00">¿I ≤ 10?</text>
</g>
<!-- init_i&#45;&gt;ciclo -->
<g id="edge3" class="edge">
<title>init_i&#45;&gt;ciclo</title>
<path fill="none" stroke="black" d="M400.11,-341.31C400.11,-333.84 400.11,-324.87 400.11,-316.42"/>
<polygon fill="black" stroke="black" points="403.61,-316.54 400.11,-306.54 396.61,-316.54 403.61,-316.54"/>
</g>
<!-- entrada -->
<g id="node5" class="node">
<title>entrada</title>
<polygon fill="#87ceeb" stroke="black" points="274.22,-216 56.11,-216 0,-146 218.11,-146 274.22,-216"/>
<text xml:space="preserve" text-anchor="middle" x="137.11" y="-184.05" font-family="Arial" font-size="11.00">Leer SUE</text>
<text xml:space="preserve" text-anchor="middle" x="137.11" y="-170.55" font-family="Arial" font-size="11.00">(Sueldo del trabajador I)</text>
</g>
<!-- ciclo&#45;&gt;entrada -->
<g id="edge4" class="edge">
<title>ciclo&#45;&gt;entrada</title>
<path fill="none" stroke="black" d="M377.23,-276.5C345.66,-264.07 286.8,-240.91 235.25,-220.62"/>
<polygon fill="black" stroke="black" points="236.71,-217.44 226.13,-217.03 234.15,-223.95 236.71,-217.44"/>
<text xml:space="preserve" text-anchor="middle" x="313.53" y="-237.2" font-family="Times New Roman,serif" font-size="14.00">SÍ</text>
</g>
<!-- salida -->
<g id="node8" class="node">
<title>salida</title>
<polygon fill="#ffb6c1" stroke="black" points="410.06,-156.31 416.64,-156.45 423.16,-156.65 429.58,-156.92 435.89,-157.25 442.04,-157.65 448.03,-158.12 453.82,-158.65 459.4,-159.24 464.74,-159.88 469.82,-160.59 474.63,-161.35 479.16,-162.17 483.38,-163.04 487.28,-163.95 490.85,-164.92 494.09,-165.92 496.99,-166.97 499.54,-168.06 501.74,-169.18 503.59,-170.34 505.08,-171.52 506.23,-172.73 507.02,-173.97 507.48,-175.22 507.6,-176.49 507.4,-177.77 506.88,-179.06 506.06,-180.35 504.93,-181.65 503.53,-182.94 501.86,-184.23 499.93,-185.51 497.75,-186.78 495.35,-188.03 492.74,-189.27 489.93,-190.48 486.94,-191.66 483.77,-192.82 480.45,-193.94 476.99,-195.03 473.4,-196.08 469.69,-197.08 465.88,-198.05 461.98,-198.96 457.99,-199.83 453.94,-200.65 449.82,-201.41 445.65,-202.12 441.43,-202.76 437.17,-203.35 432.88,-203.88 428.56,-204.35 424.22,-204.75 419.86,-205.08 415.48,-205.35 411.1,-205.55 406.71,-205.69 402.31,-205.76 397.91,-205.76 393.52,-205.69 389.12,-205.55 384.74,-205.35 380.36,-205.08 376,-204.75 371.66,-204.35 367.34,-203.88 363.05,-203.35 358.79,-202.76 354.57,-202.12 350.4,-201.41 346.28,-200.65 342.23,-199.83 338.24,-198.96 334.34,-198.05 330.53,-197.08 326.82,-196.08 323.23,-195.03 319.77,-193.94 316.45,-192.82 313.29,-191.66 310.29,-190.48 307.48,-189.27 304.87,-188.03 302.47,-186.78 300.3,-185.51 298.37,-184.23 296.69,-182.94 295.29,-181.65 294.17,-180.35 293.34,-179.06 292.82,-177.77 292.62,-176.49 292.74,-175.22 293.2,-173.97 294,-172.73 295.14,-171.52 296.63,-170.34 298.48,-169.18 300.68,-168.06 303.23,-166.97 306.13,-165.92 309.37,-164.92 312.94,-163.95 316.85,-163.04 321.06,-162.17 325.59,-161.35 330.4,-160.59 335.48,-159.88 340.82,-159.24 346.4,-158.65 352.19,-158.12 358.18,-157.65 364.33,-157.25 370.64,-156.92 377.06,-156.65 383.58,-156.45 390.16,-156.31 396.79,-156.24 403.43,-156.24 410.06,-156.31"/>
<text xml:space="preserve" text-anchor="middle" x="400.11" y="-184.05" font-family="Arial" font-size="11.00">Imprimir:</text>
<text xml:space="preserve" text-anchor="middle" x="400.11" y="-170.55" font-family="Arial" font-size="11.00">&quot;Nómina Total: &quot;, NOMINA</text>
</g>
<!-- ciclo&#45;&gt;salida -->
<g id="edge8" class="edge">
<title>ciclo&#45;&gt;salida</title>
<path fill="none" stroke="black" d="M400.11,-268.41C400.11,-254.6 400.11,-234.7 400.11,-217.48"/>
<polygon fill="black" stroke="black" points="403.61,-217.6 400.11,-207.6 396.61,-217.6 403.61,-217.6"/>
<text xml:space="preserve" text-anchor="middle" x="409.86" y="-237.2" font-family="Times New Roman,serif" font-size="14.00">NO</text>
</g>
<!-- acumular -->
<g id="node6" class="node">
<title>acumular</title>
<polygon fill="none" stroke="black" points="321.49,-109 160.74,-109 160.74,-73 321.49,-73 321.49,-109"/>
<text xml:space="preserve" text-anchor="middle" x="241.11" y="-94.05" font-family="Arial" font-size="11.00">NOMINA = NOMINA + SUE</text>
<text xml:space="preserve" text-anchor="middle" x="241.11" y="-80.55" font-family="Arial" font-size="11.00">(Sumar sueldo al acumulador)</text>
</g>
<!-- entrada&#45;&gt;acumular -->
<g id="edge5" class="edge">
<title>entrada&#45;&gt;acumular</title>
<path fill="none" stroke="black" d="M177.62,-145.72C189.11,-136 201.4,-125.6 212.07,-116.57"/>
<polygon fill="black" stroke="black" points="214.07,-119.46 219.44,-110.33 209.55,-114.12 214.07,-119.46"/>
</g>
<!-- incremento -->
<g id="node7" class="node">
<title>incremento</title>
<polygon fill="none" stroke="black" points="448.24,-36 327.99,-36 327.99,0 448.24,0 448.24,-36"/>
<text xml:space="preserve" text-anchor="middle" x="388.11" y="-21.05" font-family="Arial" font-size="11.00">I = I + 1</text>
<text xml:space="preserve" text-anchor="middle" x="388.11" y="-7.55" font-family="Arial" font-size="11.00">(Siguiente trabajador)</text>
</g>
<!-- acumular&#45;&gt;incremento -->
<g id="edge6" class="edge">
<title>acumular&#45;&gt;incremento</title>
<path fill="none" stroke="black" d="M277.07,-72.63C296.56,-63.22 320.86,-51.48 341.75,-41.39"/>
<polygon fill="black" stroke="black" points="343.17,-44.59 350.65,-37.09 340.12,-38.29 343.17,-44.59"/>
</g>
<!-- incremento&#45;&gt;ciclo -->
<g id="edge7" class="edge">
<title>incremento&#45;&gt;ciclo</title>
<path fill="none" stroke="black" d="M415.92,-36.49C447.08,-57.93 495.89,-97.45 516.11,-146 528.07,-174.72 531.45,-188.93 516.11,-216 499.48,-245.35 464.97,-263.65 437.89,-274.06"/>
<polygon fill="black" stroke="black" points="436.83,-270.72 428.61,-277.4 439.21,-277.3 436.83,-270.72"/>
</g>
<!-- fin -->
<g id="node9" class="node">
<title>fin</title>
<ellipse fill="#ff6b6b" stroke="black" cx="400.11" cy="-91" rx="27" ry="18"/>
<text xml:space="preserve" text-anchor="middle" x="400.11" y="-87.3" font-family="Arial" font-size="11.00">FIN</text>
</g>
<!-- salida&#45;&gt;fin -->
<g id="edge9" class="edge">
<title>salida&#45;&gt;fin</title>
<path fill="none" stroke="black" d="M400.11,-155.95C400.11,-145 400.11,-131.95 400.11,-120.51"/>
<polygon fill="black" stroke="black" points="403.61,-120.83 400.11,-110.83 396.61,-120.83 403.61,-120.83"/>
</g>
</g>
</svg>
