<?xml version="1.0" standalone="no"?>
<svg xmlns="http://www.w3.org/2000/svg" xmlns:xlink="http://www.w3.org/1999/xlink" width="253pt" height="338pt" viewBox="0.00 0.00 252.72 337.60">
<g id="graph0" class="graph" transform="translate(4,333.6000061035156) scale(1)" data-name="G">

<polygon fill="white" stroke="none" points="-4,4 -4,-333.6 248.72,-333.6 248.72,4 -4,4" style=""/>
<!-- INICIO -->
<g id="node1" class="node" pointer-events="visible" data-name="INICIO">

<ellipse fill="#f5f5f5" stroke="black" cx="122.36" cy="-311.6" rx="41.15" ry="18" style=""/>
<text text-anchor="middle" x="122.36" y="-307.4" font-family="Inter, sans-serif" font-size="14.00" style="">INICIO</text>
</g>
<!-- LEER -->
<g id="node2" class="node" pointer-events="visible" data-name="LEER">

<polygon fill="#f5f5f5" stroke="black" points="228.05,-257.6 59.92,-257.6 16.67,-221.6 184.8,-221.6 228.05,-257.6" style=""/>
<text text-anchor="middle" x="122.36" y="-235.4" font-family="Inter, sans-serif" font-size="14.00" style="">RADIO, ALTU</text>
</g>
<!-- INICIO&#45;&gt;LEER -->
<g id="edge1" class="edge" data-name="INICIO-&gt;LEER">

<path fill="none" stroke="black" d="M122.36,-293.3C122.36,-286.01 122.36,-277.33 122.36,-269.14" style=""/>
<polygon fill="black" stroke="black" points="125.86,-269.22 122.36,-259.22 118.86,-269.22 125.86,-269.22" style=""/>
</g>
<!-- PROCESO -->
<g id="node3" class="node" pointer-events="visible" data-name="PROCESO">

<polygon fill="#f5f5f5" stroke="black" points="244.58,-185.4 0.14,-185.4 0.14,-144.2 244.58,-144.2 244.58,-185.4" style=""/>
<text text-anchor="middle" x="122.36" y="-169" font-family="Inter, sans-serif" font-size="14.00" style="">VOL = 3.141592 * (RADIO^2) * ALTU</text>
<text text-anchor="middle" x="122.36" y="-152.2" font-family="Inter, sans-serif" font-size="14.00" style="">ARE = 2 * 3.141592 * RADIO * ALTU</text>
</g>
<!-- LEER&#45;&gt;PROCESO -->
<g id="edge2" class="edge" data-name="LEER-&gt;PROCESO">

<path fill="none" stroke="black" d="M122.36,-221.35C122.36,-214.09 122.36,-205.41 122.36,-197.09" style=""/>
<polygon fill="black" stroke="black" points="125.86,-197.28 122.36,-187.28 118.86,-197.28 125.86,-197.28" style=""/>
</g>
<!-- ESCRIBIR -->
<g id="node4" class="node" pointer-events="visible" data-name="ESCRIBIR">

<polygon fill="#f5f5f5" stroke="black" points="162.13,-108 82.59,-108 82.59,-72 162.13,-72 162.13,-108" style=""/>
<text text-anchor="middle" x="122.36" y="-85.8" font-family="Inter, sans-serif" font-size="14.00" style="">VOL, ARE</text>
</g>
<!-- PROCESO&#45;&gt;ESCRIBIR -->
<g id="edge3" class="edge" data-name="PROCESO-&gt;ESCRIBIR">

<path fill="none" stroke="black" d="M122.36,-143.91C122.36,-136.44 122.36,-127.8 122.36,-119.69" style=""/>
<polygon fill="black" stroke="black" points="125.86,-119.9 122.36,-109.9 118.86,-119.9 125.86,-119.9" style=""/>
</g>
<!-- FIM -->
<g id="node5" class="node" pointer-events="visible" data-name="FIM">

<ellipse fill="#f5f5f5" stroke="black" cx="122.36" cy="-18" rx="28.42" ry="18" style=""/>
<text text-anchor="middle" x="122.36" y="-13.8" font-family="Inter, sans-serif" font-size="14.00" style="">FIM</text>
</g>
<!-- ESCRIBIR&#45;&gt;FIM -->
<g id="edge4" class="edge" data-name="ESCRIBIR-&gt;FIM">

<path fill="none" stroke="black" d="M122.36,-71.7C122.36,-64.41 122.36,-55.73 122.36,-47.54" style=""/>
<polygon fill="black" stroke="black" points="125.86,-47.62 122.36,-37.62 118.86,-47.62 125.86,-47.62" style=""/>
</g>
</g>
</svg>