<?xml version="1.0" encoding="UTF-8" standalone="no"?>
<!DOCTYPE svg PUBLIC "-//W3C//DTD SVG 1.1//EN"
 "http://www.w3.org/Graphics/SVG/1.1/DTD/svg11.dtd">
<!-- Generated by graphviz version 14.1.0 (20251206.1807)
 -->
<!-- Title: ejemplo_1_4 Pages: 1 -->
<svg width="262pt" height="1780pt"
 viewBox="0.00 0.00 262.00 1780.00" xmlns="http://www.w3.org/2000/svg" xmlns:xlink="http://www.w3.org/1999/xlink">
<g id="graph0" class="graph" transform="scale(1 1) rotate(0) translate(4 1775.5)">
<title>ejemplo_1_4</title>
<polygon fill="white" stroke="none" points="-4,4 -4,-1775.5 258,-1775.5 258,4 -4,4"/>
<!-- inicio -->
<g id="node1" class="node">
<title>inicio</title>
<ellipse fill="#90ee90" stroke="black" cx="127" cy="-1753.5" rx="31.01" ry="18"/>
<text xml:space="preserve" text-anchor="middle" x="127" y="-1749.8" font-family="Arial" font-size="11.00">INICIO</text>
</g>
<!-- titulo_a -->
<g id="node2" class="node">
<title>titulo_a</title>
<polygon fill="#ffd700" stroke="black" points="155.62,-1699.5 98.37,-1699.5 98.37,-1663.5 155.62,-1663.5 155.62,-1699.5"/>
<text xml:space="preserve" text-anchor="middle" x="127" y="-1677.8" font-family="Arial" font-size="11.00">CASO A</text>
</g>
<!-- inicio&#45;&gt;titulo_a -->
<g id="edge1" class="edge">
<title>inicio&#45;&gt;titulo_a</title>
<path fill="none" stroke="black" d="M127,-1735.2C127,-1727.91 127,-1719.23 127,-1711.04"/>
<polygon fill="black" stroke="black" points="130.5,-1711.12 127,-1701.12 123.5,-1711.12 130.5,-1711.12"/>
</g>
<!-- paso1_a -->
<g id="node3" class="node">
<title>paso1_a</title>
<polygon fill="none" stroke="black" points="154,-1627.5 100,-1627.5 100,-1591.5 154,-1591.5 154,-1627.5"/>
<text xml:space="preserve" text-anchor="middle" x="127" y="-1612.55" font-family="Arial" font-size="11.00">Paso 1:</text>
<text xml:space="preserve" text-anchor="middle" x="127" y="-1599.05" font-family="Arial" font-size="11.00">7² = 49</text>
</g>
<!-- titulo_a&#45;&gt;paso1_a -->
<g id="edge2" class="edge">
<title>titulo_a&#45;&gt;paso1_a</title>
<path fill="none" stroke="black" d="M127,-1663.2C127,-1655.91 127,-1647.23 127,-1639.04"/>
<polygon fill="black" stroke="black" points="130.5,-1639.12 127,-1629.12 123.5,-1639.12 130.5,-1639.12"/>
</g>
<!-- paso2_a -->
<g id="node4" class="node">
<title>paso2_a</title>
<polygon fill="none" stroke="black" points="127,-1555.5 0,-1507 127,-1458.5 254,-1507 127,-1555.5"/>
<text xml:space="preserve" text-anchor="middle" x="127" y="-1516.8" font-family="Arial" font-size="11.00">Paso 2:</text>
<text xml:space="preserve" text-anchor="middle" x="127" y="-1503.3" font-family="Arial" font-size="11.00">¿15 &gt;= 49?</text>
<text xml:space="preserve" text-anchor="middle" x="127" y="-1489.8" font-family="Arial" font-size="11.00">Respuesta: NO (False)</text>
</g>
<!-- paso1_a&#45;&gt;paso2_a -->
<g id="edge3" class="edge">
<title>paso1_a&#45;&gt;paso2_a</title>
<path fill="none" stroke="black" d="M127,-1591.45C127,-1584.52 127,-1576.07 127,-1567.23"/>
<polygon fill="black" stroke="black" points="130.5,-1567.43 127,-1557.43 123.5,-1567.43 130.5,-1567.43"/>
</g>
<!-- paso3_a -->
<g id="node5" class="node">
<title>paso3_a</title>
<polygon fill="none" stroke="black" points="198.38,-1422.5 55.62,-1422.5 55.62,-1374 198.38,-1374 198.38,-1422.5"/>
<text xml:space="preserve" text-anchor="middle" x="127" y="-1408.05" font-family="Arial" font-size="11.00">Paso 3:</text>
<text xml:space="preserve" text-anchor="middle" x="127" y="-1394.55" font-family="Arial" font-size="11.00">Aplicar NO (negación)</text>
<text xml:space="preserve" text-anchor="middle" x="127" y="-1381.05" font-family="Arial" font-size="11.00">False se convierte en True</text>
</g>
<!-- paso2_a&#45;&gt;paso3_a -->
<g id="edge4" class="edge">
<title>paso2_a&#45;&gt;paso3_a</title>
<path fill="none" stroke="black" d="M127,-1458.25C127,-1450.16 127,-1441.9 127,-1434.21"/>
<polygon fill="black" stroke="black" points="130.5,-1434.24 127,-1424.24 123.5,-1434.24 130.5,-1434.24"/>
</g>
<!-- paso4_a -->
<g id="node6" class="node">
<title>paso4_a</title>
<polygon fill="none" stroke="black" points="173.62,-1338 80.37,-1338 80.37,-1289.5 173.62,-1289.5 173.62,-1338"/>
<text xml:space="preserve" text-anchor="middle" x="127" y="-1323.55" font-family="Arial" font-size="11.00">Paso 4:</text>
<text xml:space="preserve" text-anchor="middle" x="127" y="-1310.05" font-family="Arial" font-size="11.00">43 &#45; 8×2÷4 = 39</text>
<text xml:space="preserve" text-anchor="middle" x="127" y="-1296.55" font-family="Arial" font-size="11.00">3×2÷2 = 3</text>
</g>
<!-- paso3_a&#45;&gt;paso4_a -->
<g id="edge5" class="edge">
<title>paso3_a&#45;&gt;paso4_a</title>
<path fill="none" stroke="black" d="M127,-1373.83C127,-1366.25 127,-1357.68 127,-1349.47"/>
<polygon fill="black" stroke="black" points="130.5,-1349.74 127,-1339.74 123.5,-1349.74 130.5,-1349.74"/>
</g>
<!-- paso5_a -->
<g id="node7" class="node">
<title>paso5_a</title>
<polygon fill="none" stroke="black" points="127,-1253.5 10.5,-1205 127,-1156.5 243.5,-1205 127,-1253.5"/>
<text xml:space="preserve" text-anchor="middle" x="127" y="-1214.8" font-family="Arial" font-size="11.00">Paso 5:</text>
<text xml:space="preserve" text-anchor="middle" x="127" y="-1201.3" font-family="Arial" font-size="11.00">¿39 ≠ 3?</text>
<text xml:space="preserve" text-anchor="middle" x="127" y="-1187.8" font-family="Arial" font-size="11.00">Respuesta: SÍ (True)</text>
</g>
<!-- paso4_a&#45;&gt;paso5_a -->
<g id="edge6" class="edge">
<title>paso4_a&#45;&gt;paso5_a</title>
<path fill="none" stroke="black" d="M127,-1289.06C127,-1281.8 127,-1273.46 127,-1264.94"/>
<polygon fill="black" stroke="black" points="130.5,-1265.21 127,-1255.21 123.5,-1265.21 130.5,-1265.21"/>
</g>
<!-- salida_a -->
<g id="node8" class="node">
<title>salida_a</title>
<polygon fill="#ffb6c1" stroke="black" points="135.03,-1084.55 140.35,-1084.65 145.61,-1084.8 150.8,-1084.99 155.89,-1085.24 160.86,-1085.53 165.69,-1085.86 170.37,-1086.25 174.87,-1086.68 179.19,-1087.15 183.29,-1087.66 187.18,-1088.21 190.83,-1088.81 194.24,-1089.44 197.39,-1090.11 200.27,-1090.81 202.89,-1091.54 205.23,-1092.3 207.29,-1093.09 209.06,-1093.91 210.56,-1094.75 211.76,-1095.61 212.69,-1096.49 213.33,-1097.39 213.7,-1098.3 213.8,-1099.22 213.64,-1100.15 213.22,-1101.09 212.55,-1102.03 211.64,-1102.97 210.51,-1103.91 209.16,-1104.85 207.6,-1105.78 205.85,-1106.7 203.91,-1107.61 201.8,-1108.51 199.53,-1109.39 197.11,-1110.25 194.55,-1111.09 191.87,-1111.91 189.08,-1112.7 186.18,-1113.46 183.19,-1114.19 180.11,-1114.89 176.96,-1115.56 173.74,-1116.19 170.46,-1116.79 167.14,-1117.34 163.77,-1117.85 160.36,-1118.32 156.92,-1118.75 153.46,-1119.14 149.97,-1119.47 146.47,-1119.76 142.94,-1120.01 139.41,-1120.2 135.87,-1120.35 132.33,-1120.45 128.78,-1120.5 125.22,-1120.5 121.67,-1120.45 118.13,-1120.35 114.59,-1120.2 111.06,-1120.01 107.53,-1119.76 104.03,-1119.47 100.54,-1119.14 97.08,-1118.75 93.64,-1118.32 90.23,-1117.85 86.86,-1117.34 83.54,-1116.79 80.26,-1116.19 77.04,-1115.56 73.89,-1114.89 70.81,-1114.19 67.82,-1113.46 64.92,-1112.7 62.13,-1111.91 59.45,-1111.09 56.89,-1110.25 54.47,-1109.39 52.2,-1108.51 50.09,-1107.61 48.15,-1106.7 46.4,-1105.78 44.84,-1104.85 43.49,-1103.91 42.36,-1102.97 41.45,-1102.03 40.78,-1101.09 40.36,-1100.15 40.2,-1099.22 40.3,-1098.3 40.67,-1097.39 41.31,-1096.49 42.24,-1095.61 43.44,-1094.75 44.94,-1093.91 46.71,-1093.09 48.77,-1092.3 51.11,-1091.54 53.73,-1090.81 56.61,-1090.11 59.76,-1089.44 63.17,-1088.81 66.82,-1088.21 70.71,-1087.66 74.81,-1087.15 79.13,-1086.68 83.63,-1086.25 88.31,-1085.86 93.14,-1085.53 98.11,-1085.24 103.2,-1084.99 108.39,-1084.8 113.65,-1084.65 118.97,-1084.55 124.32,-1084.5 129.68,-1084.5 135.03,-1084.55"/>
<text xml:space="preserve" text-anchor="middle" x="127" y="-1098.8" font-family="Arial" font-size="11.00">Caso a) Resultado: true</text>
</g>
<!-- paso5_a&#45;&gt;salida_a -->
<g id="edge7" class="edge">
<title>paso5_a&#45;&gt;salida_a</title>
<path fill="none" stroke="black" d="M127,-1156.1C127,-1147.84 127,-1139.5 127,-1131.96"/>
<polygon fill="black" stroke="black" points="130.5,-1132.08 127,-1122.08 123.5,-1132.08 130.5,-1132.08"/>
</g>
<!-- titulo_b -->
<g id="node9" class="node">
<title>titulo_b</title>
<polygon fill="#ffd700" stroke="black" points="156,-1048.5 98,-1048.5 98,-1012.5 156,-1012.5 156,-1048.5"/>
<text xml:space="preserve" text-anchor="middle" x="127" y="-1026.8" font-family="Arial" font-size="11.00">CASO B</text>
</g>
<!-- salida_a&#45;&gt;titulo_b -->
<g id="edge8" class="edge">
<title>salida_a&#45;&gt;titulo_b</title>
<path fill="none" stroke="black" d="M127,-1084.2C127,-1076.91 127,-1068.23 127,-1060.04"/>
<polygon fill="black" stroke="black" points="130.5,-1060.12 127,-1050.12 123.5,-1060.12 130.5,-1060.12"/>
</g>
<!-- paso1_b -->
<g id="node10" class="node">
<title>paso1_b</title>
<polygon fill="none" stroke="black" points="180.37,-976.5 73.62,-976.5 73.62,-940.5 180.37,-940.5 180.37,-976.5"/>
<text xml:space="preserve" text-anchor="middle" x="127" y="-961.55" font-family="Arial" font-size="11.00">Paso 1:</text>
<text xml:space="preserve" text-anchor="middle" x="127" y="-948.05" font-family="Arial" font-size="11.00">7 × 3² = 7 × 9 = 63</text>
</g>
<!-- titulo_b&#45;&gt;paso1_b -->
<g id="edge9" class="edge">
<title>titulo_b&#45;&gt;paso1_b</title>
<path fill="none" stroke="black" d="M127,-1012.2C127,-1004.91 127,-996.23 127,-988.04"/>
<polygon fill="black" stroke="black" points="130.5,-988.12 127,-978.12 123.5,-988.12 130.5,-988.12"/>
</g>
<!-- paso2_b -->
<g id="node11" class="node">
<title>paso2_b</title>
<polygon fill="none" stroke="black" points="127,-904.5 0,-856 127,-807.5 254,-856 127,-904.5"/>
<text xml:space="preserve" text-anchor="middle" x="127" y="-865.8" font-family="Arial" font-size="11.00">Paso 2:</text>
<text xml:space="preserve" text-anchor="middle" x="127" y="-852.3" font-family="Arial" font-size="11.00">¿15 &gt;= 63?</text>
<text xml:space="preserve" text-anchor="middle" x="127" y="-838.8" font-family="Arial" font-size="11.00">Respuesta: NO (False)</text>
</g>
<!-- paso1_b&#45;&gt;paso2_b -->
<g id="edge10" class="edge">
<title>paso1_b&#45;&gt;paso2_b</title>
<path fill="none" stroke="black" d="M127,-940.45C127,-933.52 127,-925.07 127,-916.23"/>
<polygon fill="black" stroke="black" points="130.5,-916.43 127,-906.43 123.5,-916.43 130.5,-916.43"/>
</g>
<!-- paso3_b -->
<g id="node12" class="node">
<title>paso3_b</title>
<polygon fill="none" stroke="black" points="127,-771.5 7.5,-723 127,-674.5 246.5,-723 127,-771.5"/>
<text xml:space="preserve" text-anchor="middle" x="127" y="-732.8" font-family="Arial" font-size="11.00">Paso 3:</text>
<text xml:space="preserve" text-anchor="middle" x="127" y="-719.3" font-family="Arial" font-size="11.00">¿8 &gt; 3? → SÍ (True)</text>
<text xml:space="preserve" text-anchor="middle" x="127" y="-705.8" font-family="Arial" font-size="11.00">¿15 &gt; 6? → SÍ (True)</text>
</g>
<!-- paso2_b&#45;&gt;paso3_b -->
<g id="edge11" class="edge">
<title>paso2_b&#45;&gt;paso3_b</title>
<path fill="none" stroke="black" d="M127,-807.34C127,-799.48 127,-791.25 127,-783.16"/>
<polygon fill="black" stroke="black" points="130.5,-783.36 127,-773.36 123.5,-783.36 130.5,-783.36"/>
</g>
<!-- paso4_b -->
<g id="node13" class="node">
<title>paso4_b</title>
<polygon fill="none" stroke="black" points="183.38,-638.5 70.62,-638.5 70.62,-590 183.38,-590 183.38,-638.5"/>
<text xml:space="preserve" text-anchor="middle" x="127" y="-624.05" font-family="Arial" font-size="11.00">Paso 4:</text>
<text xml:space="preserve" text-anchor="middle" x="127" y="-610.55" font-family="Arial" font-size="11.00">False Y True Y True</text>
<text xml:space="preserve" text-anchor="middle" x="127" y="-597.05" font-family="Arial" font-size="11.00">= False</text>
</g>
<!-- paso3_b&#45;&gt;paso4_b -->
<g id="edge12" class="edge">
<title>paso3_b&#45;&gt;paso4_b</title>
<path fill="none" stroke="black" d="M127,-674.25C127,-666.16 127,-657.9 127,-650.21"/>
<polygon fill="black" stroke="black" points="130.5,-650.24 127,-640.24 123.5,-650.24 130.5,-650.24"/>
</g>
<!-- paso5_b -->
<g id="node14" class="node">
<title>paso5_b</title>
<polygon fill="none" stroke="black" points="183,-554 71,-554 71,-505.5 183,-505.5 183,-554"/>
<text xml:space="preserve" text-anchor="middle" x="127" y="-539.55" font-family="Arial" font-size="11.00">Paso 5:</text>
<text xml:space="preserve" text-anchor="middle" x="127" y="-526.05" font-family="Arial" font-size="11.00">12×2÷3² = 24÷9 = 2</text>
<text xml:space="preserve" text-anchor="middle" x="127" y="-512.55" font-family="Arial" font-size="11.00">5 + 2 = 7</text>
</g>
<!-- paso4_b&#45;&gt;paso5_b -->
<g id="edge13" class="edge">
<title>paso4_b&#45;&gt;paso5_b</title>
<path fill="none" stroke="black" d="M127,-589.83C127,-582.25 127,-573.68 127,-565.47"/>
<polygon fill="black" stroke="black" points="130.5,-565.74 127,-555.74 123.5,-565.74 130.5,-565.74"/>
</g>
<!-- paso6_b -->
<g id="node15" class="node">
<title>paso6_b</title>
<polygon fill="none" stroke="black" points="127,-469.5 0,-421 127,-372.5 254,-421 127,-469.5"/>
<text xml:space="preserve" text-anchor="middle" x="127" y="-430.8" font-family="Arial" font-size="11.00">Paso 6:</text>
<text xml:space="preserve" text-anchor="middle" x="127" y="-417.3" font-family="Arial" font-size="11.00">¿21 &lt; 7?</text>
<text xml:space="preserve" text-anchor="middle" x="127" y="-403.8" font-family="Arial" font-size="11.00">Respuesta: NO (False)</text>
</g>
<!-- paso5_b&#45;&gt;paso6_b -->
<g id="edge14" class="edge">
<title>paso5_b&#45;&gt;paso6_b</title>
<path fill="none" stroke="black" d="M127,-505.06C127,-497.8 127,-489.46 127,-480.94"/>
<polygon fill="black" stroke="black" points="130.5,-481.21 127,-471.21 123.5,-481.21 130.5,-481.21"/>
</g>
<!-- paso7_b -->
<g id="node16" class="node">
<title>paso7_b</title>
<polygon fill="none" stroke="black" points="198.38,-336.5 55.62,-336.5 55.62,-288 198.38,-288 198.38,-336.5"/>
<text xml:space="preserve" text-anchor="middle" x="127" y="-322.05" font-family="Arial" font-size="11.00">Paso 7:</text>
<text xml:space="preserve" text-anchor="middle" x="127" y="-308.55" font-family="Arial" font-size="11.00">Aplicar NO (negación)</text>
<text xml:space="preserve" text-anchor="middle" x="127" y="-295.05" font-family="Arial" font-size="11.00">False se convierte en True</text>
</g>
<!-- paso6_b&#45;&gt;paso7_b -->
<g id="edge15" class="edge">
<title>paso6_b&#45;&gt;paso7_b</title>
<path fill="none" stroke="black" d="M127,-372.25C127,-364.16 127,-355.9 127,-348.21"/>
<polygon fill="black" stroke="black" points="130.5,-348.24 127,-338.24 123.5,-348.24 130.5,-348.24"/>
</g>
<!-- salida_b -->
<g id="node17" class="node">
<title>salida_b</title>
<polygon fill="#ffb6c1" stroke="black" points="135.03,-216.05 140.35,-216.15 145.61,-216.3 150.8,-216.49 155.89,-216.74 160.86,-217.03 165.69,-217.36 170.37,-217.75 174.87,-218.18 179.19,-218.65 183.29,-219.16 187.18,-219.71 190.83,-220.31 194.24,-220.94 197.39,-221.61 200.27,-222.31 202.89,-223.04 205.23,-223.8 207.29,-224.59 209.06,-225.41 210.56,-226.25 211.76,-227.11 212.69,-227.99 213.33,-228.89 213.7,-229.8 213.8,-230.72 213.64,-231.65 213.22,-232.59 212.55,-233.53 211.64,-234.47 210.51,-235.41 209.16,-236.35 207.6,-237.28 205.85,-238.2 203.91,-239.11 201.8,-240.01 199.53,-240.89 197.11,-241.75 194.55,-242.59 191.87,-243.41 189.08,-244.2 186.18,-244.96 183.19,-245.69 180.11,-246.39 176.96,-247.06 173.74,-247.69 170.46,-248.29 167.14,-248.84 163.77,-249.35 160.36,-249.82 156.92,-250.25 153.46,-250.64 149.97,-250.97 146.47,-251.26 142.94,-251.51 139.41,-251.7 135.87,-251.85 132.33,-251.95 128.78,-252 125.22,-252 121.67,-251.95 118.13,-251.85 114.59,-251.7 111.06,-251.51 107.53,-251.26 104.03,-250.97 100.54,-250.64 97.08,-250.25 93.64,-249.82 90.23,-249.35 86.86,-248.84 83.54,-248.29 80.26,-247.69 77.04,-247.06 73.89,-246.39 70.81,-245.69 67.82,-244.96 64.92,-244.2 62.13,-243.41 59.45,-242.59 56.89,-241.75 54.47,-240.89 52.2,-240.01 50.09,-239.11 48.15,-238.2 46.4,-237.28 44.84,-236.35 43.49,-235.41 42.36,-234.47 41.45,-233.53 40.78,-232.59 40.36,-231.65 40.2,-230.72 40.3,-229.8 40.67,-228.89 41.31,-227.99 42.24,-227.11 43.44,-226.25 44.94,-225.41 46.71,-224.59 48.77,-223.8 51.11,-223.04 53.73,-222.31 56.61,-221.61 59.76,-220.94 63.17,-220.31 66.82,-219.71 70.71,-219.16 74.81,-218.65 79.13,-218.18 83.63,-217.75 88.31,-217.36 93.14,-217.03 98.11,-216.74 103.2,-216.49 108.39,-216.3 113.65,-216.15 118.97,-216.05 124.32,-216 129.68,-216 135.03,-216.05"/>
<text xml:space="preserve" text-anchor="middle" x="127" y="-230.3" font-family="Arial" font-size="11.00">Caso b) Resultado: true</text>
</g>
<!-- paso7_b&#45;&gt;salida_b -->
<g id="edge16" class="edge">
<title>paso7_b&#45;&gt;salida_b</title>
<path fill="none" stroke="black" d="M127,-287.54C127,-279.99 127,-271.56 127,-263.7"/>
<polygon fill="black" stroke="black" points="130.5,-263.91 127,-253.91 123.5,-263.91 130.5,-263.91"/>
</g>
<!-- titulo_c -->
<g id="node18" class="node">
<title>titulo_c</title>
<polygon fill="#ffd700" stroke="black" points="156.38,-180 97.62,-180 97.62,-144 156.38,-144 156.38,-180"/>
<text xml:space="preserve" text-anchor="middle" x="127" y="-158.3" font-family="Arial" font-size="11.00">CASO C</text>
</g>
<!-- salida_b&#45;&gt;titulo_c -->
<g id="edge17" class="edge">
<title>salida_b&#45;&gt;titulo_c</title>
<path fill="none" stroke="black" d="M127,-215.7C127,-208.41 127,-199.73 127,-191.54"/>
<polygon fill="black" stroke="black" points="130.5,-191.62 127,-181.62 123.5,-191.62 130.5,-191.62"/>
</g>
<!-- salida_c -->
<g id="node19" class="node">
<title>salida_c</title>
<polygon fill="#ffb6c1" stroke="black" points="137.98,-72.05 145.25,-72.15 152.45,-72.3 159.54,-72.49 166.49,-72.74 173.29,-73.03 179.9,-73.36 186.29,-73.75 192.45,-74.18 198.34,-74.65 203.96,-75.16 209.27,-75.71 214.26,-76.31 218.92,-76.94 223.23,-77.61 227.17,-78.31 230.75,-79.04 233.95,-79.8 236.76,-80.59 239.19,-81.41 241.23,-82.25 242.88,-83.11 244.14,-83.99 245.02,-84.89 245.53,-85.8 245.67,-86.72 245.44,-87.65 244.87,-88.59 243.95,-89.53 242.72,-90.47 241.17,-91.41 239.32,-92.35 237.19,-93.28 234.79,-94.2 232.14,-95.11 229.26,-96.01 226.15,-96.89 222.85,-97.75 219.35,-98.59 215.69,-99.41 211.87,-100.2 207.9,-100.96 203.81,-101.69 199.61,-102.39 195.3,-103.06 190.9,-103.69 186.42,-104.29 181.87,-104.84 177.27,-105.35 172.61,-105.82 167.91,-106.25 163.17,-106.64 158.4,-106.97 153.61,-107.26 148.8,-107.51 143.97,-107.7 139.13,-107.85 134.28,-107.95 129.43,-108 124.57,-108 119.72,-107.95 114.87,-107.85 110.03,-107.7 105.2,-107.51 100.39,-107.26 95.6,-106.97 90.83,-106.64 86.09,-106.25 81.39,-105.82 76.73,-105.35 72.13,-104.84 67.58,-104.29 63.1,-103.69 58.7,-103.06 54.39,-102.39 50.19,-101.69 46.1,-100.96 42.13,-100.2 38.31,-99.41 34.65,-98.59 31.15,-97.75 27.85,-96.89 24.74,-96.01 21.86,-95.11 19.21,-94.2 16.81,-93.28 14.68,-92.35 12.83,-91.41 11.28,-90.47 10.05,-89.53 9.13,-88.59 8.56,-87.65 8.33,-86.72 8.47,-85.8 8.98,-84.89 9.86,-83.99 11.12,-83.11 12.77,-82.25 14.81,-81.41 17.24,-80.59 20.05,-79.8 23.25,-79.04 26.83,-78.31 30.77,-77.61 35.08,-76.94 39.74,-76.31 44.73,-75.71 50.04,-75.16 55.66,-74.65 61.55,-74.18 67.71,-73.75 74.1,-73.36 80.71,-73.03 87.51,-72.74 94.46,-72.49 101.55,-72.3 108.75,-72.15 116.02,-72.05 123.33,-72 130.67,-72 137.98,-72.05"/>
<text xml:space="preserve" text-anchor="middle" x="127" y="-86.3" font-family="Arial" font-size="11.00">Caso c) Produce un error de tipos</text>
</g>
<!-- titulo_c&#45;&gt;salida_c -->
<g id="edge18" class="edge">
<title>titulo_c&#45;&gt;salida_c</title>
<path fill="none" stroke="black" d="M127,-143.7C127,-136.41 127,-127.73 127,-119.54"/>
<polygon fill="black" stroke="black" points="130.5,-119.62 127,-109.62 123.5,-119.62 130.5,-119.62"/>
</g>
<!-- fin -->
<g id="node20" class="node">
<title>fin</title>
<ellipse fill="#ff6b6b" stroke="black" cx="127" cy="-18" rx="27" ry="18"/>
<text xml:space="preserve" text-anchor="middle" x="127" y="-14.3" font-family="Arial" font-size="11.00">FIN</text>
</g>
<!-- salida_c&#45;&gt;fin -->
<g id="edge19" class="edge">
<title>salida_c&#45;&gt;fin</title>
<path fill="none" stroke="black" d="M127,-71.7C127,-64.41 127,-55.73 127,-47.54"/>
<polygon fill="black" stroke="black" points="130.5,-47.62 127,-37.62 123.5,-47.62 130.5,-47.62"/>
</g>
</g>
</svg>
