<?xml version="1.0" encoding="UTF-8" standalone="no"?>
<!DOCTYPE svg PUBLIC "-//W3C//DTD SVG 1.1//EN"
 "http://www.w3.org/Graphics/SVG/1.1/DTD/svg11.dtd">
<!-- Generated by graphviz version 14.1.0 (20251206.1807)
 -->
<!-- Title: problema_5_1 Pages: 1 -->
<svg width="1112pt" height="744pt"
 viewBox="0.00 0.00 1112.00 744.00" xmlns="http://www.w3.org/2000/svg" xmlns:xlink="http://www.w3.org/1999/xlink">
<g id="graph0" class="graph" transform="scale(1 1) rotate(0) translate(4 739.59)">
<title>problema_5_1</title>
<polygon fill="white" stroke="none" points="-4,4 -4,-739.59 1107.73,-739.59 1107.73,4 -4,4"/>
<!-- inicio -->
<g id="node1" class="node">
<title>inicio</title>
<ellipse fill="#90ee90" stroke="black" cx="634" cy="-701.29" rx="109.96" ry="34.29"/>
<text xml:space="preserve" text-anchor="middle" x="634" y="-711.09" font-family="Arial" font-size="11.00">INICIO</text>
<text xml:space="preserve" text-anchor="middle" x="634" y="-697.59" font-family="Arial" font-size="11.00">(Matrices A1 y B1 ya leídas</text>
<text xml:space="preserve" text-anchor="middle" x="634" y="-684.09" font-family="Arial" font-size="11.00">como arreglos de elementos)</text>
</g>
<!-- init -->
<g id="node2" class="node">
<title>init</title>
<polygon fill="none" stroke="black" points="701.62,-630 566.38,-630 566.38,-554.5 701.62,-554.5 701.62,-630"/>
<text xml:space="preserve" text-anchor="middle" x="634" y="-615.55" font-family="Arial" font-size="11.00">Crear matriz C[M][N] = 0</text>
<text xml:space="preserve" text-anchor="middle" x="634" y="-602.05" font-family="Arial" font-size="11.00">I = 1 (puntero en A1)</text>
<text xml:space="preserve" text-anchor="middle" x="634" y="-588.55" font-family="Arial" font-size="11.00">J = 1 (puntero en B1)</text>
<text xml:space="preserve" text-anchor="middle" x="634" y="-575.05" font-family="Arial" font-size="11.00">K = tamaño de A1</text>
<text xml:space="preserve" text-anchor="middle" x="634" y="-561.55" font-family="Arial" font-size="11.00">L = tamaño de B1</text>
</g>
<!-- inicio&#45;&gt;init -->
<g id="edge1" class="edge">
<title>inicio&#45;&gt;init</title>
<path fill="none" stroke="black" d="M634,-666.72C634,-658.79 634,-650.19 634,-641.75"/>
<polygon fill="black" stroke="black" points="637.5,-641.94 634,-631.94 630.5,-641.94 637.5,-641.94"/>
</g>
<!-- ciclo_principal -->
<g id="node3" class="node">
<title>ciclo_principal</title>
<polygon fill="#ffd700" stroke="black" points="634,-517.5 543.2,-499.5 634,-481.5 724.8,-499.5 634,-517.5"/>
<text xml:space="preserve" text-anchor="middle" x="634" y="-495.8" font-family="Arial" font-size="11.00">¿(I ≤ K) Y (J ≤ L)?</text>
</g>
<!-- init&#45;&gt;ciclo_principal -->
<g id="edge2" class="edge">
<title>init&#45;&gt;ciclo_principal</title>
<path fill="none" stroke="black" d="M634,-554.08C634,-545.76 634,-537.05 634,-529.14"/>
<polygon fill="black" stroke="black" points="637.5,-529.4 634,-519.4 630.5,-529.4 637.5,-529.4"/>
</g>
<!-- comp_ren -->
<g id="node4" class="node">
<title>comp_ren</title>
<polygon fill="none" stroke="black" points="465,-412.5 339.15,-394.5 465,-376.5 590.85,-394.5 465,-412.5"/>
<text xml:space="preserve" text-anchor="middle" x="465" y="-390.8" font-family="Arial" font-size="11.00">¿A1[I].REN = B1[J].REN?</text>
</g>
<!-- ciclo_principal&#45;&gt;comp_ren -->
<g id="edge3" class="edge">
<title>ciclo_principal&#45;&gt;comp_ren</title>
<path fill="none" stroke="black" d="M612.6,-485.45C583.57,-467.77 531.48,-436.02 497.59,-415.36"/>
<polygon fill="black" stroke="black" points="499.77,-412.59 489.41,-410.38 496.13,-418.57 499.77,-412.59"/>
<text xml:space="preserve" text-anchor="middle" x="580.51" y="-441.95" font-family="Times New Roman,serif" font-size="14.00">SÍ</text>
</g>
<!-- ciclo_resto_a -->
<g id="node11" class="node">
<title>ciclo_resto_a</title>
<polygon fill="none" stroke="black" points="882,-412.5 836.82,-394.5 882,-376.5 927.18,-394.5 882,-412.5"/>
<text xml:space="preserve" text-anchor="middle" x="882" y="-390.8" font-family="Arial" font-size="11.00">¿I ≤ K?</text>
</g>
<!-- ciclo_principal&#45;&gt;ciclo_resto_a -->
<g id="edge15" class="edge">
<title>ciclo_principal&#45;&gt;ciclo_resto_a</title>
<path fill="none" stroke="black" d="M672.05,-488.59C694.48,-482.31 723.23,-473.5 748,-463.5 786.01,-448.15 827.85,-426.02 854.49,-411.22"/>
<polygon fill="black" stroke="black" points="855.92,-414.43 862.93,-406.49 852.5,-408.33 855.92,-414.43"/>
<text xml:space="preserve" text-anchor="middle" x="856.36" y="-450.2" font-family="Times New Roman,serif" font-size="14.00">NO</text>
<text xml:space="preserve" text-anchor="middle" x="856.36" y="-433.7" font-family="Times New Roman,serif" font-size="14.00">(uno terminó)</text>
</g>
<!-- comp_col -->
<g id="node5" class="node">
<title>comp_col</title>
<polygon fill="none" stroke="black" points="465,-317.75 341.8,-299.75 465,-281.75 588.2,-299.75 465,-317.75"/>
<text xml:space="preserve" text-anchor="middle" x="465" y="-296.05" font-family="Arial" font-size="11.00">¿A1[I].COL = B1[J].COL?</text>
</g>
<!-- comp_ren&#45;&gt;comp_col -->
<g id="edge4" class="edge">
<title>comp_ren&#45;&gt;comp_col</title>
<path fill="none" stroke="black" d="M465,-376.05C465,-362.97 465,-344.77 465,-329.54"/>
<polygon fill="black" stroke="black" points="468.5,-329.63 465,-319.63 461.5,-329.63 468.5,-329.63"/>
<text xml:space="preserve" text-anchor="middle" x="471" y="-345.2" font-family="Times New Roman,serif" font-size="14.00">SÍ</text>
</g>
<!-- comp_ren_menor -->
<g id="node10" class="node">
<title>comp_ren_menor</title>
<polygon fill="none" stroke="black" points="154,-186.75 28.15,-168.75 154,-150.75 279.85,-168.75 154,-186.75"/>
<text xml:space="preserve" text-anchor="middle" x="154" y="-165.05" font-family="Arial" font-size="11.00">¿A1[I].REN &lt; B1[J].REN?</text>
</g>
<!-- comp_ren&#45;&gt;comp_ren_menor -->
<g id="edge12" class="edge">
<title>comp_ren&#45;&gt;comp_ren_menor</title>
<path fill="none" stroke="black" d="M429.54,-381.17C397.65,-369.18 350.3,-349.14 313.5,-324 257.1,-285.46 202.3,-226.3 173.95,-193.58"/>
<polygon fill="black" stroke="black" points="176.83,-191.56 167.66,-186.24 171.51,-196.11 176.83,-191.56"/>
<text xml:space="preserve" text-anchor="middle" x="323.25" y="-294.7" font-family="Times New Roman,serif" font-size="14.00">NO</text>
</g>
<!-- sumar -->
<g id="node6" class="node">
<title>sumar</title>
<polygon fill="none" stroke="black" points="705.75,-206.5 562.25,-206.5 562.25,-131 705.75,-131 705.75,-206.5"/>
<text xml:space="preserve" text-anchor="middle" x="634" y="-192.05" font-family="Arial" font-size="11.00">C[A1[I].REN][A1[I].COL] =</text>
<text xml:space="preserve" text-anchor="middle" x="634" y="-178.55" font-family="Arial" font-size="11.00"> &#160;A1[I].VAL + B1[J].VAL</text>
<text xml:space="preserve" text-anchor="middle" x="634" y="-165.05" font-family="Arial" font-size="11.00">I = I + 1</text>
<text xml:space="preserve" text-anchor="middle" x="634" y="-151.55" font-family="Arial" font-size="11.00">J = J + 1</text>
<text xml:space="preserve" text-anchor="middle" x="634" y="-138.05" font-family="Arial" font-size="11.00">(Sumar elementos)</text>
</g>
<!-- comp_col&#45;&gt;sumar -->
<g id="edge5" class="edge">
<title>comp_col&#45;&gt;sumar</title>
<path fill="none" stroke="black" d="M474.64,-282.86C485.15,-266.56 503.27,-241.28 524,-224.5 529.56,-220 539.76,-214.1 551.78,-207.84"/>
<polygon fill="black" stroke="black" points="553.08,-211.1 560.41,-203.45 549.91,-204.86 553.08,-211.1"/>
<text xml:space="preserve" text-anchor="middle" x="572" y="-244.2" font-family="Times New Roman,serif" font-size="14.00">SÍ</text>
<text xml:space="preserve" text-anchor="middle" x="572" y="-227.7" font-family="Times New Roman,serif" font-size="14.00">(misma posición)</text>
</g>
<!-- comp_col_menor -->
<g id="node7" class="node">
<title>comp_col_menor</title>
<polygon fill="none" stroke="black" points="421,-186.75 297.8,-168.75 421,-150.75 544.2,-168.75 421,-186.75"/>
<text xml:space="preserve" text-anchor="middle" x="421" y="-165.05" font-family="Arial" font-size="11.00">¿A1[I].COL &lt; B1[J].COL?</text>
</g>
<!-- comp_col&#45;&gt;comp_col_menor -->
<g id="edge7" class="edge">
<title>comp_col&#45;&gt;comp_col_menor</title>
<path fill="none" stroke="black" d="M459.34,-282.15C451.98,-260.57 439.03,-222.61 430.24,-196.84"/>
<polygon fill="black" stroke="black" points="433.67,-196.05 427.13,-187.72 427.04,-198.31 433.67,-196.05"/>
<text xml:space="preserve" text-anchor="middle" x="460.52" y="-235.95" font-family="Times New Roman,serif" font-size="14.00">NO</text>
</g>
<!-- sumar&#45;&gt;ciclo_principal -->
<g id="edge6" class="edge">
<title>sumar&#45;&gt;ciclo_principal</title>
<path fill="none" stroke="black" d="M634,-206.97C634,-273.23 634,-410.24 634,-469.81"/>
<polygon fill="black" stroke="black" points="630.5,-469.77 634,-479.77 637.5,-469.77 630.5,-469.77"/>
</g>
<!-- copiar_a -->
<g id="node8" class="node">
<title>copiar_a</title>
<polygon fill="none" stroke="black" points="200.75,-62 57.25,-62 57.25,0 200.75,0 200.75,-62"/>
<text xml:space="preserve" text-anchor="middle" x="129" y="-47.55" font-family="Arial" font-size="11.00">C[A1[I].REN][A1[I].COL] =</text>
<text xml:space="preserve" text-anchor="middle" x="129" y="-34.05" font-family="Arial" font-size="11.00"> &#160;A1[I].VAL</text>
<text xml:space="preserve" text-anchor="middle" x="129" y="-20.55" font-family="Arial" font-size="11.00">I = I + 1</text>
<text xml:space="preserve" text-anchor="middle" x="129" y="-7.05" font-family="Arial" font-size="11.00">(Copiar de A1)</text>
</g>
<!-- comp_col_menor&#45;&gt;copiar_a -->
<g id="edge8" class="edge">
<title>comp_col_menor&#45;&gt;copiar_a</title>
<path fill="none" stroke="black" d="M398.32,-153.62C382.66,-143.33 361.8,-128.52 345.5,-113 331.88,-100.03 334.83,-90.16 319,-80 287.23,-59.6 247.29,-47.86 212.24,-41.12"/>
<polygon fill="black" stroke="black" points="213,-37.7 202.54,-39.36 211.76,-44.59 213,-37.7"/>
<text xml:space="preserve" text-anchor="middle" x="386.75" y="-99.7" font-family="Times New Roman,serif" font-size="14.00">SÍ</text>
<text xml:space="preserve" text-anchor="middle" x="386.75" y="-83.2" font-family="Times New Roman,serif" font-size="14.00">(A viene antes)</text>
</g>
<!-- copiar_b -->
<g id="node9" class="node">
<title>copiar_b</title>
<polygon fill="none" stroke="black" points="521,-62 373,-62 373,0 521,0 521,-62"/>
<text xml:space="preserve" text-anchor="middle" x="447" y="-47.55" font-family="Arial" font-size="11.00">C[B1[J].REN][B1[J].COL] =</text>
<text xml:space="preserve" text-anchor="middle" x="447" y="-34.05" font-family="Arial" font-size="11.00"> &#160;B1[J].VAL</text>
<text xml:space="preserve" text-anchor="middle" x="447" y="-20.55" font-family="Arial" font-size="11.00">J = J + 1</text>
<text xml:space="preserve" text-anchor="middle" x="447" y="-7.05" font-family="Arial" font-size="11.00">(Copiar de B1)</text>
</g>
<!-- comp_col_menor&#45;&gt;copiar_b -->
<g id="edge9" class="edge">
<title>comp_col_menor&#45;&gt;copiar_b</title>
<path fill="none" stroke="black" d="M424.24,-150.83C427.93,-131.58 434.09,-99.43 439.07,-73.42"/>
<polygon fill="black" stroke="black" points="442.46,-74.31 440.9,-63.83 435.59,-72.99 442.46,-74.31"/>
<text xml:space="preserve" text-anchor="middle" x="478.34" y="-99.7" font-family="Times New Roman,serif" font-size="14.00">NO</text>
<text xml:space="preserve" text-anchor="middle" x="478.34" y="-83.2" font-family="Times New Roman,serif" font-size="14.00">(B viene antes)</text>
</g>
<!-- copiar_a&#45;&gt;ciclo_principal -->
<g id="edge10" class="edge">
<title>copiar_a&#45;&gt;ciclo_principal</title>
<path fill="none" stroke="black" d="M73.54,-62.32C38.58,-85.9 0,-122.23 0,-167.75 0,-395.5 0,-395.5 0,-395.5 0,-451.09 384.71,-482.58 554.78,-493.78"/>
<polygon fill="black" stroke="black" points="554.43,-497.26 564.64,-494.42 554.89,-490.28 554.43,-497.26"/>
</g>
<!-- copiar_b&#45;&gt;ciclo_principal -->
<g id="edge11" class="edge">
<title>copiar_b&#45;&gt;ciclo_principal</title>
<path fill="none" stroke="black" d="M521.28,-35.82C606.32,-44.68 734,-73.63 734,-167.75 734,-395.5 734,-395.5 734,-395.5 734,-433.74 698.09,-463.13 669.31,-480.56"/>
<polygon fill="black" stroke="black" points="667.72,-477.43 660.8,-485.46 671.22,-483.49 667.72,-477.43"/>
</g>
<!-- comp_ren_menor&#45;&gt;copiar_a -->
<g id="edge13" class="edge">
<title>comp_ren_menor&#45;&gt;copiar_a</title>
<path fill="none" stroke="black" d="M145.06,-151.53C139.72,-140.92 133.42,-126.55 130.5,-113 127.78,-100.37 126.82,-86.37 126.71,-73.61"/>
<polygon fill="black" stroke="black" points="130.2,-73.87 126.8,-63.84 123.2,-73.8 130.2,-73.87"/>
<text xml:space="preserve" text-anchor="middle" x="171.75" y="-99.7" font-family="Times New Roman,serif" font-size="14.00">SÍ</text>
<text xml:space="preserve" text-anchor="middle" x="171.75" y="-83.2" font-family="Times New Roman,serif" font-size="14.00">(A viene antes)</text>
</g>
<!-- comp_ren_menor&#45;&gt;copiar_b -->
<g id="edge14" class="edge">
<title>comp_ren_menor&#45;&gt;copiar_b</title>
<path fill="none" stroke="black" d="M172.61,-152.92C184.94,-142.54 200.99,-127.91 213,-113 223.69,-99.73 218.72,-90.02 232.5,-80 269.61,-53.02 319.17,-40.8 361.31,-35.42"/>
<polygon fill="black" stroke="black" points="361.66,-38.9 371.19,-34.28 360.86,-31.95 361.66,-38.9"/>
<text xml:space="preserve" text-anchor="middle" x="273.75" y="-99.7" font-family="Times New Roman,serif" font-size="14.00">NO</text>
<text xml:space="preserve" text-anchor="middle" x="273.75" y="-83.2" font-family="Times New Roman,serif" font-size="14.00">(B viene antes)</text>
</g>
<!-- copiar_resto_a -->
<g id="node12" class="node">
<title>copiar_resto_a</title>
<polygon fill="none" stroke="black" points="1043.75,-324 900.25,-324 900.25,-275.5 1043.75,-275.5 1043.75,-324"/>
<text xml:space="preserve" text-anchor="middle" x="972" y="-309.55" font-family="Arial" font-size="11.00">C[A1[I].REN][A1[I].COL] =</text>
<text xml:space="preserve" text-anchor="middle" x="972" y="-296.05" font-family="Arial" font-size="11.00"> &#160;A1[I].VAL</text>
<text xml:space="preserve" text-anchor="middle" x="972" y="-282.55" font-family="Arial" font-size="11.00">I = I + 1</text>
</g>
<!-- ciclo_resto_a&#45;&gt;copiar_resto_a -->
<g id="edge16" class="edge">
<title>ciclo_resto_a&#45;&gt;copiar_resto_a</title>
<path fill="none" stroke="black" d="M894.14,-380.99C906.18,-368.58 925.12,-349.06 941.31,-332.38"/>
<polygon fill="black" stroke="black" points="943.48,-335.17 947.93,-325.55 938.46,-330.29 943.48,-335.17"/>
<text xml:space="preserve" text-anchor="middle" x="935.7" y="-345.2" font-family="Times New Roman,serif" font-size="14.00">SÍ</text>
</g>
<!-- ciclo_resto_b -->
<g id="node13" class="node">
<title>ciclo_resto_b</title>
<polygon fill="none" stroke="black" points="836,-317.75 790.16,-299.75 836,-281.75 881.84,-299.75 836,-317.75"/>
<text xml:space="preserve" text-anchor="middle" x="836" y="-296.05" font-family="Arial" font-size="11.00">¿J ≤ L?</text>
</g>
<!-- ciclo_resto_a&#45;&gt;ciclo_resto_b -->
<g id="edge18" class="edge">
<title>ciclo_resto_a&#45;&gt;ciclo_resto_b</title>
<path fill="none" stroke="black" d="M874.81,-379.01C867.66,-364.58 856.54,-342.17 848.04,-325.02"/>
<polygon fill="black" stroke="black" points="851.39,-323.9 843.81,-316.5 845.12,-327.01 851.39,-323.9"/>
<text xml:space="preserve" text-anchor="middle" x="874.22" y="-345.2" font-family="Times New Roman,serif" font-size="14.00">NO</text>
</g>
<!-- copiar_resto_a&#45;&gt;ciclo_resto_a -->
<g id="edge17" class="edge">
<title>copiar_resto_a&#45;&gt;ciclo_resto_a</title>
<path fill="none" stroke="black" d="M965.27,-324.41C961.13,-335.74 954.89,-348.9 946,-358.5 937.53,-367.66 926.1,-374.95 915.24,-380.46"/>
<polygon fill="black" stroke="black" points="914.07,-377.14 906.49,-384.55 917.04,-383.48 914.07,-377.14"/>
</g>
<!-- copiar_resto_b -->
<g id="node14" class="node">
<title>copiar_resto_b</title>
<polygon fill="none" stroke="black" points="910,-193 762,-193 762,-144.5 910,-144.5 910,-193"/>
<text xml:space="preserve" text-anchor="middle" x="836" y="-178.55" font-family="Arial" font-size="11.00">C[B1[J].REN][B1[J].COL] =</text>
<text xml:space="preserve" text-anchor="middle" x="836" y="-165.05" font-family="Arial" font-size="11.00"> &#160;B1[J].VAL</text>
<text xml:space="preserve" text-anchor="middle" x="836" y="-151.55" font-family="Arial" font-size="11.00">J = J + 1</text>
</g>
<!-- ciclo_resto_b&#45;&gt;copiar_resto_b -->
<g id="edge19" class="edge">
<title>ciclo_resto_b&#45;&gt;copiar_resto_b</title>
<path fill="none" stroke="black" d="M830.05,-283.73C827.31,-276.03 824.37,-266.41 823,-257.5 820.31,-239.98 822.66,-220.49 826.07,-204.33"/>
<polygon fill="black" stroke="black" points="829.45,-205.23 828.33,-194.7 822.64,-203.63 829.45,-205.23"/>
<text xml:space="preserve" text-anchor="middle" x="829" y="-235.95" font-family="Times New Roman,serif" font-size="14.00">SÍ</text>
</g>
<!-- salida -->
<g id="node15" class="node">
<title>salida</title>
<polygon fill="#ffb6c1" stroke="black" points="1024.12,-144.06 1029.49,-144.2 1034.81,-144.4 1040.05,-144.67 1045.2,-145 1050.22,-145.4 1055.11,-145.87 1059.83,-146.4 1064.39,-146.99 1068.74,-147.63 1072.89,-148.34 1076.82,-149.1 1080.51,-149.92 1083.95,-150.79 1087.14,-151.7 1090.06,-152.67 1092.7,-153.67 1095.07,-154.72 1097.15,-155.81 1098.94,-156.93 1100.45,-158.09 1101.67,-159.27 1102.6,-160.48 1103.25,-161.72 1103.63,-162.97 1103.73,-164.24 1103.56,-165.52 1103.14,-166.81 1102.46,-168.1 1101.55,-169.4 1100.4,-170.69 1099.04,-171.98 1097.46,-173.26 1095.69,-174.53 1093.73,-175.78 1091.6,-177.02 1089.3,-178.23 1086.86,-179.41 1084.28,-180.57 1081.57,-181.69 1078.74,-182.78 1075.81,-183.83 1072.79,-184.83 1069.68,-185.8 1066.49,-186.71 1063.24,-187.58 1059.93,-188.4 1056.57,-189.16 1053.16,-189.87 1049.72,-190.51 1046.24,-191.1 1042.74,-191.63 1039.22,-192.1 1035.67,-192.5 1032.11,-192.83 1028.55,-193.1 1024.97,-193.3 1021.38,-193.44 1017.79,-193.51 1014.21,-193.51 1010.62,-193.44 1007.03,-193.3 1003.45,-193.1 999.89,-192.83 996.33,-192.5 992.78,-192.1 989.26,-191.63 985.76,-191.1 982.28,-190.51 978.84,-189.87 975.43,-189.16 972.07,-188.4 968.76,-187.58 965.51,-186.71 962.32,-185.8 959.21,-184.83 956.19,-183.83 953.26,-182.78 950.43,-181.69 947.72,-180.57 945.14,-179.41 942.7,-178.23 940.4,-177.02 938.27,-175.78 936.31,-174.53 934.54,-173.26 932.96,-171.98 931.6,-170.69 930.45,-169.4 929.54,-168.1 928.86,-166.81 928.44,-165.52 928.27,-164.24 928.37,-162.97 928.75,-161.72 929.4,-160.48 930.33,-159.27 931.55,-158.09 933.06,-156.93 934.85,-155.81 936.93,-154.72 939.3,-153.67 941.94,-152.67 944.86,-151.7 948.05,-150.79 951.49,-149.92 955.18,-149.1 959.11,-148.34 963.26,-147.63 967.61,-146.99 972.17,-146.4 976.89,-145.87 981.78,-145.4 986.8,-145 991.95,-144.67 997.19,-144.4 1002.51,-144.2 1007.88,-144.06 1013.29,-143.99 1018.71,-143.99 1024.12,-144.06"/>
<text xml:space="preserve" text-anchor="middle" x="1016" y="-171.8" font-family="Arial" font-size="11.00">Imprimir matriz C</text>
<text xml:space="preserve" text-anchor="middle" x="1016" y="-158.3" font-family="Arial" font-size="11.00">(Resultado de A + B)</text>
</g>
<!-- ciclo_resto_b&#45;&gt;salida -->
<g id="edge21" class="edge">
<title>ciclo_resto_b&#45;&gt;salida</title>
<path fill="none" stroke="black" d="M851.66,-287.53C879.29,-267.72 937.5,-226.01 976.68,-197.93"/>
<polygon fill="black" stroke="black" points="978.39,-201.01 984.48,-192.34 974.32,-195.32 978.39,-201.01"/>
<text xml:space="preserve" text-anchor="middle" x="946.53" y="-235.95" font-family="Times New Roman,serif" font-size="14.00">NO</text>
</g>
<!-- copiar_resto_b&#45;&gt;ciclo_resto_b -->
<g id="edge20" class="edge">
<title>copiar_resto_b&#45;&gt;ciclo_resto_b</title>
<path fill="none" stroke="black" d="M836,-193.43C836,-214.98 836,-246.86 836,-269.9"/>
<polygon fill="black" stroke="black" points="832.5,-269.84 836,-279.84 839.5,-269.84 832.5,-269.84"/>
</g>
<!-- fin -->
<g id="node16" class="node">
<title>fin</title>
<ellipse fill="#ff6b6b" stroke="black" cx="1016" cy="-31" rx="27" ry="18"/>
<text xml:space="preserve" text-anchor="middle" x="1016" y="-27.3" font-family="Arial" font-size="11.00">FIN</text>
</g>
<!-- salida&#45;&gt;fin -->
<g id="edge22" class="edge">
<title>salida&#45;&gt;fin</title>
<path fill="none" stroke="black" d="M1016,-143.79C1016,-120.61 1016,-85.45 1016,-60.77"/>
<polygon fill="black" stroke="black" points="1019.5,-60.78 1016,-50.78 1012.5,-60.78 1019.5,-60.78"/>
</g>
</g>
</svg>
