<?xml version="1.0" encoding="UTF-8" standalone="no"?>
<!DOCTYPE svg PUBLIC "-//W3C//DTD SVG 1.1//EN"
 "http://www.w3.org/Graphics/SVG/1.1/DTD/svg11.dtd">
<!-- Generated by graphviz version 14.1.0 (20251206.1807)
 -->
<!-- Title: ejemplo_4_10 Pages: 1 -->
<svg width="287pt" height="1503pt"
 viewBox="0.00 0.00 287.00 1503.00" xmlns="http://www.w3.org/2000/svg" xmlns:xlink="http://www.w3.org/1999/xlink">
<g id="graph0" class="graph" transform="scale(1 1) rotate(0) translate(4 1499.16)">
<title>ejemplo_4_10</title>
<polygon fill="white" stroke="none" points="-4,4 -4,-1499.16 283.37,-1499.16 283.37,4 -4,4"/>
<!-- inicio -->
<g id="node1" class="node">
<title>inicio</title>
<ellipse fill="#90ee90" stroke="black" cx="139.69" cy="-1477.16" rx="31.01" ry="18"/>
<text xml:space="preserve" text-anchor="middle" x="139.69" y="-1473.46" font-family="Arial" font-size="11.00">INICIO</text>
</g>
<!-- cargar -->
<g id="node2" class="node">
<title>cargar</title>
<polygon fill="#87ceeb" stroke="black" points="251.91,-1423.16 73.38,-1423.16 27.46,-1326.16 205.99,-1326.16 251.91,-1423.16"/>
<text xml:space="preserve" text-anchor="middle" x="139.69" y="-1384.46" font-family="Arial" font-size="11.00">Cargar arreglo</text>
<text xml:space="preserve" text-anchor="middle" x="139.69" y="-1370.96" font-family="Arial" font-size="11.00">MET[32][12][5]</text>
<text xml:space="preserve" text-anchor="middle" x="139.69" y="-1357.46" font-family="Arial" font-size="11.00">(Estado, Mes, Año)</text>
</g>
<!-- inicio&#45;&gt;cargar -->
<g id="edge1" class="edge">
<title>inicio&#45;&gt;cargar</title>
<path fill="none" stroke="black" d="M139.69,-1459.11C139.69,-1452.18 139.69,-1443.72 139.69,-1434.88"/>
<polygon fill="black" stroke="black" points="143.19,-1435.08 139.69,-1425.08 136.19,-1435.08 143.19,-1435.08"/>
</g>
<!-- titulo_a -->
<g id="node3" class="node">
<title>titulo_a</title>
<polygon fill="#ffd700" stroke="black" points="229.81,-1290.16 49.56,-1290.16 49.56,-1241.66 229.81,-1241.66 229.81,-1290.16"/>
<text xml:space="preserve" text-anchor="middle" x="139.69" y="-1275.71" font-family="Arial" font-size="11.00">CONSULTA A:</text>
<text xml:space="preserve" text-anchor="middle" x="139.69" y="-1262.21" font-family="Arial" font-size="11.00">Lluvias mensuales de cada estado</text>
<text xml:space="preserve" text-anchor="middle" x="139.69" y="-1248.71" font-family="Arial" font-size="11.00">en el 3er año</text>
</g>
<!-- cargar&#45;&gt;titulo_a -->
<g id="edge2" class="edge">
<title>cargar&#45;&gt;titulo_a</title>
<path fill="none" stroke="black" d="M139.69,-1325.9C139.69,-1317.81 139.69,-1309.55 139.69,-1301.87"/>
<polygon fill="black" stroke="black" points="143.19,-1301.9 139.69,-1291.9 136.19,-1301.9 143.19,-1301.9"/>
</g>
<!-- ciclo_a -->
<g id="node4" class="node">
<title>ciclo_a</title>
<polygon fill="none" stroke="black" points="206.56,-1205.66 72.81,-1205.66 72.81,-1157.16 206.56,-1157.16 206.56,-1205.66"/>
<text xml:space="preserve" text-anchor="middle" x="139.69" y="-1191.21" font-family="Arial" font-size="11.00">Para E = 1 hasta 32:</text>
<text xml:space="preserve" text-anchor="middle" x="139.69" y="-1177.71" font-family="Arial" font-size="11.00"> &#160;Para M = 1 hasta 12:</text>
<text xml:space="preserve" text-anchor="middle" x="139.69" y="-1164.21" font-family="Arial" font-size="11.00"> &#160;&#160;&#160;Imprimir MET[E][M][3]</text>
</g>
<!-- titulo_a&#45;&gt;ciclo_a -->
<g id="edge3" class="edge">
<title>titulo_a&#45;&gt;ciclo_a</title>
<path fill="none" stroke="black" d="M139.69,-1241.49C139.69,-1233.91 139.69,-1225.34 139.69,-1217.12"/>
<polygon fill="black" stroke="black" points="143.19,-1217.4 139.69,-1207.4 136.19,-1217.4 143.19,-1217.4"/>
</g>
<!-- out_a -->
<g id="node5" class="node">
<title>out_a</title>
<polygon fill="#ffb6c1" stroke="black" points="149.16,-1052.64 155.44,-1052.83 161.65,-1053.11 167.77,-1053.48 173.77,-1053.94 179.64,-1054.5 185.34,-1055.14 190.86,-1055.87 196.17,-1056.69 201.26,-1057.59 206.1,-1058.57 210.69,-1059.62 214.99,-1060.75 219.01,-1061.96 222.73,-1063.23 226.14,-1064.56 229.23,-1065.96 231.99,-1067.41 234.42,-1068.92 236.51,-1070.47 238.27,-1072.08 239.69,-1073.72 240.78,-1075.39 241.54,-1077.1 241.98,-1078.84 242.1,-1080.6 241.9,-1082.37 241.41,-1084.16 240.62,-1085.95 239.55,-1087.75 238.21,-1089.54 236.62,-1091.33 234.78,-1093.1 232.71,-1094.86 230.43,-1096.6 227.94,-1098.31 225.26,-1099.98 222.4,-1101.62 219.39,-1103.22 216.23,-1104.78 212.93,-1106.29 209.51,-1107.74 205.98,-1109.14 202.35,-1110.47 198.63,-1111.74 194.83,-1112.95 190.97,-1114.08 187.04,-1115.13 183.07,-1116.11 179.05,-1117.01 174.99,-1117.82 170.9,-1118.56 166.79,-1119.2 162.65,-1119.75 158.5,-1120.22 154.33,-1120.59 150.15,-1120.87 145.97,-1121.06 141.78,-1121.16 137.59,-1121.16 133.4,-1121.06 129.22,-1120.87 125.04,-1120.59 120.87,-1120.22 116.72,-1119.75 112.58,-1119.2 108.47,-1118.56 104.38,-1117.82 100.32,-1117.01 96.3,-1116.11 92.33,-1115.13 88.4,-1114.08 84.54,-1112.95 80.74,-1111.74 77.03,-1110.47 73.4,-1109.14 69.86,-1107.74 66.44,-1106.29 63.15,-1104.78 59.98,-1103.22 56.97,-1101.62 54.11,-1099.98 51.44,-1098.31 48.95,-1096.6 46.66,-1094.86 44.59,-1093.1 42.75,-1091.33 41.16,-1089.54 39.82,-1087.75 38.75,-1085.95 37.96,-1084.16 37.47,-1082.37 37.27,-1080.6 37.39,-1078.84 37.83,-1077.1 38.59,-1075.39 39.68,-1073.72 41.1,-1072.08 42.86,-1070.47 44.96,-1068.92 47.39,-1067.41 50.15,-1065.96 53.23,-1064.56 56.64,-1063.23 60.36,-1061.96 64.38,-1060.75 68.69,-1059.62 73.27,-1058.57 78.11,-1057.59 83.2,-1056.69 88.52,-1055.87 94.03,-1055.14 99.74,-1054.5 105.6,-1053.94 111.61,-1053.48 117.73,-1053.11 123.93,-1052.83 130.21,-1052.64 136.52,-1052.54 142.85,-1052.54 149.16,-1052.64"/>
<text xml:space="preserve" text-anchor="middle" x="139.69" y="-1096.65" font-family="Arial" font-size="11.00">Imprimir:</text>
<text xml:space="preserve" text-anchor="middle" x="139.69" y="-1083.15" font-family="Arial" font-size="11.00">Tabla de lluvias</text>
<text xml:space="preserve" text-anchor="middle" x="139.69" y="-1069.65" font-family="Arial" font-size="11.00">por estado y mes (año 3)</text>
</g>
<!-- ciclo_a&#45;&gt;out_a -->
<g id="edge4" class="edge">
<title>ciclo_a&#45;&gt;out_a</title>
<path fill="none" stroke="black" d="M139.69,-1157.05C139.69,-1149.61 139.69,-1141.12 139.69,-1132.69"/>
<polygon fill="black" stroke="black" points="143.19,-1132.85 139.69,-1122.85 136.19,-1132.85 143.19,-1132.85"/>
</g>
<!-- titulo_b -->
<g id="node6" class="node">
<title>titulo_b</title>
<polygon fill="#ffd700" stroke="black" points="207.31,-1016.54 72.06,-1016.54 72.06,-968.04 207.31,-968.04 207.31,-1016.54"/>
<text xml:space="preserve" text-anchor="middle" x="139.69" y="-1002.09" font-family="Arial" font-size="11.00">CONSULTA B:</text>
<text xml:space="preserve" text-anchor="middle" x="139.69" y="-988.59" font-family="Arial" font-size="11.00">Total de lluvias en el país</text>
<text xml:space="preserve" text-anchor="middle" x="139.69" y="-975.09" font-family="Arial" font-size="11.00">en el 4to año</text>
</g>
<!-- out_a&#45;&gt;titulo_b -->
<g id="edge5" class="edge">
<title>out_a&#45;&gt;titulo_b</title>
<path fill="none" stroke="black" d="M139.69,-1052.17C139.69,-1044.42 139.69,-1036.15 139.69,-1028.33"/>
<polygon fill="black" stroke="black" points="143.19,-1028.46 139.69,-1018.46 136.19,-1028.46 143.19,-1028.46"/>
</g>
<!-- init_b -->
<g id="node7" class="node">
<title>init_b</title>
<polygon fill="none" stroke="black" points="175.81,-932.04 103.56,-932.04 103.56,-896.04 175.81,-896.04 175.81,-932.04"/>
<text xml:space="preserve" text-anchor="middle" x="139.69" y="-910.34" font-family="Arial" font-size="11.00">LLUVIA = 0</text>
</g>
<!-- titulo_b&#45;&gt;init_b -->
<g id="edge6" class="edge">
<title>titulo_b&#45;&gt;init_b</title>
<path fill="none" stroke="black" d="M139.69,-967.59C139.69,-960.04 139.69,-951.6 139.69,-943.74"/>
<polygon fill="black" stroke="black" points="143.19,-943.95 139.69,-933.95 136.19,-943.95 143.19,-943.95"/>
</g>
<!-- ciclo_b -->
<g id="node8" class="node">
<title>ciclo_b</title>
<polygon fill="none" stroke="black" points="235.81,-860.04 43.56,-860.04 43.56,-811.54 235.81,-811.54 235.81,-860.04"/>
<text xml:space="preserve" text-anchor="middle" x="139.69" y="-845.59" font-family="Arial" font-size="11.00">Para E = 1 hasta 32:</text>
<text xml:space="preserve" text-anchor="middle" x="139.69" y="-832.09" font-family="Arial" font-size="11.00"> &#160;Para M = 1 hasta 12:</text>
<text xml:space="preserve" text-anchor="middle" x="139.69" y="-818.59" font-family="Arial" font-size="11.00"> &#160;&#160;&#160;LLUVIA = LLUVIA + MET[E][M][4]</text>
</g>
<!-- init_b&#45;&gt;ciclo_b -->
<g id="edge7" class="edge">
<title>init_b&#45;&gt;ciclo_b</title>
<path fill="none" stroke="black" d="M139.69,-895.74C139.69,-888.63 139.69,-880.13 139.69,-871.83"/>
<polygon fill="black" stroke="black" points="143.19,-871.9 139.69,-861.9 136.19,-871.9 143.19,-871.9"/>
</g>
<!-- out_b -->
<g id="node9" class="node">
<title>out_b</title>
<polygon fill="#ffb6c1" stroke="black" points="149.11,-726.1 155.35,-726.23 161.53,-726.44 167.61,-726.7 173.58,-727.04 179.42,-727.44 185.09,-727.91 190.57,-728.43 195.86,-729.02 200.92,-729.67 205.74,-730.38 210.29,-731.14 214.58,-731.95 218.58,-732.82 222.27,-733.74 225.66,-734.7 228.73,-735.71 231.48,-736.76 233.89,-737.85 235.98,-738.97 237.73,-740.12 239.14,-741.31 240.23,-742.52 240.98,-743.75 241.42,-745 241.53,-746.27 241.34,-747.55 240.85,-748.84 240.06,-750.14 239,-751.43 237.67,-752.73 236.09,-754.02 234.26,-755.3 232.2,-756.57 229.93,-757.82 227.45,-759.05 224.79,-760.26 221.95,-761.45 218.95,-762.6 215.8,-763.73 212.52,-764.81 209.12,-765.86 205.61,-766.87 202,-767.83 198.3,-768.75 194.53,-769.62 190.69,-770.43 186.78,-771.2 182.83,-771.9 178.83,-772.55 174.8,-773.14 170.73,-773.67 166.64,-774.13 162.53,-774.53 158.39,-774.87 154.25,-775.14 150.1,-775.34 145.93,-775.48 141.77,-775.54 137.6,-775.54 133.44,-775.48 129.28,-775.34 125.12,-775.14 120.98,-774.87 116.85,-774.53 112.73,-774.13 108.64,-773.67 104.57,-773.14 100.54,-772.55 96.54,-771.9 92.59,-771.2 88.69,-770.43 84.84,-769.62 81.07,-768.75 77.37,-767.83 73.76,-766.87 70.25,-765.86 66.85,-764.81 63.57,-763.73 60.42,-762.6 57.42,-761.45 54.59,-760.26 51.92,-759.05 49.45,-757.82 47.17,-756.57 45.11,-755.3 43.29,-754.02 41.7,-752.73 40.37,-751.43 39.31,-750.14 38.52,-748.84 38.03,-747.55 37.84,-746.27 37.96,-745 38.39,-743.75 39.15,-742.52 40.23,-741.31 41.65,-740.12 43.4,-738.97 45.48,-737.85 47.89,-736.76 50.64,-735.71 53.71,-734.7 57.1,-733.74 60.8,-732.82 64.79,-731.95 69.08,-731.14 73.64,-730.38 78.45,-729.67 83.51,-729.02 88.8,-728.43 94.29,-727.91 99.96,-727.44 105.79,-727.04 111.76,-726.7 117.85,-726.44 124.02,-726.23 130.26,-726.1 136.54,-726.03 142.83,-726.03 149.11,-726.1"/>
<text xml:space="preserve" text-anchor="middle" x="139.69" y="-753.84" font-family="Arial" font-size="11.00">Imprimir:</text>
<text xml:space="preserve" text-anchor="middle" x="139.69" y="-740.34" font-family="Arial" font-size="11.00">&quot;Total 4to año: &quot;, LLUVIA</text>
</g>
<!-- ciclo_b&#45;&gt;out_b -->
<g id="edge8" class="edge">
<title>ciclo_b&#45;&gt;out_b</title>
<path fill="none" stroke="black" d="M139.69,-811.23C139.69,-803.82 139.69,-795.47 139.69,-787.42"/>
<polygon fill="black" stroke="black" points="143.19,-787.5 139.69,-777.5 136.19,-787.5 143.19,-787.5"/>
</g>
<!-- titulo_c -->
<g id="node10" class="node">
<title>titulo_c</title>
<polygon fill="#ffd700" stroke="black" points="216.31,-690.03 63.06,-690.03 63.06,-641.53 216.31,-641.53 216.31,-690.03"/>
<text xml:space="preserve" text-anchor="middle" x="139.69" y="-675.58" font-family="Arial" font-size="11.00">CONSULTA C:</text>
<text xml:space="preserve" text-anchor="middle" x="139.69" y="-662.08" font-family="Arial" font-size="11.00">Total de lluvias del estado 17</text>
<text xml:space="preserve" text-anchor="middle" x="139.69" y="-648.58" font-family="Arial" font-size="11.00">en el 5to año</text>
</g>
<!-- out_b&#45;&gt;titulo_c -->
<g id="edge9" class="edge">
<title>out_b&#45;&gt;titulo_c</title>
<path fill="none" stroke="black" d="M139.69,-725.78C139.69,-718.31 139.69,-709.93 139.69,-701.87"/>
<polygon fill="black" stroke="black" points="143.19,-701.96 139.69,-691.96 136.19,-701.96 143.19,-701.96"/>
</g>
<!-- init_c -->
<g id="node11" class="node">
<title>init_c</title>
<polygon fill="none" stroke="black" points="175.81,-605.53 103.56,-605.53 103.56,-569.53 175.81,-569.53 175.81,-605.53"/>
<text xml:space="preserve" text-anchor="middle" x="139.69" y="-583.83" font-family="Arial" font-size="11.00">LLUVIA = 0</text>
</g>
<!-- titulo_c&#45;&gt;init_c -->
<g id="edge10" class="edge">
<title>titulo_c&#45;&gt;init_c</title>
<path fill="none" stroke="black" d="M139.69,-641.07C139.69,-633.52 139.69,-625.09 139.69,-617.23"/>
<polygon fill="black" stroke="black" points="143.19,-617.44 139.69,-607.44 136.19,-617.44 143.19,-617.44"/>
</g>
<!-- ciclo_c -->
<g id="node12" class="node">
<title>ciclo_c</title>
<polygon fill="none" stroke="black" points="235.06,-533.53 44.31,-533.53 44.31,-497.53 235.06,-497.53 235.06,-533.53"/>
<text xml:space="preserve" text-anchor="middle" x="139.69" y="-518.58" font-family="Arial" font-size="11.00">Para M = 1 hasta 12:</text>
<text xml:space="preserve" text-anchor="middle" x="139.69" y="-505.08" font-family="Arial" font-size="11.00"> &#160;LLUVIA = LLUVIA + MET[17][M][5]</text>
</g>
<!-- init_c&#45;&gt;ciclo_c -->
<g id="edge11" class="edge">
<title>init_c&#45;&gt;ciclo_c</title>
<path fill="none" stroke="black" d="M139.69,-569.23C139.69,-561.94 139.69,-553.26 139.69,-545.06"/>
<polygon fill="black" stroke="black" points="143.19,-545.15 139.69,-535.15 136.19,-545.15 143.19,-545.15"/>
</g>
<!-- out_c -->
<g id="node13" class="node">
<title>out_c</title>
<polygon fill="#ffb6c1" stroke="black" points="152.61,-412.08 161.17,-412.22 169.64,-412.42 177.99,-412.69 186.18,-413.03 194.18,-413.43 201.95,-413.89 209.48,-414.42 216.73,-415.01 223.67,-415.66 230.28,-416.36 236.53,-417.12 242.4,-417.94 247.89,-418.81 252.96,-419.72 257.61,-420.69 261.82,-421.7 265.58,-422.74 268.89,-423.83 271.75,-424.95 274.15,-426.11 276.09,-427.29 277.58,-428.5 278.62,-429.74 279.21,-430.99 279.37,-432.26 279.11,-433.54 278.43,-434.83 277.36,-436.12 275.9,-437.42 274.08,-438.71 271.9,-440 269.39,-441.28 266.57,-442.55 263.45,-443.81 260.06,-445.04 256.4,-446.25 252.51,-447.43 248.4,-448.59 244.09,-449.71 239.59,-450.8 234.92,-451.85 230.1,-452.86 225.15,-453.82 220.08,-454.74 214.9,-455.6 209.63,-456.42 204.28,-457.18 198.86,-457.89 193.38,-458.54 187.84,-459.12 182.27,-459.65 176.65,-460.12 171.01,-460.52 165.35,-460.85 159.66,-461.12 153.96,-461.33 148.26,-461.46 142.54,-461.53 136.83,-461.53 131.12,-461.46 125.41,-461.33 119.71,-461.12 114.03,-460.85 108.36,-460.52 102.72,-460.12 97.11,-459.65 91.53,-459.12 86,-458.54 80.51,-457.89 75.09,-457.18 69.74,-456.42 64.47,-455.6 59.29,-454.74 54.22,-453.82 49.27,-452.86 44.45,-451.85 39.79,-450.8 35.29,-449.71 30.97,-448.59 26.86,-447.43 22.97,-446.25 19.31,-445.04 15.92,-443.81 12.8,-442.55 9.98,-441.28 7.47,-440 5.3,-438.71 3.47,-437.42 2.01,-436.12 0.94,-434.83 0.26,-433.54 0,-432.26 0.16,-430.99 0.75,-429.74 1.79,-428.5 3.28,-427.29 5.22,-426.11 7.62,-424.95 10.48,-423.83 13.79,-422.74 17.56,-421.7 21.77,-420.69 26.41,-419.72 31.48,-418.81 36.97,-417.94 42.84,-417.12 49.1,-416.36 55.7,-415.66 62.64,-415.01 69.89,-414.42 77.42,-413.89 85.2,-413.43 93.2,-413.03 101.39,-412.69 109.73,-412.42 118.2,-412.22 126.76,-412.08 135.37,-412.01 144,-412.01 152.61,-412.08"/>
<text xml:space="preserve" text-anchor="middle" x="139.69" y="-439.82" font-family="Arial" font-size="11.00">Imprimir:</text>
<text xml:space="preserve" text-anchor="middle" x="139.69" y="-426.32" font-family="Arial" font-size="11.00">&quot;Total Estado 17 (año 5): &quot;, LLUVIA</text>
</g>
<!-- ciclo_c&#45;&gt;out_c -->
<g id="edge12" class="edge">
<title>ciclo_c&#45;&gt;out_c</title>
<path fill="none" stroke="black" d="M139.69,-497.11C139.69,-490.02 139.69,-481.54 139.69,-473.25"/>
<polygon fill="black" stroke="black" points="143.19,-473.32 139.69,-463.32 136.19,-473.32 143.19,-473.32"/>
</g>
<!-- titulo_d -->
<g id="node14" class="node">
<title>titulo_d</title>
<polygon fill="#ffd700" stroke="black" points="194.94,-376.01 84.44,-376.01 84.44,-327.51 194.94,-327.51 194.94,-376.01"/>
<text xml:space="preserve" text-anchor="middle" x="139.69" y="-361.56" font-family="Arial" font-size="11.00">CONSULTA D:</text>
<text xml:space="preserve" text-anchor="middle" x="139.69" y="-348.06" font-family="Arial" font-size="11.00">Gran total de lluvias</text>
<text xml:space="preserve" text-anchor="middle" x="139.69" y="-334.56" font-family="Arial" font-size="11.00">en los 5 años</text>
</g>
<!-- out_c&#45;&gt;titulo_d -->
<g id="edge13" class="edge">
<title>out_c&#45;&gt;titulo_d</title>
<path fill="none" stroke="black" d="M139.69,-411.76C139.69,-404.3 139.69,-395.91 139.69,-387.85"/>
<polygon fill="black" stroke="black" points="143.19,-387.95 139.69,-377.95 136.19,-387.95 143.19,-387.95"/>
</g>
<!-- init_d -->
<g id="node15" class="node">
<title>init_d</title>
<polygon fill="none" stroke="black" points="175.81,-291.51 103.56,-291.51 103.56,-255.51 175.81,-255.51 175.81,-291.51"/>
<text xml:space="preserve" text-anchor="middle" x="139.69" y="-269.81" font-family="Arial" font-size="11.00">LLUVIA = 0</text>
</g>
<!-- titulo_d&#45;&gt;init_d -->
<g id="edge14" class="edge">
<title>titulo_d&#45;&gt;init_d</title>
<path fill="none" stroke="black" d="M139.69,-327.06C139.69,-319.51 139.69,-311.08 139.69,-303.21"/>
<polygon fill="black" stroke="black" points="143.19,-303.42 139.69,-293.42 136.19,-303.42 143.19,-303.42"/>
</g>
<!-- ciclo_d -->
<g id="node16" class="node">
<title>ciclo_d</title>
<polygon fill="none" stroke="black" points="239.56,-219.51 39.81,-219.51 39.81,-157.51 239.56,-157.51 239.56,-219.51"/>
<text xml:space="preserve" text-anchor="middle" x="139.69" y="-205.06" font-family="Arial" font-size="11.00">Para E = 1 hasta 32:</text>
<text xml:space="preserve" text-anchor="middle" x="139.69" y="-191.56" font-family="Arial" font-size="11.00"> &#160;Para M = 1 hasta 12:</text>
<text xml:space="preserve" text-anchor="middle" x="139.69" y="-178.06" font-family="Arial" font-size="11.00"> &#160;&#160;&#160;Para A = 1 hasta 5:</text>
<text xml:space="preserve" text-anchor="middle" x="139.69" y="-164.56" font-family="Arial" font-size="11.00"> &#160;&#160;&#160;&#160;&#160;LLUVIA = LLUVIA + MET[E][M][A]</text>
</g>
<!-- init_d&#45;&gt;ciclo_d -->
<g id="edge15" class="edge">
<title>init_d&#45;&gt;ciclo_d</title>
<path fill="none" stroke="black" d="M139.69,-255.32C139.69,-248.27 139.69,-239.77 139.69,-231.26"/>
<polygon fill="black" stroke="black" points="143.19,-231.29 139.69,-221.29 136.19,-231.29 143.19,-231.29"/>
</g>
<!-- out_d -->
<g id="node17" class="node">
<title>out_d</title>
<polygon fill="#ffb6c1" stroke="black" points="150.73,-72.07 158.04,-72.2 165.28,-72.41 172.41,-72.68 179.41,-73.01 186.24,-73.41 192.89,-73.88 199.32,-74.4 205.51,-74.99 211.44,-75.64 217.09,-76.35 222.43,-77.11 227.45,-77.93 232.14,-78.79 236.47,-79.71 240.44,-80.67 244.04,-81.68 247.26,-82.73 250.09,-83.82 252.53,-84.94 254.58,-86.1 256.24,-87.28 257.51,-88.49 258.4,-89.72 258.9,-90.98 259.04,-92.24 258.81,-93.52 258.24,-94.81 257.32,-96.11 256.07,-97.41 254.52,-98.7 252.66,-99.99 250.51,-101.27 248.1,-102.54 245.44,-103.79 242.54,-105.02 239.42,-106.23 236.09,-107.42 232.58,-108.57 228.89,-109.7 225.05,-110.78 221.06,-111.83 216.94,-112.84 212.71,-113.8 208.38,-114.72 203.96,-115.59 199.45,-116.41 194.88,-117.17 190.25,-117.87 185.56,-118.52 180.83,-119.11 176.07,-119.64 171.27,-120.1 166.45,-120.5 161.61,-120.84 156.75,-121.11 151.89,-121.31 147.01,-121.45 142.13,-121.51 137.24,-121.51 132.36,-121.45 127.49,-121.31 122.62,-121.11 117.76,-120.84 112.92,-120.5 108.1,-120.1 103.3,-119.64 98.54,-119.11 93.81,-118.52 89.13,-117.87 84.49,-117.17 79.92,-116.41 75.42,-115.59 70.99,-114.72 66.66,-113.8 62.43,-112.84 58.31,-111.83 54.33,-110.78 50.48,-109.7 46.8,-108.57 43.28,-107.42 39.96,-106.23 36.83,-105.02 33.93,-103.79 31.27,-102.54 28.86,-101.27 26.71,-99.99 24.86,-98.7 23.3,-97.41 22.05,-96.11 21.13,-94.81 20.56,-93.52 20.33,-92.24 20.47,-90.98 20.98,-89.72 21.86,-88.49 23.13,-87.28 24.79,-86.1 26.84,-84.94 29.28,-83.82 32.12,-82.73 35.33,-81.68 38.93,-80.67 42.9,-79.71 47.23,-78.79 51.92,-77.93 56.94,-77.11 62.28,-76.35 67.93,-75.64 73.86,-74.99 80.05,-74.4 86.48,-73.88 93.13,-73.41 99.96,-73.01 106.96,-72.68 114.09,-72.41 121.33,-72.2 128.64,-72.07 136,-72 143.37,-72 150.73,-72.07"/>
<text xml:space="preserve" text-anchor="middle" x="139.69" y="-99.81" font-family="Arial" font-size="11.00">Imprimir:</text>
<text xml:space="preserve" text-anchor="middle" x="139.69" y="-86.31" font-family="Arial" font-size="11.00">&quot;Gran Total 5 años: &quot;, LLUVIA</text>
</g>
<!-- ciclo_d&#45;&gt;out_d -->
<g id="edge16" class="edge">
<title>ciclo_d&#45;&gt;out_d</title>
<path fill="none" stroke="black" d="M139.69,-157.13C139.69,-149.49 139.69,-141.23 139.69,-133.37"/>
<polygon fill="black" stroke="black" points="143.19,-133.39 139.69,-123.39 136.19,-133.39 143.19,-133.39"/>
</g>
<!-- fin -->
<g id="node18" class="node">
<title>fin</title>
<ellipse fill="#ff6b6b" stroke="black" cx="139.69" cy="-18" rx="27" ry="18"/>
<text xml:space="preserve" text-anchor="middle" x="139.69" y="-14.3" font-family="Arial" font-size="11.00">FIN</text>
</g>
<!-- out_d&#45;&gt;fin -->
<g id="edge17" class="edge">
<title>out_d&#45;&gt;fin</title>
<path fill="none" stroke="black" d="M139.69,-71.89C139.69,-64.18 139.69,-55.54 139.69,-47.53"/>
<polygon fill="black" stroke="black" points="143.19,-47.54 139.69,-37.54 136.19,-47.54 143.19,-47.54"/>
</g>
</g>
</svg>
