<?xml version="1.0" encoding="UTF-8" standalone="no"?>
<!DOCTYPE svg PUBLIC "-//W3C//DTD SVG 1.1//EN"
 "http://www.w3.org/Graphics/SVG/1.1/DTD/svg11.dtd">
<!-- Generated by graphviz version 14.1.0 (20251206.1807)
 -->
<!-- Title: ps_3_22 Pages: 1 -->
<svg width="364pt" height="692pt"
 viewBox="0.00 0.00 364.00 692.00" xmlns="http://www.w3.org/2000/svg" xmlns:xlink="http://www.w3.org/1999/xlink">
<g id="graph0" class="graph" transform="scale(1 1) rotate(0) translate(4 687.51)">
<title>ps_3_22</title>
<polygon fill="white" stroke="none" points="-4,4 -4,-687.51 359.78,-687.51 359.78,4 -4,4"/>
<!-- inicio -->
<g id="node1" class="node">
<title>inicio</title>
<ellipse fill="#90ee90" stroke="black" cx="300.78" cy="-665.51" rx="31.01" ry="18"/>
<text xml:space="preserve" text-anchor="middle" x="300.78" y="-661.81" font-family="Arial" font-size="11.00">INICIO</text>
</g>
<!-- init -->
<g id="node2" class="node">
<title>init</title>
<polygon fill="none" stroke="black" points="327.78,-610.51 273.78,-610.51 273.78,-574.51 327.78,-574.51 327.78,-610.51"/>
<text xml:space="preserve" text-anchor="middle" x="300.78" y="-588.81" font-family="Arial" font-size="11.00">I = 1</text>
</g>
<!-- inicio&#45;&gt;init -->
<g id="edge1" class="edge">
<title>inicio&#45;&gt;init</title>
<path fill="none" stroke="black" d="M300.78,-647.33C300.78,-639.74 300.78,-630.62 300.78,-622.05"/>
<polygon fill="black" stroke="black" points="304.28,-622.06 300.78,-612.06 297.28,-622.06 304.28,-622.06"/>
</g>
<!-- ciclo -->
<g id="node3" class="node">
<title>ciclo</title>
<polygon fill="#ffd700" stroke="black" points="300.78,-537.51 251.63,-519.51 300.78,-501.51 349.93,-519.51 300.78,-537.51"/>
<text xml:space="preserve" text-anchor="middle" x="300.78" y="-515.81" font-family="Arial" font-size="11.00">¿I ≤ 35?</text>
</g>
<!-- init&#45;&gt;ciclo -->
<g id="edge2" class="edge">
<title>init&#45;&gt;ciclo</title>
<path fill="none" stroke="black" d="M300.78,-574.33C300.78,-566.85 300.78,-557.88 300.78,-549.43"/>
<polygon fill="black" stroke="black" points="304.28,-549.55 300.78,-539.55 297.28,-549.55 304.28,-549.55"/>
</g>
<!-- entrada1 -->
<g id="node4" class="node">
<title>entrada1</title>
<polygon fill="#87ceeb" stroke="black" points="255.56,-449.01 52.29,-449.01 0,-379.01 203.27,-379.01 255.56,-449.01"/>
<text xml:space="preserve" text-anchor="middle" x="127.78" y="-417.06" font-family="Arial" font-size="11.00">Leer MAT</text>
<text xml:space="preserve" text-anchor="middle" x="127.78" y="-403.56" font-family="Arial" font-size="11.00">(Matrícula del alumno)</text>
</g>
<!-- ciclo&#45;&gt;entrada1 -->
<g id="edge3" class="edge">
<title>ciclo&#45;&gt;entrada1</title>
<path fill="none" stroke="black" d="M282.92,-507.83C262.18,-495.42 226.77,-474.24 195.01,-455.23"/>
<polygon fill="black" stroke="black" points="196.96,-452.33 186.59,-450.2 193.37,-458.33 196.96,-452.33"/>
<text xml:space="preserve" text-anchor="middle" x="245.88" y="-470.21" font-family="Times New Roman,serif" font-size="14.00">SÍ</text>
</g>
<!-- fin -->
<g id="node9" class="node">
<title>fin</title>
<ellipse fill="#ff6b6b" stroke="black" cx="300.78" cy="-414.01" rx="27" ry="18"/>
<text xml:space="preserve" text-anchor="middle" x="300.78" y="-410.31" font-family="Arial" font-size="11.00">FIN</text>
</g>
<!-- ciclo&#45;&gt;fin -->
<g id="edge9" class="edge">
<title>ciclo&#45;&gt;fin</title>
<path fill="none" stroke="black" d="M300.78,-501.42C300.78,-485.79 300.78,-462.34 300.78,-443.81"/>
<polygon fill="black" stroke="black" points="304.28,-443.99 300.78,-433.99 297.28,-443.99 304.28,-443.99"/>
<text xml:space="preserve" text-anchor="middle" x="310.53" y="-470.21" font-family="Times New Roman,serif" font-size="14.00">NO</text>
</g>
<!-- entrada2 -->
<g id="node5" class="node">
<title>entrada2</title>
<polygon fill="#87ceeb" stroke="black" points="307.12,-342.01 123.64,-342.01 76.44,-245.01 259.92,-245.01 307.12,-342.01"/>
<text xml:space="preserve" text-anchor="middle" x="191.78" y="-303.31" font-family="Arial" font-size="11.00">Leer CAL1, CAL2,</text>
<text xml:space="preserve" text-anchor="middle" x="191.78" y="-289.81" font-family="Arial" font-size="11.00">CAL3, CAL4, CAL5</text>
<text xml:space="preserve" text-anchor="middle" x="191.78" y="-276.31" font-family="Arial" font-size="11.00">(5 calificaciones)</text>
</g>
<!-- entrada1&#45;&gt;entrada2 -->
<g id="edge4" class="edge">
<title>entrada1&#45;&gt;entrada2</title>
<path fill="none" stroke="black" d="M146.29,-378.74C150.74,-370.5 155.62,-361.46 160.48,-352.47"/>
<polygon fill="black" stroke="black" points="163.54,-354.17 165.21,-343.71 157.38,-350.84 163.54,-354.17"/>
</g>
<!-- calc -->
<g id="node6" class="node">
<title>calc</title>
<polygon fill="none" stroke="black" points="270.03,-208.01 141.53,-208.01 141.53,-159.51 270.03,-159.51 270.03,-208.01"/>
<text xml:space="preserve" text-anchor="middle" x="205.78" y="-193.56" font-family="Arial" font-size="11.00">PROMEDIO =</text>
<text xml:space="preserve" text-anchor="middle" x="205.78" y="-180.06" font-family="Arial" font-size="11.00">(CAL1 + CAL2 + CAL3</text>
<text xml:space="preserve" text-anchor="middle" x="205.78" y="-166.56" font-family="Arial" font-size="11.00">+ CAL4 + CAL5) / 5</text>
</g>
<!-- entrada2&#45;&gt;calc -->
<g id="edge5" class="edge">
<title>entrada2&#45;&gt;calc</title>
<path fill="none" stroke="black" d="M198,-244.63C199.1,-236.17 200.23,-227.51 201.27,-219.5"/>
<polygon fill="black" stroke="black" points="204.71,-220.2 202.52,-209.83 197.76,-219.29 204.71,-220.2"/>
</g>
<!-- salida -->
<g id="node7" class="node">
<title>salida</title>
<polygon fill="#ffb6c1" stroke="black" points="243.96,-73.07 248.71,-73.2 253.41,-73.41 258.05,-73.68 262.59,-74.01 267.04,-74.41 271.35,-74.88 275.53,-75.4 279.56,-75.99 283.41,-76.64 287.08,-77.35 290.55,-78.11 293.82,-78.93 296.86,-79.79 299.68,-80.71 302.26,-81.67 304.59,-82.68 306.68,-83.73 308.52,-84.82 310.11,-85.94 311.44,-87.1 312.52,-88.28 313.35,-89.49 313.92,-90.72 314.25,-91.98 314.34,-93.24 314.19,-94.52 313.82,-95.81 313.22,-97.11 312.41,-98.41 311.4,-99.7 310.19,-100.99 308.8,-102.27 307.23,-103.54 305.5,-104.79 303.62,-106.02 301.59,-107.23 299.43,-108.42 297.14,-109.57 294.75,-110.7 292.25,-111.78 289.66,-112.83 286.98,-113.84 284.24,-114.8 281.42,-115.72 278.54,-116.59 275.62,-117.41 272.65,-118.17 269.64,-118.87 266.59,-119.52 263.52,-120.11 260.42,-120.64 257.31,-121.1 254.17,-121.5 251.03,-121.84 247.87,-122.11 244.71,-122.31 241.54,-122.45 238.37,-122.51 235.19,-122.51 232.02,-122.45 228.85,-122.31 225.69,-122.11 222.53,-121.84 219.39,-121.5 216.25,-121.1 213.14,-120.64 210.04,-120.11 206.97,-119.52 203.92,-118.87 200.91,-118.17 197.94,-117.41 195.01,-116.59 192.14,-115.72 189.32,-114.8 186.57,-113.84 183.9,-112.83 181.31,-111.78 178.81,-110.7 176.42,-109.57 174.13,-108.42 171.97,-107.23 169.94,-106.02 168.06,-104.79 166.33,-103.54 164.76,-102.27 163.37,-100.99 162.16,-99.7 161.15,-98.41 160.34,-97.11 159.74,-95.81 159.36,-94.52 159.22,-93.24 159.31,-91.98 159.64,-90.72 160.21,-89.49 161.04,-88.28 162.12,-87.1 163.45,-85.94 165.04,-84.82 166.88,-83.73 168.97,-82.68 171.3,-81.67 173.88,-80.71 176.7,-79.79 179.74,-78.93 183.01,-78.11 186.48,-77.35 190.15,-76.64 194,-75.99 198.03,-75.4 202.2,-74.88 206.52,-74.41 210.97,-74.01 215.51,-73.68 220.15,-73.41 224.85,-73.2 229.6,-73.07 234.38,-73 239.18,-73 243.96,-73.07"/>
<text xml:space="preserve" text-anchor="middle" x="236.78" y="-100.81" font-family="Arial" font-size="11.00">Imprimir:</text>
<text xml:space="preserve" text-anchor="middle" x="236.78" y="-87.31" font-family="Arial" font-size="11.00">MAT, PROMEDIO</text>
</g>
<!-- calc&#45;&gt;salida -->
<g id="edge6" class="edge">
<title>calc&#45;&gt;salida</title>
<path fill="none" stroke="black" d="M214.42,-159.36C217.39,-151.31 220.78,-142.11 224.01,-133.35"/>
<polygon fill="black" stroke="black" points="227.27,-134.63 227.45,-124.04 220.71,-132.21 227.27,-134.63"/>
</g>
<!-- incremento -->
<g id="node8" class="node">
<title>incremento</title>
<polygon fill="none" stroke="black" points="322.78,-36 268.78,-36 268.78,0 322.78,0 322.78,-36"/>
<text xml:space="preserve" text-anchor="middle" x="295.78" y="-14.3" font-family="Arial" font-size="11.00">I = I + 1</text>
</g>
<!-- salida&#45;&gt;incremento -->
<g id="edge7" class="edge">
<title>salida&#45;&gt;incremento</title>
<path fill="none" stroke="black" d="M254.8,-73C261.44,-64.25 269,-54.29 275.8,-45.33"/>
<polygon fill="black" stroke="black" points="278.38,-47.73 281.63,-37.64 272.8,-43.49 278.38,-47.73"/>
</g>
<!-- incremento&#45;&gt;ciclo -->
<g id="edge8" class="edge">
<title>incremento&#45;&gt;ciclo</title>
<path fill="none" stroke="black" d="M319.84,-36.23C336.53,-50.37 355.78,-72.03 355.78,-96.76 355.78,-415.01 355.78,-415.01 355.78,-415.01 355.78,-446.14 336.14,-477.02 320.34,-496.84"/>
<polygon fill="black" stroke="black" points="317.69,-494.55 313.96,-504.47 323.06,-499.04 317.69,-494.55"/>
</g>
</g>
</svg>
