<?xml version="1.0" standalone="no"?>
<svg xmlns="http://www.w3.org/2000/svg" xmlns:xlink="http://www.w3.org/1999/xlink" width="632pt" height="1054pt" viewBox="0.00 0.00 631.68 1054.00">
<g id="graph0" class="graph" transform="translate(4,1050) scale(1)" data-name="Diagrama_4_21">

<polygon fill="white" stroke="none" points="-4,4 -4,-1050 627.68,-1050 627.68,4 -4,4"/>
<!-- inicio -->
<g id="node1" class="node" pointer-events="visible" data-name="inicio">

<ellipse fill="none" stroke="black" cx="137.81" cy="-1028" rx="40.59" ry="18"/>
<text text-anchor="middle" x="137.81" y="-1023.8" font-family="Arial" font-size="14.00">INICIO</text>
</g>
<!-- lectura_n -->
<g id="node3" class="node" pointer-events="visible" data-name="lectura_n">

<polygon fill="none" stroke="black" points="165.79,-973 121.27,-973 109.82,-937 154.34,-937 165.79,-973"/>
<text text-anchor="middle" x="137.81" y="-950.8" font-family="Arial" font-size="14.00">N</text>
</g>
<!-- inicio&#45;&gt;lectura_n -->
<g id="edge1" class="edge" data-name="inicio-&gt;lectura_n">

<path fill="none" stroke="black" d="M137.81,-1009.81C137.81,-1002.23 137.81,-993.1 137.81,-984.54"/>
<polygon fill="black" stroke="black" points="141.31,-984.54 137.81,-974.54 134.31,-984.54 141.31,-984.54"/>
</g>
<!-- fin -->
<g id="node2" class="node" pointer-events="visible" data-name="fin">

<ellipse fill="none" stroke="black" cx="126.81" cy="-264" rx="27" ry="18"/>
<text text-anchor="middle" x="126.81" y="-259.8" font-family="Arial" font-size="14.00">FIN</text>
</g>
<!-- cond_n -->
<g id="node19" class="node" pointer-events="visible" data-name="cond_n">

<polygon fill="none" stroke="black" points="137.81,-900 0.19,-882 137.81,-864 275.42,-882 137.81,-900"/>
<text text-anchor="middle" x="137.81" y="-877.8" font-family="Arial" font-size="14.00">(N &gt;= 1) y (N &lt;= 50)</text>
</g>
<!-- lectura_n&#45;&gt;cond_n -->
<g id="edge2" class="edge" data-name="lectura_n-&gt;cond_n">

<path fill="none" stroke="black" d="M137.81,-936.81C137.81,-929.23 137.81,-920.1 137.81,-911.54"/>
<polygon fill="black" stroke="black" points="141.31,-911.54 137.81,-901.54 134.31,-911.54 141.31,-911.54"/>
</g>
<!-- lectura_a -->
<g id="node4" class="node" pointer-events="visible" data-name="lectura_a">

<polygon fill="none" stroke="black" points="595.06,-455 511.94,-455 490.56,-419 573.67,-419 595.06,-455"/>
<text text-anchor="middle" x="542.81" y="-432.8" font-family="Arial" font-size="14.00">A[I, J]</text>
</g>
<!-- inc_j_read -->
<g id="node8" class="node" pointer-events="visible" data-name="inc_j_read">

<polygon fill="none" stroke="black" points="623.56,-382 542.05,-382 542.05,-346 623.56,-346 623.56,-382"/>
<text text-anchor="middle" x="582.81" y="-359.8" font-family="Arial" font-size="14.00">J LL- J + 1</text>
</g>
<!-- lectura_a&#45;&gt;inc_j_read -->
<g id="edge9" class="edge" data-name="lectura_a-&gt;inc_j_read">

<path fill="none" stroke="black" d="M552.49,-418.81C557.06,-410.7 562.62,-400.84 567.72,-391.78"/>
<polygon fill="black" stroke="black" points="570.61,-393.78 572.47,-383.35 564.51,-390.34 570.61,-393.78"/>
</g>
<!-- escritura_a -->
<g id="node5" class="node" pointer-events="visible" data-name="escritura_a">

<polygon fill="none" stroke="black" points="336.06,-109 252.94,-109 231.56,-73 314.67,-73 336.06,-109"/>
<text text-anchor="middle" x="283.81" y="-86.8" font-family="Arial" font-size="14.00">A[I, J]</text>
</g>
<!-- inc_j_write -->
<g id="node17" class="node" pointer-events="visible" data-name="inc_j_write">

<polygon fill="none" stroke="black" points="364.56,-36 283.05,-36 283.05,0 364.56,0 364.56,-36"/>
<text text-anchor="middle" x="323.81" y="-13.8" font-family="Arial" font-size="14.00">J LL- J + 1</text>
</g>
<!-- escritura_a&#45;&gt;inc_j_write -->
<g id="edge27" class="edge" data-name="escritura_a-&gt;inc_j_write">

<path fill="none" stroke="black" d="M293.49,-72.81C298.06,-64.7 303.62,-54.84 308.72,-45.78"/>
<polygon fill="black" stroke="black" points="311.61,-47.78 313.47,-37.35 305.51,-44.34 311.61,-47.78"/>
</g>
<!-- init_i_read -->
<g id="node6" class="node" pointer-events="visible" data-name="init_i_read">

<polygon fill="none" stroke="black" points="291.5,-811.2 236.12,-811.2 236.12,-775.2 291.5,-775.2 291.5,-811.2"/>
<text text-anchor="middle" x="263.81" y="-789" font-family="Arial" font-size="14.00">I LL- 1</text>
</g>
<!-- cond_i_read -->
<g id="node20" class="node" pointer-events="visible" data-name="cond_i_read">

<polygon fill="none" stroke="black" points="376.81,-738.2 324.2,-720.2 376.81,-702.2 429.42,-720.2 376.81,-738.2"/>
<text text-anchor="middle" x="376.81" y="-716" font-family="Arial" font-size="14.00">I &lt;= N</text>
</g>
<!-- init_i_read&#45;&gt;cond_i_read -->
<g id="edge5" class="edge" data-name="init_i_read-&gt;cond_i_read">

<path fill="none" stroke="black" d="M291.45,-774.83C309.04,-763.78 331.72,-749.53 349.29,-738.49"/>
<polygon fill="black" stroke="black" points="351.07,-741.5 357.68,-733.22 347.35,-735.58 351.07,-741.5"/>
</g>
<!-- init_j_read -->
<g id="node7" class="node" pointer-events="visible" data-name="init_j_read">

<polygon fill="none" stroke="black" points="498.11,-649.4 439.51,-649.4 439.51,-613.4 498.11,-613.4 498.11,-649.4"/>
<text text-anchor="middle" x="468.81" y="-627.2" font-family="Arial" font-size="14.00">J LL- 1</text>
</g>
<!-- cond_j_read -->
<g id="node21" class="node" pointer-events="visible" data-name="cond_j_read">

<polygon fill="none" stroke="black" points="513.81,-543.8 458.13,-525.8 513.81,-507.8 569.49,-525.8 513.81,-543.8"/>
<text text-anchor="middle" x="513.81" y="-521.6" font-family="Arial" font-size="14.00">J &lt;= N</text>
</g>
<!-- init_j_read&#45;&gt;cond_j_read -->
<g id="edge7" class="edge" data-name="init_j_read-&gt;cond_j_read">

<path fill="none" stroke="black" d="M476.24,-613.29C483.46,-596.67 494.51,-571.23 502.76,-552.23"/>
<polygon fill="black" stroke="black" points="505.87,-553.86 506.64,-543.3 499.45,-551.08 505.87,-553.86"/>
</g>
<!-- inc_j_read&#45;&gt;cond_j_read -->
<g id="edge10" class="edge" data-name="inc_j_read-&gt;cond_j_read">

<path fill="none" stroke="black" d="M593.48,-382.36C603.51,-401.08 615.38,-431.37 603.81,-455 591.9,-479.3 567,-497.57 546.4,-509.31"/>
<polygon fill="black" stroke="black" points="544.88,-506.15 537.74,-513.98 548.21,-512.31 544.88,-506.15"/>
</g>
<!-- inc_i_read -->
<g id="node9" class="node" pointer-events="visible" data-name="inc_i_read">

<polygon fill="none" stroke="black" points="472.34,-455 397.27,-455 397.27,-419 472.34,-419 472.34,-455"/>
<text text-anchor="middle" x="434.81" y="-432.8" font-family="Arial" font-size="14.00">I LL- I + 1</text>
</g>
<!-- inc_i_read&#45;&gt;cond_i_read -->
<g id="edge12" class="edge" data-name="inc_i_read-&gt;cond_i_read">

<path fill="none" stroke="black" d="M431.21,-455.45C421.43,-502.87 394.3,-634.38 382.46,-691.8"/>
<polygon fill="black" stroke="black" points="379.07,-690.88 380.48,-701.38 385.93,-692.3 379.07,-690.88"/>
</g>
<!-- init_i_swap -->
<g id="node10" class="node" pointer-events="visible" data-name="init_i_swap">

<polygon fill="none" stroke="black" points="348.5,-649.4 293.12,-649.4 293.12,-613.4 348.5,-613.4 348.5,-649.4"/>
<text text-anchor="middle" x="320.81" y="-627.2" font-family="Arial" font-size="14.00">I LL- 1</text>
</g>
<!-- cond_i_swap -->
<g id="node22" class="node" pointer-events="visible" data-name="cond_i_swap">

<polygon fill="none" stroke="black" points="294.81,-543.8 223.24,-525.8 294.81,-507.8 366.37,-525.8 294.81,-543.8"/>
<text text-anchor="middle" x="294.81" y="-521.6" font-family="Arial" font-size="14.00">I &lt;= N / 2</text>
</g>
<!-- init_i_swap&#45;&gt;cond_i_swap -->
<g id="edge14" class="edge" data-name="init_i_swap-&gt;cond_i_swap">

<path fill="none" stroke="black" d="M316.51,-613.29C312.5,-597.28 306.42,-573.09 301.72,-554.36"/>
<polygon fill="black" stroke="black" points="305.13,-553.56 299.3,-544.72 298.34,-555.27 305.13,-553.56"/>
</g>
<!-- init_j_swap -->
<g id="node11" class="node" pointer-events="visible" data-name="init_j_swap">

<polygon fill="none" stroke="black" points="379.11,-455 320.51,-455 320.51,-419 379.11,-419 379.11,-455"/>
<text text-anchor="middle" x="349.81" y="-432.8" font-family="Arial" font-size="14.00">J LL- 1</text>
</g>
<!-- cond_j_swap -->
<g id="node23" class="node" pointer-events="visible" data-name="cond_j_swap">

<polygon fill="none" stroke="black" points="397.81,-382 342.13,-364 397.81,-346 453.49,-364 397.81,-382"/>
<text text-anchor="middle" x="397.81" y="-359.8" font-family="Arial" font-size="14.00">J &lt;= N</text>
</g>
<!-- init_j_swap&#45;&gt;cond_j_swap -->
<g id="edge16" class="edge" data-name="init_j_swap-&gt;cond_j_swap">

<path fill="none" stroke="black" d="M361.43,-418.81C367.59,-409.7 375.24,-398.37 381.94,-388.47"/>
<polygon fill="black" stroke="black" points="384.68,-390.66 387.38,-380.42 378.88,-386.74 384.68,-390.66"/>
</g>
<!-- swap_logic -->
<g id="node12" class="node" pointer-events="visible" data-name="swap_logic">

<polygon fill="none" stroke="black" points="547.69,-293.4 385.93,-293.4 385.93,-234.6 547.69,-234.6 547.69,-293.4"/>
<text text-anchor="start" x="393.87" y="-276.6" font-family="Arial" font-size="14.00">AUX LL- A[I, J]</text>
<text text-anchor="start" x="393.87" y="-259.8" font-family="Arial" font-size="14.00">A[I, J] LL- A[N - I + 1, J]</text>
<text text-anchor="start" x="393.87" y="-243" font-family="Arial" font-size="14.00">A[N - I + 1, J] LL- AUX</text>
</g>
<!-- inc_j_swap -->
<g id="node13" class="node" pointer-events="visible" data-name="inc_j_swap">

<polygon fill="none" stroke="black" points="582.56,-197.8 501.05,-197.8 501.05,-161.8 582.56,-161.8 582.56,-197.8"/>
<text text-anchor="middle" x="541.81" y="-175.6" font-family="Arial" font-size="14.00">J LL- J + 1</text>
</g>
<!-- swap_logic&#45;&gt;inc_j_swap -->
<g id="edge18" class="edge" data-name="swap_logic-&gt;inc_j_swap">

<path fill="none" stroke="black" d="M493.04,-234.25C501.28,-225.22 510.31,-215.32 518.35,-206.51"/>
<polygon fill="black" stroke="black" points="520.8,-209.02 524.96,-199.27 515.63,-204.3 520.8,-209.02"/>
</g>
<!-- inc_j_swap&#45;&gt;cond_j_swap -->
<g id="edge19" class="edge" data-name="inc_j_swap-&gt;cond_j_swap">

<path fill="none" stroke="black" d="M550.65,-197.97C561.4,-221.46 575.86,-264.03 556.81,-293.2 532.75,-330.03 484.47,-347.55 447.39,-355.81"/>
<polygon fill="black" stroke="black" points="446.86,-352.35 437.76,-357.78 448.26,-359.2 446.86,-352.35"/>
</g>
<!-- inc_i_swap -->
<g id="node14" class="node" pointer-events="visible" data-name="inc_i_swap">

<polygon fill="none" stroke="black" points="367.34,-282 292.27,-282 292.27,-246 367.34,-246 367.34,-282"/>
<text text-anchor="middle" x="329.81" y="-259.8" font-family="Arial" font-size="14.00">I LL- I + 1</text>
</g>
<!-- inc_i_swap&#45;&gt;cond_i_swap -->
<g id="edge21" class="edge" data-name="inc_i_swap-&gt;cond_i_swap">

<path fill="none" stroke="black" d="M327.49,-282.18C321.57,-326.11 305.85,-442.83 298.59,-496.76"/>
<polygon fill="black" stroke="black" points="295.12,-496.28 297.25,-506.65 302.06,-497.21 295.12,-496.28"/>
</g>
<!-- init_i_write -->
<g id="node15" class="node" pointer-events="visible" data-name="init_i_write">

<polygon fill="none" stroke="black" points="256.5,-455 201.12,-455 201.12,-419 256.5,-419 256.5,-455"/>
<text text-anchor="middle" x="228.81" y="-432.8" font-family="Arial" font-size="14.00">I LL- 1</text>
</g>
<!-- cond_i_write -->
<g id="node24" class="node" pointer-events="visible" data-name="cond_i_write">

<polygon fill="none" stroke="black" points="208.81,-382 156.2,-364 208.81,-346 261.42,-364 208.81,-382"/>
<text text-anchor="middle" x="208.81" y="-359.8" font-family="Arial" font-size="14.00">I &lt;= N</text>
</g>
<!-- init_i_write&#45;&gt;cond_i_write -->
<g id="edge23" class="edge" data-name="init_i_write-&gt;cond_i_write">

<path fill="none" stroke="black" d="M223.97,-418.81C221.66,-410.62 218.84,-400.63 216.27,-391.49"/>
<polygon fill="black" stroke="black" points="219.69,-390.71 213.61,-382.03 212.95,-392.61 219.69,-390.71"/>
</g>
<!-- init_j_write -->
<g id="node16" class="node" pointer-events="visible" data-name="init_j_write">

<polygon fill="none" stroke="black" points="274.11,-282 215.51,-282 215.51,-246 274.11,-246 274.11,-282"/>
<text text-anchor="middle" x="244.81" y="-259.8" font-family="Arial" font-size="14.00">J LL- 1</text>
</g>
<!-- cond_j_write -->
<g id="node25" class="node" pointer-events="visible" data-name="cond_j_write">

<polygon fill="none" stroke="black" points="277.81,-197.8 222.13,-179.8 277.81,-161.8 333.49,-179.8 277.81,-197.8"/>
<text text-anchor="middle" x="277.81" y="-175.6" font-family="Arial" font-size="14.00">J &lt;= N</text>
</g>
<!-- init_j_write&#45;&gt;cond_j_write -->
<g id="edge25" class="edge" data-name="init_j_write-&gt;cond_j_write">

<path fill="none" stroke="black" d="M251.81,-245.57C256.34,-234.27 262.33,-219.35 267.42,-206.68"/>
<polygon fill="black" stroke="black" points="270.56,-208.26 271.03,-197.67 264.06,-205.65 270.56,-208.26"/>
</g>
<!-- inc_j_write&#45;&gt;cond_j_write -->
<g id="edge28" class="edge" data-name="inc_j_write-&gt;cond_j_write">

<path fill="none" stroke="black" d="M333.97,-36.4C343.39,-54.88 354.57,-84.74 344.81,-109 336.55,-129.52 319.06,-147.4 304.03,-159.92"/>
<polygon fill="black" stroke="black" points="301.94,-157.11 296.27,-166.06 306.28,-162.6 301.94,-157.11"/>
</g>
<!-- inc_i_write -->
<g id="node18" class="node" pointer-events="visible" data-name="inc_i_write">

<polygon fill="none" stroke="black" points="213.34,-109 138.27,-109 138.27,-73 213.34,-73 213.34,-109"/>
<text text-anchor="middle" x="175.81" y="-86.8" font-family="Arial" font-size="14.00">I LL- I + 1</text>
</g>
<!-- inc_i_write&#45;&gt;cond_i_write -->
<g id="edge30" class="edge" data-name="inc_i_write-&gt;cond_i_write">

<path fill="none" stroke="black" d="M177.92,-109.37C183.5,-155.19 198.65,-279.62 205.44,-335.36"/>
<polygon fill="black" stroke="black" points="201.93,-335.45 206.61,-344.95 208.88,-334.6 201.93,-335.45"/>
</g>
<!-- cond_n&#45;&gt;fin -->
<g id="edge4" class="edge" data-name="cond_n-&gt;fin">

<path fill="none" stroke="black" d="M132.83,-864.2C128.14,-846.84 121.81,-818.87 121.81,-794.2 121.81,-794.2 121.81,-794.2 121.81,-363 121.81,-339.69 123.24,-313.3 124.57,-293.79"/>
<polygon fill="black" stroke="black" points="128.05,-294.07 125.28,-283.84 121.07,-293.57 128.05,-294.07"/>
<text text-anchor="start" x="121.81" y="-582.8" font-family="Arial" font-size="14.00">No</text>
<text text-anchor="start" x="121.81" y="-566" font-family="Arial" font-size="14.00">"Error en datos"</text>
</g>
<!-- cond_n&#45;&gt;init_i_read -->
<g id="edge3" class="edge" data-name="cond_n-&gt;init_i_read">

<path fill="none" stroke="black" d="M158.9,-866.47C178.14,-853.21 206.95,-833.37 229.5,-817.83"/>
<polygon fill="black" stroke="black" points="231.25,-820.88 237.5,-812.33 227.28,-815.12 231.25,-820.88"/>
<text text-anchor="middle" x="218.03" y="-833.4" font-family="Arial" font-size="14.00">Si</text>
</g>
<!-- cond_i_read&#45;&gt;init_j_read -->
<g id="edge6" class="edge" data-name="cond_i_read-&gt;init_j_read">

<path fill="none" stroke="black" d="M390.38,-706.39C404.04,-693.5 425.46,-673.3 442.47,-657.25"/>
<polygon fill="black" stroke="black" points="444.43,-660.21 449.31,-650.8 439.63,-655.12 444.43,-660.21"/>
<text text-anchor="middle" x="437.03" y="-671.6" font-family="Arial" font-size="14.00">Si</text>
</g>
<!-- cond_i_read&#45;&gt;init_i_swap -->
<g id="edge13" class="edge" data-name="cond_i_read-&gt;init_i_swap">

<path fill="none" stroke="black" d="M367.56,-704.87C359.56,-692.46 347.77,-674.2 338.04,-659.11"/>
<polygon fill="black" stroke="black" points="341.18,-657.52 332.82,-651.02 335.3,-661.32 341.18,-657.52"/>
<text text-anchor="middle" x="362.76" y="-671.6" font-family="Arial" font-size="14.00">No</text>
</g>
<!-- cond_j_read&#45;&gt;lectura_a -->
<g id="edge8" class="edge" data-name="cond_j_read-&gt;lectura_a">

<path fill="none" stroke="black" d="M518.99,-509.28C522.98,-497.35 528.59,-480.55 533.37,-466.26"/>
<polygon fill="black" stroke="black" points="536.64,-467.5 536.49,-456.91 530,-465.28 536.64,-467.5"/>
<text text-anchor="middle" x="537.03" y="-477.2" font-family="Arial" font-size="14.00">Si</text>
</g>
<!-- cond_j_read&#45;&gt;inc_i_read -->
<g id="edge11" class="edge" data-name="cond_j_read-&gt;inc_i_read">

<path fill="none" stroke="black" d="M501.81,-511.62C490.23,-498.89 472.38,-479.29 458.02,-463.51"/>
<polygon fill="black" stroke="black" points="460.8,-461.36 451.48,-456.32 455.63,-466.07 460.8,-461.36"/>
<text text-anchor="middle" x="489.76" y="-477.2" font-family="Arial" font-size="14.00">No</text>
</g>
<!-- cond_i_swap&#45;&gt;init_j_swap -->
<g id="edge15" class="edge" data-name="cond_i_swap-&gt;init_j_swap">

<path fill="none" stroke="black" d="M304.14,-510.08C311.91,-497.81 323.18,-480.03 332.58,-465.19"/>
<polygon fill="black" stroke="black" points="335.52,-467.09 337.91,-456.77 329.6,-463.35 335.52,-467.09"/>
<text text-anchor="middle" x="333.03" y="-477.2" font-family="Arial" font-size="14.00">Si</text>
</g>
<!-- cond_i_swap&#45;&gt;init_i_write -->
<g id="edge22" class="edge" data-name="cond_i_swap-&gt;init_i_write">

<path fill="none" stroke="black" d="M280.23,-511.13C273.95,-504.91 266.74,-497.27 260.91,-489.8 254.97,-482.17 249.17,-473.39 244.18,-465.25"/>
<polygon fill="black" stroke="black" points="247.23,-463.52 239.11,-456.71 241.21,-467.1 247.23,-463.52"/>
<text text-anchor="middle" x="269.76" y="-477.2" font-family="Arial" font-size="14.00">No</text>
</g>
<!-- cond_j_swap&#45;&gt;swap_logic -->
<g id="edge17" class="edge" data-name="cond_j_swap-&gt;swap_logic">

<path fill="none" stroke="black" d="M407.69,-348.96C416.17,-336.93 428.77,-319.02 440.17,-302.83"/>
<polygon fill="black" stroke="black" points="442.93,-304.99 445.83,-294.8 437.21,-300.96 442.93,-304.99"/>
<text text-anchor="middle" x="438.03" y="-315.4" font-family="Arial" font-size="14.00">Si</text>
</g>
<!-- cond_j_swap&#45;&gt;inc_i_swap -->
<g id="edge20" class="edge" data-name="cond_j_swap-&gt;inc_i_swap">

<path fill="none" stroke="black" d="M388.06,-348.96C377.73,-334.06 361.16,-310.18 348.32,-291.68"/>
<polygon fill="black" stroke="black" points="351.26,-289.78 342.69,-283.56 345.51,-293.77 351.26,-289.78"/>
<text text-anchor="middle" x="380.76" y="-315.4" font-family="Arial" font-size="14.00">No</text>
</g>
<!-- cond_i_write&#45;&gt;fin -->
<g id="edge31" class="edge" data-name="cond_i_write-&gt;fin">

<path fill="none" stroke="black" d="M187.95,-352.8C177.29,-346.76 164.73,-338.28 155.91,-328 147.11,-317.75 140.43,-304.39 135.71,-292.61"/>
<polygon fill="black" stroke="black" points="139.05,-291.54 132.3,-283.37 132.48,-293.97 139.05,-291.54"/>
<text text-anchor="middle" x="165.76" y="-315.4" font-family="Arial" font-size="14.00">No</text>
</g>
<!-- cond_i_write&#45;&gt;init_j_write -->
<g id="edge24" class="edge" data-name="cond_i_write-&gt;init_j_write">

<path fill="none" stroke="black" d="M214.43,-347.69C219.81,-333.05 228.05,-310.62 234.59,-292.82"/>
<polygon fill="black" stroke="black" points="237.81,-294.2 237.97,-283.6 231.24,-291.78 237.81,-294.2"/>
<text text-anchor="middle" x="233.03" y="-315.4" font-family="Arial" font-size="14.00">Si</text>
</g>
<!-- cond_j_write&#45;&gt;escritura_a -->
<g id="edge26" class="edge" data-name="cond_j_write-&gt;escritura_a">

<path fill="none" stroke="black" d="M278.96,-162.06C279.78,-150.33 280.88,-134.35 281.83,-120.61"/>
<polygon fill="black" stroke="black" points="285.31,-121.01 282.51,-110.79 278.33,-120.52 285.31,-121.01"/>
<text text-anchor="middle" x="287.03" y="-131.2" font-family="Arial" font-size="14.00">Si</text>
</g>
<!-- cond_j_write&#45;&gt;inc_i_write -->
<g id="edge29" class="edge" data-name="cond_j_write-&gt;inc_i_write">

<path fill="none" stroke="black" d="M263.19,-166.36C247.98,-153.41 223.74,-132.79 204.65,-116.54"/>
<polygon fill="black" stroke="black" points="207.06,-114 197.17,-110.18 202.52,-119.33 207.06,-114"/>
<text text-anchor="middle" x="244.76" y="-131.2" font-family="Arial" font-size="14.00">No</text>
</g>
</g>
</svg>