<?xml version="1.0" encoding="UTF-8" standalone="no"?>
<!DOCTYPE svg PUBLIC "-//W3C//DTD SVG 1.1//EN"
 "http://www.w3.org/Graphics/SVG/1.1/DTD/svg11.dtd">
<!-- Generated by graphviz version 14.1.0 (20251206.1807)
 -->
<!-- Title: ps_1_13 Pages: 1 -->
<svg width="262pt" height="707pt"
 viewBox="0.00 0.00 262.00 707.00" xmlns="http://www.w3.org/2000/svg" xmlns:xlink="http://www.w3.org/1999/xlink">
<g id="graph0" class="graph" transform="scale(1 1) rotate(0) translate(4 702.81)">
<title>ps_1_13</title>
<polygon fill="white" stroke="none" points="-4,4 -4,-702.81 258,-702.81 258,4 -4,4"/>
<!-- inicio -->
<g id="node1" class="node">
<title>inicio</title>
<ellipse fill="#90ee90" stroke="black" cx="127" cy="-680.81" rx="31.01" ry="18"/>
<text xml:space="preserve" text-anchor="middle" x="127" y="-677.11" font-family="Arial" font-size="11.00">INICIO</text>
</g>
<!-- entrada -->
<g id="node2" class="node">
<title>entrada</title>
<polygon fill="#87ceeb" stroke="black" points="254,-626.81 51.97,-626.81 0,-502.81 202.03,-502.81 254,-626.81"/>
<text xml:space="preserve" text-anchor="middle" x="127" y="-581.36" font-family="Arial" font-size="11.00">Leer:</text>
<text xml:space="preserve" text-anchor="middle" x="127" y="-567.86" font-family="Arial" font-size="11.00">PER (perímetro base)</text>
<text xml:space="preserve" text-anchor="middle" x="127" y="-554.36" font-family="Arial" font-size="11.00">APO (apotema)</text>
<text xml:space="preserve" text-anchor="middle" x="127" y="-540.86" font-family="Arial" font-size="11.00">ALT (altura)</text>
</g>
<!-- inicio&#45;&gt;entrada -->
<g id="edge1" class="edge">
<title>inicio&#45;&gt;entrada</title>
<path fill="none" stroke="black" d="M127,-662.5C127,-655.71 127,-647.43 127,-638.6"/>
<polygon fill="black" stroke="black" points="130.5,-638.71 127,-628.71 123.5,-638.71 130.5,-638.71"/>
</g>
<!-- calc1 -->
<g id="node3" class="node">
<title>calc1</title>
<polygon fill="none" stroke="black" points="189.38,-466.81 64.63,-466.81 64.63,-430.81 189.38,-430.81 189.38,-466.81"/>
<text xml:space="preserve" text-anchor="middle" x="127" y="-451.86" font-family="Arial" font-size="11.00">AB = (PER × APO) / 2</text>
<text xml:space="preserve" text-anchor="middle" x="127" y="-438.36" font-family="Arial" font-size="11.00">(Área de la Base)</text>
</g>
<!-- entrada&#45;&gt;calc1 -->
<g id="edge2" class="edge">
<title>entrada&#45;&gt;calc1</title>
<path fill="none" stroke="black" d="M127,-502.47C127,-494.1 127,-485.85 127,-478.46"/>
<polygon fill="black" stroke="black" points="130.5,-478.46 127,-468.46 123.5,-478.46 130.5,-478.46"/>
</g>
<!-- calc2 -->
<g id="node4" class="node">
<title>calc2</title>
<polygon fill="none" stroke="black" points="175.5,-394.81 78.5,-394.81 78.5,-358.81 175.5,-358.81 175.5,-394.81"/>
<text xml:space="preserve" text-anchor="middle" x="127" y="-379.86" font-family="Arial" font-size="11.00">AL = PER × ALT</text>
<text xml:space="preserve" text-anchor="middle" x="127" y="-366.36" font-family="Arial" font-size="11.00">(Área Lateral)</text>
</g>
<!-- calc1&#45;&gt;calc2 -->
<g id="edge3" class="edge">
<title>calc1&#45;&gt;calc2</title>
<path fill="none" stroke="black" d="M127,-430.51C127,-423.22 127,-414.54 127,-406.35"/>
<polygon fill="black" stroke="black" points="130.5,-406.43 127,-396.43 123.5,-406.43 130.5,-406.43"/>
</g>
<!-- calc3 -->
<g id="node5" class="node">
<title>calc3</title>
<polygon fill="none" stroke="black" points="181.13,-322.81 72.88,-322.81 72.88,-286.81 181.13,-286.81 181.13,-322.81"/>
<text xml:space="preserve" text-anchor="middle" x="127" y="-307.86" font-family="Arial" font-size="11.00">AT = (2 × AB) + AL</text>
<text xml:space="preserve" text-anchor="middle" x="127" y="-294.36" font-family="Arial" font-size="11.00">(Área Total)</text>
</g>
<!-- calc2&#45;&gt;calc3 -->
<g id="edge4" class="edge">
<title>calc2&#45;&gt;calc3</title>
<path fill="none" stroke="black" d="M127,-358.51C127,-351.22 127,-342.54 127,-334.35"/>
<polygon fill="black" stroke="black" points="130.5,-334.43 127,-324.43 123.5,-334.43 130.5,-334.43"/>
</g>
<!-- calc4 -->
<g id="node6" class="node">
<title>calc4</title>
<polygon fill="none" stroke="black" points="175.13,-250.81 78.88,-250.81 78.88,-214.81 175.13,-214.81 175.13,-250.81"/>
<text xml:space="preserve" text-anchor="middle" x="127" y="-235.86" font-family="Arial" font-size="11.00">VOL = AB × ALT</text>
<text xml:space="preserve" text-anchor="middle" x="127" y="-222.36" font-family="Arial" font-size="11.00">(Volumen)</text>
</g>
<!-- calc3&#45;&gt;calc4 -->
<g id="edge5" class="edge">
<title>calc3&#45;&gt;calc4</title>
<path fill="none" stroke="black" d="M127,-286.51C127,-279.22 127,-270.54 127,-262.35"/>
<polygon fill="black" stroke="black" points="130.5,-262.43 127,-252.43 123.5,-262.43 130.5,-262.43"/>
</g>
<!-- salida -->
<g id="node7" class="node">
<title>salida</title>
<polygon fill="#ffb6c1" stroke="black" points="134.02,-72.15 138.67,-72.44 143.27,-72.88 147.8,-73.46 152.25,-74.18 156.6,-75.05 160.82,-76.05 164.91,-77.19 168.85,-78.46 172.62,-79.85 176.2,-81.38 179.6,-83.02 182.79,-84.78 185.77,-86.65 188.52,-88.63 191.05,-90.71 193.33,-92.88 195.38,-95.15 197.18,-97.49 198.73,-99.91 200.03,-102.41 201.09,-104.96 201.9,-107.57 202.46,-110.23 202.78,-112.93 202.87,-115.67 202.73,-118.43 202.36,-121.21 201.78,-124.01 200.98,-126.8 199.99,-129.6 198.81,-132.38 197.45,-135.14 195.92,-137.88 194.22,-140.58 192.38,-143.24 190.4,-145.85 188.28,-148.4 186.05,-150.9 183.7,-153.32 181.26,-155.66 178.73,-157.93 176.11,-160.1 173.42,-162.18 170.67,-164.16 167.85,-166.03 164.99,-167.79 162.09,-169.43 159.14,-170.96 156.16,-172.35 153.16,-173.62 150.13,-174.76 147.08,-175.76 144.02,-176.63 140.94,-177.35 137.85,-177.93 134.76,-178.37 131.66,-178.66 128.55,-178.81 125.45,-178.81 122.35,-178.66 119.25,-178.37 116.15,-177.93 113.07,-177.35 109.99,-176.63 106.92,-175.76 103.88,-174.76 100.85,-173.62 97.84,-172.35 94.86,-170.96 91.92,-169.43 89.01,-167.79 86.15,-166.03 83.34,-164.16 80.58,-162.18 77.89,-160.1 75.28,-157.93 72.74,-155.66 70.3,-153.32 67.96,-150.9 65.72,-148.4 63.61,-145.85 61.63,-143.24 59.78,-140.58 58.09,-137.88 56.55,-135.14 55.19,-132.38 54.01,-129.6 53.02,-126.8 52.23,-124.01 51.65,-121.21 51.28,-118.43 51.14,-115.67 51.22,-112.93 51.54,-110.23 52.11,-107.57 52.92,-104.96 53.97,-102.41 55.27,-99.91 56.83,-97.49 58.63,-95.15 60.67,-92.88 62.96,-90.71 65.48,-88.63 68.24,-86.65 71.21,-84.78 74.4,-83.02 77.8,-81.38 81.39,-79.85 85.16,-78.46 89.09,-77.19 93.18,-76.05 97.41,-75.05 101.75,-74.18 106.2,-73.46 110.73,-72.88 115.33,-72.44 119.98,-72.15 124.66,-72 129.35,-72 134.02,-72.15"/>
<text xml:space="preserve" text-anchor="middle" x="127" y="-148.7" font-family="Arial" font-size="11.00">Imprimir:</text>
<text xml:space="preserve" text-anchor="middle" x="127" y="-135.2" font-family="Arial" font-size="11.00">Área Base = AB</text>
<text xml:space="preserve" text-anchor="middle" x="127" y="-121.7" font-family="Arial" font-size="11.00">Área Lateral = AL</text>
<text xml:space="preserve" text-anchor="middle" x="127" y="-108.2" font-family="Arial" font-size="11.00">Área Total = AT</text>
<text xml:space="preserve" text-anchor="middle" x="127" y="-94.7" font-family="Arial" font-size="11.00">Volumen = VOL</text>
</g>
<!-- calc4&#45;&gt;salida -->
<g id="edge6" class="edge">
<title>calc4&#45;&gt;salida</title>
<path fill="none" stroke="black" d="M127,-214.4C127,-207.5 127,-199.09 127,-190.25"/>
<polygon fill="black" stroke="black" points="130.5,-190.41 127,-180.41 123.5,-190.41 130.5,-190.41"/>
</g>
<!-- fin -->
<g id="node8" class="node">
<title>fin</title>
<ellipse fill="#ff6b6b" stroke="black" cx="127" cy="-18" rx="27" ry="18"/>
<text xml:space="preserve" text-anchor="middle" x="127" y="-14.3" font-family="Arial" font-size="11.00">FIN</text>
</g>
<!-- salida&#45;&gt;fin -->
<g id="edge7" class="edge">
<title>salida&#45;&gt;fin</title>
<path fill="none" stroke="black" d="M127,-71.7C127,-63.43 127,-55.15 127,-47.69"/>
<polygon fill="black" stroke="black" points="130.5,-47.92 127,-37.92 123.5,-47.92 130.5,-47.92"/>
</g>
</g>
</svg>
