<?xml version="1.0" encoding="UTF-8" standalone="no"?>
<!DOCTYPE svg PUBLIC "-//W3C//DTD SVG 1.1//EN"
 "http://www.w3.org/Graphics/SVG/1.1/DTD/svg11.dtd">
<!-- Generated by graphviz version 14.1.0 (20251206.1807)
 -->
<!-- Title: problema_3_13 Pages: 1 -->
<svg width="1162pt" height="966pt"
 viewBox="0.00 0.00 1162.00 966.00" xmlns="http://www.w3.org/2000/svg" xmlns:xlink="http://www.w3.org/1999/xlink">
<g id="graph0" class="graph" transform="scale(1 1) rotate(0) translate(4 961.73)">
<title>problema_3_13</title>
<polygon fill="white" stroke="none" points="-4,4 -4,-961.73 1157.9,-961.73 1157.9,4 -4,4"/>
<!-- inicio -->
<g id="node1" class="node">
<title>inicio</title>
<ellipse fill="#90ee90" stroke="black" cx="317.89" cy="-939.73" rx="31.01" ry="18"/>
<text xml:space="preserve" text-anchor="middle" x="317.89" y="-936.03" font-family="Arial" font-size="11.00">INICIO</text>
</g>
<!-- init -->
<g id="node2" class="node">
<title>init</title>
<polygon fill="none" stroke="black" points="386.26,-884.73 249.51,-884.73 249.51,-756.23 386.26,-756.23 386.26,-884.73"/>
<text xml:space="preserve" text-anchor="middle" x="317.89" y="-870.28" font-family="Arial" font-size="11.00">ARNO = 0</text>
<text xml:space="preserve" text-anchor="middle" x="317.89" y="-856.78" font-family="Arial" font-size="11.00">ARCE = 0</text>
<text xml:space="preserve" text-anchor="middle" x="317.89" y="-843.28" font-family="Arial" font-size="11.00">ARSU = 0</text>
<text xml:space="preserve" text-anchor="middle" x="317.89" y="-829.78" font-family="Arial" font-size="11.00">(Acumuladores regiones)</text>
<text xml:space="preserve" text-anchor="middle" x="317.89" y="-803.28" font-family="Arial" font-size="11.00">MERSU = 500000</text>
<text xml:space="preserve" text-anchor="middle" x="317.89" y="-789.78" font-family="Arial" font-size="11.00">(Mínimo inicial alto)</text>
<text xml:space="preserve" text-anchor="middle" x="317.89" y="-763.28" font-family="Arial" font-size="11.00">I = 1</text>
</g>
<!-- inicio&#45;&gt;init -->
<g id="edge1" class="edge">
<title>inicio&#45;&gt;init</title>
<path fill="none" stroke="black" d="M317.89,-921.43C317.89,-914.41 317.89,-905.78 317.89,-896.56"/>
<polygon fill="black" stroke="black" points="321.39,-896.6 317.89,-886.6 314.39,-896.6 321.39,-896.6"/>
</g>
<!-- ciclo -->
<g id="node3" class="node">
<title>ciclo</title>
<polygon fill="#ffd700" stroke="black" points="317.89,-719.23 268.74,-701.23 317.89,-683.23 367.04,-701.23 317.89,-719.23"/>
<text xml:space="preserve" text-anchor="middle" x="317.89" y="-697.53" font-family="Arial" font-size="11.00">¿I ≤ 12?</text>
</g>
<!-- init&#45;&gt;ciclo -->
<g id="edge2" class="edge">
<title>init&#45;&gt;ciclo</title>
<path fill="none" stroke="black" d="M317.89,-756.05C317.89,-747.37 317.89,-738.83 317.89,-731.21"/>
<polygon fill="black" stroke="black" points="321.39,-731.24 317.89,-721.24 314.39,-731.24 321.39,-731.24"/>
</g>
<!-- entrada -->
<g id="node4" class="node">
<title>entrada</title>
<polygon fill="#87ceeb" stroke="black" points="289.77,-630.73 59.29,-630.73 0,-506.73 230.48,-506.73 289.77,-630.73"/>
<text xml:space="preserve" text-anchor="middle" x="144.89" y="-585.28" font-family="Arial" font-size="11.00">Leer:</text>
<text xml:space="preserve" text-anchor="middle" x="144.89" y="-571.78" font-family="Arial" font-size="11.00">RNO (lluvia Norte mes I)</text>
<text xml:space="preserve" text-anchor="middle" x="144.89" y="-558.28" font-family="Arial" font-size="11.00">RCE (lluvia Centro mes I)</text>
<text xml:space="preserve" text-anchor="middle" x="144.89" y="-544.78" font-family="Arial" font-size="11.00">RSU (lluvia Sur mes I)</text>
</g>
<!-- ciclo&#45;&gt;entrada -->
<g id="edge3" class="edge">
<title>ciclo&#45;&gt;entrada</title>
<path fill="none" stroke="black" d="M302.53,-688.64C286.86,-676.82 261.18,-657.45 235.05,-637.74"/>
<polygon fill="black" stroke="black" points="237.49,-635.19 227.4,-631.97 233.27,-640.78 237.49,-635.19"/>
<text xml:space="preserve" text-anchor="middle" x="272.77" y="-651.93" font-family="Times New Roman,serif" font-size="14.00">SÍ</text>
</g>
<!-- calc_prom -->
<g id="node9" class="node">
<title>calc_prom</title>
<polygon fill="none" stroke="black" points="504.14,-586.73 375.64,-586.73 375.64,-550.73 504.14,-550.73 504.14,-586.73"/>
<text xml:space="preserve" text-anchor="middle" x="439.89" y="-571.78" font-family="Arial" font-size="11.00">PRORCE = ARCE / 12</text>
<text xml:space="preserve" text-anchor="middle" x="439.89" y="-558.28" font-family="Arial" font-size="11.00">(Promedio Centro)</text>
</g>
<!-- ciclo&#45;&gt;calc_prom -->
<g id="edge10" class="edge">
<title>ciclo&#45;&gt;calc_prom</title>
<path fill="none" stroke="black" d="M330.03,-687.24C349.93,-665.94 389.87,-623.23 415.71,-595.58"/>
<polygon fill="black" stroke="black" points="418.26,-597.99 422.53,-588.29 413.14,-593.21 418.26,-597.99"/>
<text xml:space="preserve" text-anchor="middle" x="374.12" y="-651.93" font-family="Times New Roman,serif" font-size="14.00">NO</text>
</g>
<!-- acumular -->
<g id="node5" class="node">
<title>acumular</title>
<polygon fill="none" stroke="black" points="226.01,-456.87 63.76,-456.87 63.76,-394.87 226.01,-394.87 226.01,-456.87"/>
<text xml:space="preserve" text-anchor="middle" x="144.89" y="-442.42" font-family="Arial" font-size="11.00">ARNO = ARNO + RNO</text>
<text xml:space="preserve" text-anchor="middle" x="144.89" y="-428.92" font-family="Arial" font-size="11.00">ARCE = ARCE + RCE</text>
<text xml:space="preserve" text-anchor="middle" x="144.89" y="-415.42" font-family="Arial" font-size="11.00">ARSU = ARSU + RSU</text>
<text xml:space="preserve" text-anchor="middle" x="144.89" y="-401.92" font-family="Arial" font-size="11.00">(Sumar lluvias de cada región)</text>
</g>
<!-- entrada&#45;&gt;acumular -->
<g id="edge4" class="edge">
<title>entrada&#45;&gt;acumular</title>
<path fill="none" stroke="black" d="M144.89,-506.35C144.89,-493.57 144.89,-480.37 144.89,-468.5"/>
<polygon fill="black" stroke="black" points="148.39,-468.64 144.89,-458.64 141.39,-468.64 148.39,-468.64"/>
</g>
<!-- comp_min -->
<g id="node6" class="node">
<title>comp_min</title>
<polygon fill="none" stroke="black" points="144.89,-345.01 51.44,-327.01 144.89,-309.01 238.34,-327.01 144.89,-345.01"/>
<text xml:space="preserve" text-anchor="middle" x="144.89" y="-323.31" font-family="Arial" font-size="11.00">¿RSU &lt; MERSU?</text>
</g>
<!-- acumular&#45;&gt;comp_min -->
<g id="edge5" class="edge">
<title>acumular&#45;&gt;comp_min</title>
<path fill="none" stroke="black" d="M144.89,-394.49C144.89,-382.34 144.89,-368.42 144.89,-356.47"/>
<polygon fill="black" stroke="black" points="148.39,-356.83 144.89,-346.83 141.39,-356.83 148.39,-356.83"/>
</g>
<!-- guardar_min -->
<g id="node7" class="node">
<title>guardar_min</title>
<polygon fill="none" stroke="black" points="274.64,-240.01 107.14,-240.01 107.14,-191.51 274.64,-191.51 274.64,-240.01"/>
<text xml:space="preserve" text-anchor="middle" x="190.89" y="-225.56" font-family="Arial" font-size="11.00">MERSU = RSU</text>
<text xml:space="preserve" text-anchor="middle" x="190.89" y="-212.06" font-family="Arial" font-size="11.00">MES = I</text>
<text xml:space="preserve" text-anchor="middle" x="190.89" y="-198.56" font-family="Arial" font-size="11.00">(Guardar mes con menor lluvia)</text>
</g>
<!-- comp_min&#45;&gt;guardar_min -->
<g id="edge6" class="edge">
<title>comp_min&#45;&gt;guardar_min</title>
<path fill="none" stroke="black" d="M151.67,-309.89C158.21,-294.37 168.3,-270.4 176.61,-250.67"/>
<polygon fill="black" stroke="black" points="179.77,-252.19 180.42,-241.62 173.32,-249.48 179.77,-252.19"/>
<text xml:space="preserve" text-anchor="middle" x="179.36" y="-269.46" font-family="Times New Roman,serif" font-size="14.00">SÍ</text>
</g>
<!-- incremento -->
<g id="node8" class="node">
<title>incremento</title>
<polygon fill="none" stroke="black" points="215.89,-115.76 161.89,-115.76 161.89,-79.76 215.89,-79.76 215.89,-115.76"/>
<text xml:space="preserve" text-anchor="middle" x="188.89" y="-94.06" font-family="Arial" font-size="11.00">I = I + 1</text>
</g>
<!-- comp_min&#45;&gt;incremento -->
<g id="edge7" class="edge">
<title>comp_min&#45;&gt;incremento</title>
<path fill="none" stroke="black" d="M128.92,-311.98C103.26,-287.63 57.69,-235.9 78.39,-191.51 93.43,-159.25 125.83,-134.22 151.68,-118.34"/>
<polygon fill="black" stroke="black" points="153.43,-121.36 160.26,-113.27 149.87,-115.34 153.43,-121.36"/>
<text xml:space="preserve" text-anchor="middle" x="88.14" y="-210.71" font-family="Times New Roman,serif" font-size="14.00">NO</text>
</g>
<!-- guardar_min&#45;&gt;incremento -->
<g id="edge8" class="edge">
<title>guardar_min&#45;&gt;incremento</title>
<path fill="none" stroke="black" d="M190.48,-191.29C190.16,-172.87 189.72,-147.14 189.38,-127.49"/>
<polygon fill="black" stroke="black" points="192.88,-127.61 189.21,-117.67 185.89,-127.73 192.88,-127.61"/>
</g>
<!-- incremento&#45;&gt;ciclo -->
<g id="edge9" class="edge">
<title>incremento&#45;&gt;ciclo</title>
<path fill="none" stroke="black" d="M211.65,-116.2C248.69,-144.98 317.89,-200.65 317.89,-214.76 317.89,-569.73 317.89,-569.73 317.89,-569.73 317.89,-604.74 317.89,-645.03 317.89,-671.47"/>
<polygon fill="black" stroke="black" points="314.39,-671.4 317.89,-681.4 321.39,-671.4 314.39,-671.4"/>
</g>
<!-- salida_ab -->
<g id="node10" class="node">
<title>salida_ab</title>
<polygon fill="#ffb6c1" stroke="black" points="541.45,-382.13 549.11,-382.37 556.69,-382.73 564.16,-383.21 571.49,-383.81 578.65,-384.52 585.61,-385.34 592.34,-386.27 598.83,-387.32 605.04,-388.46 610.95,-389.72 616.55,-391.07 621.81,-392.51 626.71,-394.05 631.25,-395.67 635.41,-397.38 639.18,-399.16 642.55,-401.02 645.51,-402.95 648.07,-404.94 650.22,-406.98 651.95,-409.08 653.29,-411.23 654.21,-413.41 654.75,-415.63 654.89,-417.88 654.65,-420.14 654.05,-422.43 653.09,-424.72 651.78,-427.02 650.15,-429.31 648.2,-431.6 645.96,-433.86 643.43,-436.11 640.64,-438.33 637.6,-440.51 634.34,-442.66 630.85,-444.76 627.17,-446.8 623.31,-448.79 619.28,-450.72 615.11,-452.58 610.8,-454.36 606.37,-456.07 601.83,-457.69 597.2,-459.23 592.48,-460.68 587.69,-462.03 582.84,-463.28 577.93,-464.42 572.98,-465.47 567.99,-466.4 562.97,-467.22 557.92,-467.93 552.85,-468.53 547.76,-469.01 542.66,-469.37 537.56,-469.61 532.44,-469.73 527.33,-469.73 522.22,-469.61 517.11,-469.37 512.01,-469.01 506.92,-468.53 501.85,-467.93 496.81,-467.22 491.78,-466.4 486.79,-465.47 481.84,-464.42 476.93,-463.28 472.08,-462.03 467.29,-460.68 462.58,-459.23 457.94,-457.69 453.4,-456.07 448.97,-454.36 444.66,-452.58 440.49,-450.72 436.46,-448.79 432.6,-446.8 428.92,-444.76 425.44,-442.66 422.17,-440.51 419.13,-438.33 416.34,-436.11 413.81,-433.86 411.57,-431.6 409.62,-429.31 407.99,-427.02 406.69,-424.72 405.73,-422.43 405.12,-420.14 404.88,-417.88 405.03,-415.63 405.56,-413.41 406.49,-411.23 407.82,-409.08 409.56,-406.98 411.7,-404.94 414.26,-402.95 417.23,-401.02 420.6,-399.16 424.36,-397.38 428.52,-395.67 433.06,-394.05 437.97,-392.51 443.22,-391.07 448.82,-389.72 454.73,-388.46 460.94,-387.32 467.43,-386.27 474.16,-385.34 481.12,-384.52 488.28,-383.81 495.61,-383.21 503.08,-382.73 510.66,-382.37 518.32,-382.13 526.03,-382.01 533.75,-382.01 541.45,-382.13"/>
<text xml:space="preserve" text-anchor="middle" x="529.89" y="-442.42" font-family="Arial" font-size="11.00">Imprimir:</text>
<text xml:space="preserve" text-anchor="middle" x="529.89" y="-428.92" font-family="Arial" font-size="11.00">&quot;Promedio Centro: &quot;, PRORCE</text>
<text xml:space="preserve" text-anchor="middle" x="529.89" y="-415.42" font-family="Arial" font-size="11.00">&quot;Mes menor lluvia Sur: &quot;, MES</text>
<text xml:space="preserve" text-anchor="middle" x="529.89" y="-401.92" font-family="Arial" font-size="11.00">&quot;Registro: &quot;, MERSU</text>
</g>
<!-- calc_prom&#45;&gt;salida_ab -->
<g id="edge11" class="edge">
<title>calc_prom&#45;&gt;salida_ab</title>
<path fill="none" stroke="black" d="M450.92,-550.45C462.41,-532.48 480.96,-503.45 497.19,-478.04"/>
<polygon fill="black" stroke="black" points="500.03,-480.1 502.46,-469.79 494.13,-476.33 500.03,-480.1"/>
</g>
<!-- comp1 -->
<g id="node11" class="node">
<title>comp1</title>
<polygon fill="none" stroke="black" points="563.89,-345.01 471.76,-327.01 563.89,-309.01 656.01,-327.01 563.89,-345.01"/>
<text xml:space="preserve" text-anchor="middle" x="563.89" y="-323.31" font-family="Arial" font-size="11.00">¿ARNO &gt; ARCE?</text>
</g>
<!-- salida_ab&#45;&gt;comp1 -->
<g id="edge12" class="edge">
<title>salida_ab&#45;&gt;comp1</title>
<path fill="none" stroke="black" d="M545,-381.82C548.22,-372.65 551.53,-363.22 554.46,-354.87"/>
<polygon fill="black" stroke="black" points="557.67,-356.29 557.68,-345.7 551.06,-353.97 557.67,-356.29"/>
</g>
<!-- comp2 -->
<g id="node12" class="node">
<title>comp2</title>
<polygon fill="none" stroke="black" points="810.89,-233.76 718.76,-215.76 810.89,-197.76 903.01,-215.76 810.89,-233.76"/>
<text xml:space="preserve" text-anchor="middle" x="810.89" y="-212.06" font-family="Arial" font-size="11.00">¿ARNO &gt; ARSU?</text>
</g>
<!-- comp1&#45;&gt;comp2 -->
<g id="edge13" class="edge">
<title>comp1&#45;&gt;comp2</title>
<path fill="none" stroke="black" d="M591.26,-313.91C635.61,-294.29 723.24,-255.53 773.37,-233.36"/>
<polygon fill="black" stroke="black" points="774.65,-236.62 782.38,-229.37 771.82,-230.22 774.65,-236.62"/>
<text xml:space="preserve" text-anchor="middle" x="762.9" y="-277.71" font-family="Times New Roman,serif" font-size="14.00">SÍ</text>
<text xml:space="preserve" text-anchor="middle" x="762.9" y="-261.21" font-family="Times New Roman,serif" font-size="14.00">(Norte &gt; Centro)</text>
</g>
<!-- comp3 -->
<g id="node13" class="node">
<title>comp3</title>
<polygon fill="none" stroke="black" points="563.89,-233.76 472.42,-215.76 563.89,-197.76 655.35,-215.76 563.89,-233.76"/>
<text xml:space="preserve" text-anchor="middle" x="563.89" y="-212.06" font-family="Arial" font-size="11.00">¿ARCE &gt; ARSU?</text>
</g>
<!-- comp1&#45;&gt;comp3 -->
<g id="edge14" class="edge">
<title>comp1&#45;&gt;comp3</title>
<path fill="none" stroke="black" d="M563.89,-308.94C563.89,-291.97 563.89,-265.61 563.89,-245.42"/>
<polygon fill="black" stroke="black" points="567.39,-245.59 563.89,-235.59 560.39,-245.59 567.39,-245.59"/>
<text xml:space="preserve" text-anchor="middle" x="573.64" y="-269.46" font-family="Times New Roman,serif" font-size="14.00">NO</text>
</g>
<!-- sal_norte -->
<g id="node14" class="node">
<title>sal_norte</title>
<polygon fill="#ffb6c1" stroke="black" points="1052.25,-73.07 1059.11,-73.2 1065.91,-73.41 1072.6,-73.68 1079.17,-74.01 1085.58,-74.41 1091.82,-74.88 1097.85,-75.4 1103.67,-75.99 1109.23,-76.64 1114.53,-77.35 1119.54,-78.11 1124.26,-78.93 1128.65,-79.79 1132.72,-80.71 1136.44,-81.67 1139.82,-82.68 1142.84,-83.73 1145.5,-84.82 1147.79,-85.94 1149.71,-87.1 1151.27,-88.28 1152.46,-89.49 1153.29,-90.72 1153.77,-91.98 1153.9,-93.24 1153.69,-94.52 1153.15,-95.81 1152.28,-97.11 1151.12,-98.41 1149.65,-99.7 1147.91,-100.99 1145.9,-102.27 1143.63,-103.54 1141.13,-104.79 1138.41,-106.02 1135.48,-107.23 1132.36,-108.42 1129.06,-109.57 1125.6,-110.7 1121.99,-111.78 1118.25,-112.83 1114.39,-113.84 1110.42,-114.8 1106.35,-115.72 1102.2,-116.59 1097.98,-117.41 1093.68,-118.17 1089.34,-118.87 1084.94,-119.52 1080.5,-120.11 1076.03,-120.64 1071.53,-121.1 1067.01,-121.5 1062.46,-121.84 1057.9,-122.11 1053.34,-122.31 1048.76,-122.45 1044.18,-122.51 1039.59,-122.51 1035.01,-122.45 1030.44,-122.31 1025.87,-122.11 1021.31,-121.84 1016.77,-121.5 1012.24,-121.1 1007.74,-120.64 1003.27,-120.11 998.83,-119.52 994.44,-118.87 990.09,-118.17 985.8,-117.41 981.57,-116.59 977.42,-115.72 973.35,-114.8 969.38,-113.84 965.52,-112.83 961.78,-111.78 958.17,-110.7 954.71,-109.57 951.41,-108.42 948.29,-107.23 945.36,-106.02 942.64,-104.79 940.14,-103.54 937.88,-102.27 935.86,-100.99 934.12,-99.7 932.66,-98.41 931.49,-97.11 930.63,-95.81 930.09,-94.52 929.87,-93.24 930,-91.98 930.48,-90.72 931.31,-89.49 932.5,-88.28 934.06,-87.1 935.98,-85.94 938.28,-84.82 940.93,-83.73 943.95,-82.68 947.33,-81.67 951.05,-80.71 955.12,-79.79 959.52,-78.93 964.23,-78.11 969.24,-77.35 974.54,-76.64 980.11,-75.99 985.92,-75.4 991.95,-74.88 998.19,-74.41 1004.61,-74.01 1011.17,-73.68 1017.87,-73.41 1024.66,-73.2 1031.52,-73.07 1038.43,-73 1045.35,-73 1052.25,-73.07"/>
<text xml:space="preserve" text-anchor="middle" x="1041.89" y="-100.81" font-family="Arial" font-size="11.00">Imprimir:</text>
<text xml:space="preserve" text-anchor="middle" x="1041.89" y="-87.31" font-family="Arial" font-size="11.00">&quot;MAYOR LLUVIA: NORTE&quot;</text>
</g>
<!-- comp2&#45;&gt;sal_norte -->
<g id="edge15" class="edge">
<title>comp2&#45;&gt;sal_norte</title>
<path fill="none" stroke="black" d="M835.61,-202.35C872.15,-184 941.44,-149.2 989.58,-125.03"/>
<polygon fill="black" stroke="black" points="991.09,-128.18 998.46,-120.57 987.95,-121.93 991.09,-128.18"/>
<text xml:space="preserve" text-anchor="middle" x="990.99" y="-160.21" font-family="Times New Roman,serif" font-size="14.00">SÍ</text>
<text xml:space="preserve" text-anchor="middle" x="990.99" y="-143.71" font-family="Times New Roman,serif" font-size="14.00">(Norte &gt; Sur)</text>
</g>
<!-- sal_sur -->
<g id="node16" class="node">
<title>sal_sur</title>
<polygon fill="#ffb6c1" stroke="black" points="820.26,-73.07 826.46,-73.2 832.6,-73.41 838.66,-73.68 844.59,-74.01 850.4,-74.41 856.04,-74.88 861.49,-75.4 866.75,-75.99 871.78,-76.64 876.57,-77.35 881.1,-78.11 885.36,-78.93 889.34,-79.79 893.02,-80.71 896.39,-81.67 899.44,-82.68 902.17,-83.73 904.57,-84.82 906.64,-85.94 908.38,-87.1 909.79,-88.28 910.87,-89.49 911.62,-90.72 912.05,-91.98 912.17,-93.24 911.98,-94.52 911.49,-95.81 910.71,-97.11 909.65,-98.41 908.33,-99.7 906.75,-100.99 904.93,-102.27 902.89,-103.54 900.63,-104.79 898.16,-106.02 895.52,-107.23 892.69,-108.42 889.71,-109.57 886.58,-110.7 883.32,-111.78 879.94,-112.83 876.45,-113.84 872.86,-114.8 869.18,-115.72 865.42,-116.59 861.6,-117.41 857.72,-118.17 853.79,-118.87 849.82,-119.52 845.8,-120.11 841.76,-120.64 837.69,-121.1 833.6,-121.5 829.49,-121.84 825.37,-122.11 821.24,-122.31 817.1,-122.45 812.96,-122.51 808.81,-122.51 804.67,-122.45 800.53,-122.31 796.4,-122.11 792.28,-121.84 788.17,-121.5 784.08,-121.1 780.01,-120.64 775.97,-120.11 771.96,-119.52 767.98,-118.87 764.05,-118.17 760.17,-117.41 756.35,-116.59 752.59,-115.72 748.92,-114.8 745.33,-113.84 741.83,-112.83 738.45,-111.78 735.19,-110.7 732.06,-109.57 729.08,-108.42 726.26,-107.23 723.61,-106.02 721.15,-104.79 718.89,-103.54 716.84,-102.27 715.02,-100.99 713.44,-99.7 712.12,-98.41 711.06,-97.11 710.29,-95.81 709.8,-94.52 709.6,-93.24 709.72,-91.98 710.15,-90.72 710.9,-89.49 711.98,-88.28 713.39,-87.1 715.13,-85.94 717.2,-84.82 719.6,-83.73 722.33,-82.68 725.39,-81.67 728.76,-80.71 732.43,-79.79 736.41,-78.93 740.67,-78.11 745.2,-77.35 749.99,-76.64 755.03,-75.99 760.28,-75.4 765.74,-74.88 771.38,-74.41 777.18,-74.01 783.12,-73.68 789.17,-73.41 795.31,-73.2 801.51,-73.07 807.76,-73 814.01,-73 820.26,-73.07"/>
<text xml:space="preserve" text-anchor="middle" x="810.89" y="-100.81" font-family="Arial" font-size="11.00">Imprimir:</text>
<text xml:space="preserve" text-anchor="middle" x="810.89" y="-87.31" font-family="Arial" font-size="11.00">&quot;MAYOR LLUVIA: SUR&quot;</text>
</g>
<!-- comp2&#45;&gt;sal_sur -->
<g id="edge16" class="edge">
<title>comp2&#45;&gt;sal_sur</title>
<path fill="none" stroke="black" d="M810.89,-197.4C810.89,-180.73 810.89,-155.06 810.89,-134.09"/>
<polygon fill="black" stroke="black" points="814.39,-134.21 810.89,-124.21 807.39,-134.21 814.39,-134.21"/>
<text xml:space="preserve" text-anchor="middle" x="820.64" y="-151.96" font-family="Times New Roman,serif" font-size="14.00">NO</text>
</g>
<!-- sal_centro -->
<g id="node15" class="node">
<title>sal_centro</title>
<polygon fill="#ffb6c1" stroke="black" points="583.88,-73.07 591.16,-73.2 598.36,-73.41 605.46,-73.68 612.42,-74.01 619.22,-74.41 625.84,-74.88 632.24,-75.4 638.4,-75.99 644.3,-76.64 649.92,-77.35 655.24,-78.11 660.24,-78.93 664.9,-79.79 669.21,-80.71 673.17,-81.67 676.75,-82.68 679.95,-83.73 682.77,-84.82 685.2,-85.94 687.24,-87.1 688.89,-88.28 690.15,-89.49 691.03,-90.72 691.54,-91.98 691.68,-93.24 691.45,-94.52 690.88,-95.81 689.96,-97.11 688.72,-98.41 687.17,-99.7 685.32,-100.99 683.19,-102.27 680.79,-103.54 678.14,-104.79 675.25,-106.02 672.14,-107.23 668.83,-108.42 665.34,-109.57 661.67,-110.7 657.84,-111.78 653.87,-112.83 649.78,-113.84 645.57,-114.8 641.25,-115.72 636.85,-116.59 632.37,-117.41 627.82,-118.17 623.21,-118.87 618.54,-119.52 613.84,-120.11 609.1,-120.64 604.32,-121.1 599.53,-121.5 594.71,-121.84 589.87,-122.11 585.03,-122.31 580.17,-122.45 575.32,-122.51 570.46,-122.51 565.6,-122.45 560.74,-122.31 555.9,-122.11 551.07,-121.84 546.25,-121.5 541.45,-121.1 536.68,-120.64 531.93,-120.11 527.23,-119.52 522.57,-118.87 517.95,-118.17 513.4,-117.41 508.92,-116.59 504.52,-115.72 500.21,-114.8 495.99,-113.84 491.9,-112.83 487.93,-111.78 484.1,-110.7 480.44,-109.57 476.94,-108.42 473.63,-107.23 470.52,-106.02 467.63,-104.79 464.98,-103.54 462.58,-102.27 460.45,-100.99 458.6,-99.7 457.05,-98.41 455.81,-97.11 454.9,-95.81 454.32,-94.52 454.1,-93.24 454.23,-91.98 454.74,-90.72 455.62,-89.49 456.88,-88.28 458.54,-87.1 460.58,-85.94 463.01,-84.82 465.82,-83.73 469.03,-82.68 472.61,-81.67 476.56,-80.71 480.87,-79.79 485.53,-78.93 490.53,-78.11 495.85,-77.35 501.47,-76.64 507.37,-75.99 513.53,-75.4 519.93,-74.88 526.55,-74.41 533.35,-74.01 540.32,-73.68 547.41,-73.41 554.62,-73.2 561.89,-73.07 569.22,-73 576.56,-73 583.88,-73.07"/>
<text xml:space="preserve" text-anchor="middle" x="572.89" y="-100.81" font-family="Arial" font-size="11.00">Imprimir:</text>
<text xml:space="preserve" text-anchor="middle" x="572.89" y="-87.31" font-family="Arial" font-size="11.00">&quot;MAYOR LLUVIA: CENTRO&quot;</text>
</g>
<!-- comp3&#45;&gt;sal_centro -->
<g id="edge17" class="edge">
<title>comp3&#45;&gt;sal_centro</title>
<path fill="none" stroke="black" d="M565.21,-197.65C566.5,-181.03 568.5,-155.29 570.13,-134.24"/>
<polygon fill="black" stroke="black" points="573.62,-134.56 570.9,-124.32 566.64,-134.02 573.62,-134.56"/>
<text xml:space="preserve" text-anchor="middle" x="609.58" y="-160.21" font-family="Times New Roman,serif" font-size="14.00">SÍ</text>
<text xml:space="preserve" text-anchor="middle" x="609.58" y="-143.71" font-family="Times New Roman,serif" font-size="14.00">(Centro &gt; Sur)</text>
</g>
<!-- sal_sur2 -->
<g id="node17" class="node">
<title>sal_sur2</title>
<polygon fill="#ffb6c1" stroke="black" points="344.26,-73.07 350.46,-73.2 356.6,-73.41 362.66,-73.68 368.59,-74.01 374.4,-74.41 380.04,-74.88 385.49,-75.4 390.75,-75.99 395.78,-76.64 400.57,-77.35 405.1,-78.11 409.36,-78.93 413.34,-79.79 417.02,-80.71 420.39,-81.67 423.44,-82.68 426.17,-83.73 428.57,-84.82 430.64,-85.94 432.38,-87.1 433.79,-88.28 434.87,-89.49 435.62,-90.72 436.05,-91.98 436.17,-93.24 435.98,-94.52 435.49,-95.81 434.71,-97.11 433.65,-98.41 432.33,-99.7 430.75,-100.99 428.93,-102.27 426.89,-103.54 424.63,-104.79 422.16,-106.02 419.52,-107.23 416.69,-108.42 413.71,-109.57 410.58,-110.7 407.32,-111.78 403.94,-112.83 400.45,-113.84 396.86,-114.8 393.18,-115.72 389.42,-116.59 385.6,-117.41 381.72,-118.17 377.79,-118.87 373.82,-119.52 369.8,-120.11 365.76,-120.64 361.69,-121.1 357.6,-121.5 353.49,-121.84 349.37,-122.11 345.24,-122.31 341.1,-122.45 336.96,-122.51 332.81,-122.51 328.67,-122.45 324.53,-122.31 320.4,-122.11 316.28,-121.84 312.17,-121.5 308.08,-121.1 304.01,-120.64 299.97,-120.11 295.96,-119.52 291.98,-118.87 288.05,-118.17 284.17,-117.41 280.35,-116.59 276.59,-115.72 272.92,-114.8 269.33,-113.84 265.83,-112.83 262.45,-111.78 259.19,-110.7 256.06,-109.57 253.08,-108.42 250.26,-107.23 247.61,-106.02 245.15,-104.79 242.89,-103.54 240.84,-102.27 239.02,-100.99 237.44,-99.7 236.12,-98.41 235.06,-97.11 234.29,-95.81 233.8,-94.52 233.6,-93.24 233.72,-91.98 234.15,-90.72 234.9,-89.49 235.98,-88.28 237.39,-87.1 239.13,-85.94 241.2,-84.82 243.6,-83.73 246.33,-82.68 249.39,-81.67 252.76,-80.71 256.43,-79.79 260.41,-78.93 264.67,-78.11 269.2,-77.35 273.99,-76.64 279.03,-75.99 284.28,-75.4 289.74,-74.88 295.38,-74.41 301.18,-74.01 307.12,-73.68 313.17,-73.41 319.31,-73.2 325.51,-73.07 331.76,-73 338.01,-73 344.26,-73.07"/>
<text xml:space="preserve" text-anchor="middle" x="334.89" y="-100.81" font-family="Arial" font-size="11.00">Imprimir:</text>
<text xml:space="preserve" text-anchor="middle" x="334.89" y="-87.31" font-family="Arial" font-size="11.00">&quot;MAYOR LLUVIA: SUR&quot;</text>
</g>
<!-- comp3&#45;&gt;sal_sur2 -->
<g id="edge18" class="edge">
<title>comp3&#45;&gt;sal_sur2</title>
<path fill="none" stroke="black" d="M539.38,-202.35C502.94,-183.89 433.64,-148.79 385.89,-124.6"/>
<polygon fill="black" stroke="black" points="387.61,-121.54 377.1,-120.14 384.44,-127.78 387.61,-121.54"/>
<text xml:space="preserve" text-anchor="middle" x="486.38" y="-151.96" font-family="Times New Roman,serif" font-size="14.00">NO</text>
</g>
<!-- fin -->
<g id="node18" class="node">
<title>fin</title>
<ellipse fill="#ff6b6b" stroke="black" cx="637.89" cy="-18" rx="27" ry="18"/>
<text xml:space="preserve" text-anchor="middle" x="637.89" y="-14.3" font-family="Arial" font-size="11.00">FIN</text>
</g>
<!-- sal_norte&#45;&gt;fin -->
<g id="edge19" class="edge">
<title>sal_norte&#45;&gt;fin</title>
<path fill="none" stroke="black" d="M954.33,-79.51C943.08,-77.31 931.71,-75.1 920.89,-73 832.59,-55.91 728.72,-36.19 674.71,-25.96"/>
<polygon fill="black" stroke="black" points="675.61,-22.57 665.14,-24.15 674.31,-29.45 675.61,-22.57"/>
</g>
<!-- sal_centro&#45;&gt;fin -->
<g id="edge20" class="edge">
<title>sal_centro&#45;&gt;fin</title>
<path fill="none" stroke="black" d="M592.74,-73C600.78,-63.39 610.03,-52.32 618.07,-42.71"/>
<polygon fill="black" stroke="black" points="620.61,-45.12 624.34,-35.21 615.24,-40.63 620.61,-45.12"/>
</g>
<!-- sal_sur&#45;&gt;fin -->
<g id="edge21" class="edge">
<title>sal_sur&#45;&gt;fin</title>
<path fill="none" stroke="black" d="M762.24,-74.89C732.85,-61.68 696.21,-45.22 670.34,-33.59"/>
<polygon fill="black" stroke="black" points="671.9,-30.45 661.34,-29.54 669.03,-36.83 671.9,-30.45"/>
</g>
<!-- sal_sur2&#45;&gt;fin -->
<g id="edge22" class="edge">
<title>sal_sur2&#45;&gt;fin</title>
<path fill="none" stroke="black" d="M407.46,-78.13C468.76,-62.4 553.98,-40.53 601.74,-28.28"/>
<polygon fill="black" stroke="black" points="602.47,-31.7 611.28,-25.83 600.73,-24.92 602.47,-31.7"/>
</g>
</g>
</svg>
