<?xml version="1.0" encoding="UTF-8" standalone="no"?>
<!DOCTYPE svg PUBLIC "-//W3C//DTD SVG 1.1//EN"
 "http://www.w3.org/Graphics/SVG/1.1/DTD/svg11.dtd">
<!-- Generated by graphviz version 14.1.0 (20251206.1807)
 -->
<!-- Title: ejemplo_1_4 Pages: 1 -->
<svg width="262pt" height="1864pt"
 viewBox="0.00 0.00 262.00 1864.00" xmlns="http://www.w3.org/2000/svg" xmlns:xlink="http://www.w3.org/1999/xlink">
<g id="graph0" class="graph" transform="scale(1 1) rotate(0) translate(4 1860)">
<title>ejemplo_1_4</title>
<polygon fill="white" stroke="none" points="-4,4 -4,-1860 258,-1860 258,4 -4,4"/>
<!-- inicio -->
<g id="node1" class="node">
<title>inicio</title>
<ellipse fill="#90ee90" stroke="black" cx="127" cy="-1838" rx="31.01" ry="18"/>
<text xml:space="preserve" text-anchor="middle" x="127" y="-1834.3" font-family="Arial" font-size="11.00">INICIO</text>
</g>
<!-- titulo_a -->
<g id="node2" class="node">
<title>titulo_a</title>
<polygon fill="#ffd700" stroke="black" points="155.62,-1784 98.37,-1784 98.37,-1748 155.62,-1748 155.62,-1784"/>
<text xml:space="preserve" text-anchor="middle" x="127" y="-1762.3" font-family="Arial" font-size="11.00">CASO A</text>
</g>
<!-- inicio&#45;&gt;titulo_a -->
<g id="edge1" class="edge">
<title>inicio&#45;&gt;titulo_a</title>
<path fill="none" stroke="black" d="M127,-1819.7C127,-1812.41 127,-1803.73 127,-1795.54"/>
<polygon fill="black" stroke="black" points="130.5,-1795.62 127,-1785.62 123.5,-1795.62 130.5,-1795.62"/>
</g>
<!-- paso1_a -->
<g id="node3" class="node">
<title>paso1_a</title>
<polygon fill="none" stroke="black" points="154,-1712 100,-1712 100,-1676 154,-1676 154,-1712"/>
<text xml:space="preserve" text-anchor="middle" x="127" y="-1697.05" font-family="Arial" font-size="11.00">Paso 1:</text>
<text xml:space="preserve" text-anchor="middle" x="127" y="-1683.55" font-family="Arial" font-size="11.00">7² = 49</text>
</g>
<!-- titulo_a&#45;&gt;paso1_a -->
<g id="edge2" class="edge">
<title>titulo_a&#45;&gt;paso1_a</title>
<path fill="none" stroke="black" d="M127,-1747.7C127,-1740.41 127,-1731.73 127,-1723.54"/>
<polygon fill="black" stroke="black" points="130.5,-1723.62 127,-1713.62 123.5,-1723.62 130.5,-1723.62"/>
</g>
<!-- paso2_a -->
<g id="node4" class="node">
<title>paso2_a</title>
<polygon fill="none" stroke="black" points="127,-1640 0,-1591.5 127,-1543 254,-1591.5 127,-1640"/>
<text xml:space="preserve" text-anchor="middle" x="127" y="-1601.3" font-family="Arial" font-size="11.00">Paso 2:</text>
<text xml:space="preserve" text-anchor="middle" x="127" y="-1587.8" font-family="Arial" font-size="11.00">¿15 &gt;= 49?</text>
<text xml:space="preserve" text-anchor="middle" x="127" y="-1574.3" font-family="Arial" font-size="11.00">Respuesta: NO (False)</text>
</g>
<!-- paso1_a&#45;&gt;paso2_a -->
<g id="edge3" class="edge">
<title>paso1_a&#45;&gt;paso2_a</title>
<path fill="none" stroke="black" d="M127,-1675.95C127,-1669.02 127,-1660.57 127,-1651.73"/>
<polygon fill="black" stroke="black" points="130.5,-1651.93 127,-1641.93 123.5,-1651.93 130.5,-1651.93"/>
</g>
<!-- paso3_a -->
<g id="node5" class="node">
<title>paso3_a</title>
<polygon fill="none" stroke="black" points="198.38,-1507 55.62,-1507 55.62,-1458.5 198.38,-1458.5 198.38,-1507"/>
<text xml:space="preserve" text-anchor="middle" x="127" y="-1492.55" font-family="Arial" font-size="11.00">Paso 3:</text>
<text xml:space="preserve" text-anchor="middle" x="127" y="-1479.05" font-family="Arial" font-size="11.00">Aplicar NO (negación)</text>
<text xml:space="preserve" text-anchor="middle" x="127" y="-1465.55" font-family="Arial" font-size="11.00">False se convierte en True</text>
</g>
<!-- paso2_a&#45;&gt;paso3_a -->
<g id="edge4" class="edge">
<title>paso2_a&#45;&gt;paso3_a</title>
<path fill="none" stroke="black" d="M127,-1542.75C127,-1534.66 127,-1526.4 127,-1518.71"/>
<polygon fill="black" stroke="black" points="130.5,-1518.74 127,-1508.74 123.5,-1518.74 130.5,-1518.74"/>
</g>
<!-- paso4_a -->
<g id="node6" class="node">
<title>paso4_a</title>
<polygon fill="none" stroke="black" points="173.62,-1422.5 80.37,-1422.5 80.37,-1374 173.62,-1374 173.62,-1422.5"/>
<text xml:space="preserve" text-anchor="middle" x="127" y="-1408.05" font-family="Arial" font-size="11.00">Paso 4:</text>
<text xml:space="preserve" text-anchor="middle" x="127" y="-1394.55" font-family="Arial" font-size="11.00">43 &#45; 8×2÷4 = 39</text>
<text xml:space="preserve" text-anchor="middle" x="127" y="-1381.05" font-family="Arial" font-size="11.00">3×2÷2 = 3</text>
</g>
<!-- paso3_a&#45;&gt;paso4_a -->
<g id="edge5" class="edge">
<title>paso3_a&#45;&gt;paso4_a</title>
<path fill="none" stroke="black" d="M127,-1458.33C127,-1450.75 127,-1442.18 127,-1433.97"/>
<polygon fill="black" stroke="black" points="130.5,-1434.24 127,-1424.24 123.5,-1434.24 130.5,-1434.24"/>
</g>
<!-- paso5_a -->
<g id="node7" class="node">
<title>paso5_a</title>
<polygon fill="none" stroke="black" points="127,-1338 10.5,-1289.5 127,-1241 243.5,-1289.5 127,-1338"/>
<text xml:space="preserve" text-anchor="middle" x="127" y="-1299.3" font-family="Arial" font-size="11.00">Paso 5:</text>
<text xml:space="preserve" text-anchor="middle" x="127" y="-1285.8" font-family="Arial" font-size="11.00">¿39 ≠ 3?</text>
<text xml:space="preserve" text-anchor="middle" x="127" y="-1272.3" font-family="Arial" font-size="11.00">Respuesta: SÍ (True)</text>
</g>
<!-- paso4_a&#45;&gt;paso5_a -->
<g id="edge6" class="edge">
<title>paso4_a&#45;&gt;paso5_a</title>
<path fill="none" stroke="black" d="M127,-1373.56C127,-1366.3 127,-1357.96 127,-1349.44"/>
<polygon fill="black" stroke="black" points="130.5,-1349.71 127,-1339.71 123.5,-1349.71 130.5,-1349.71"/>
</g>
<!-- salida_a -->
<g id="node8" class="node">
<title>salida_a</title>
<polygon fill="#ffb6c1" stroke="black" points="135.03,-1169.05 140.35,-1169.15 145.61,-1169.3 150.8,-1169.49 155.89,-1169.74 160.86,-1170.03 165.69,-1170.36 170.37,-1170.75 174.87,-1171.18 179.19,-1171.65 183.29,-1172.16 187.18,-1172.71 190.83,-1173.31 194.24,-1173.94 197.39,-1174.61 200.27,-1175.31 202.89,-1176.04 205.23,-1176.8 207.29,-1177.59 209.06,-1178.41 210.56,-1179.25 211.76,-1180.11 212.69,-1180.99 213.33,-1181.89 213.7,-1182.8 213.8,-1183.72 213.64,-1184.65 213.22,-1185.59 212.55,-1186.53 211.64,-1187.47 210.51,-1188.41 209.16,-1189.35 207.6,-1190.28 205.85,-1191.2 203.91,-1192.11 201.8,-1193.01 199.53,-1193.89 197.11,-1194.75 194.55,-1195.59 191.87,-1196.41 189.08,-1197.2 186.18,-1197.96 183.19,-1198.69 180.11,-1199.39 176.96,-1200.06 173.74,-1200.69 170.46,-1201.29 167.14,-1201.84 163.77,-1202.35 160.36,-1202.82 156.92,-1203.25 153.46,-1203.64 149.97,-1203.97 146.47,-1204.26 142.94,-1204.51 139.41,-1204.7 135.87,-1204.85 132.33,-1204.95 128.78,-1205 125.22,-1205 121.67,-1204.95 118.13,-1204.85 114.59,-1204.7 111.06,-1204.51 107.53,-1204.26 104.03,-1203.97 100.54,-1203.64 97.08,-1203.25 93.64,-1202.82 90.23,-1202.35 86.86,-1201.84 83.54,-1201.29 80.26,-1200.69 77.04,-1200.06 73.89,-1199.39 70.81,-1198.69 67.82,-1197.96 64.92,-1197.2 62.13,-1196.41 59.45,-1195.59 56.89,-1194.75 54.47,-1193.89 52.2,-1193.01 50.09,-1192.11 48.15,-1191.2 46.4,-1190.28 44.84,-1189.35 43.49,-1188.41 42.36,-1187.47 41.45,-1186.53 40.78,-1185.59 40.36,-1184.65 40.2,-1183.72 40.3,-1182.8 40.67,-1181.89 41.31,-1180.99 42.24,-1180.11 43.44,-1179.25 44.94,-1178.41 46.71,-1177.59 48.77,-1176.8 51.11,-1176.04 53.73,-1175.31 56.61,-1174.61 59.76,-1173.94 63.17,-1173.31 66.82,-1172.71 70.71,-1172.16 74.81,-1171.65 79.13,-1171.18 83.63,-1170.75 88.31,-1170.36 93.14,-1170.03 98.11,-1169.74 103.2,-1169.49 108.39,-1169.3 113.65,-1169.15 118.97,-1169.05 124.32,-1169 129.68,-1169 135.03,-1169.05"/>
<text xml:space="preserve" text-anchor="middle" x="127" y="-1183.3" font-family="Arial" font-size="11.00">Caso a) Resultado: true</text>
</g>
<!-- paso5_a&#45;&gt;salida_a -->
<g id="edge7" class="edge">
<title>paso5_a&#45;&gt;salida_a</title>
<path fill="none" stroke="black" d="M127,-1240.6C127,-1232.34 127,-1224 127,-1216.46"/>
<polygon fill="black" stroke="black" points="130.5,-1216.58 127,-1206.58 123.5,-1216.58 130.5,-1216.58"/>
</g>
<!-- titulo_b -->
<g id="node9" class="node">
<title>titulo_b</title>
<polygon fill="#ffd700" stroke="black" points="156,-1133 98,-1133 98,-1097 156,-1097 156,-1133"/>
<text xml:space="preserve" text-anchor="middle" x="127" y="-1111.3" font-family="Arial" font-size="11.00">CASO B</text>
</g>
<!-- salida_a&#45;&gt;titulo_b -->
<g id="edge8" class="edge">
<title>salida_a&#45;&gt;titulo_b</title>
<path fill="none" stroke="black" d="M127,-1168.7C127,-1161.41 127,-1152.73 127,-1144.54"/>
<polygon fill="black" stroke="black" points="130.5,-1144.62 127,-1134.62 123.5,-1144.62 130.5,-1144.62"/>
</g>
<!-- paso1_b -->
<g id="node10" class="node">
<title>paso1_b</title>
<polygon fill="none" stroke="black" points="180.37,-1061 73.62,-1061 73.62,-1025 180.37,-1025 180.37,-1061"/>
<text xml:space="preserve" text-anchor="middle" x="127" y="-1046.05" font-family="Arial" font-size="11.00">Paso 1:</text>
<text xml:space="preserve" text-anchor="middle" x="127" y="-1032.55" font-family="Arial" font-size="11.00">7 × 3² = 7 × 9 = 63</text>
</g>
<!-- titulo_b&#45;&gt;paso1_b -->
<g id="edge9" class="edge">
<title>titulo_b&#45;&gt;paso1_b</title>
<path fill="none" stroke="black" d="M127,-1096.7C127,-1089.41 127,-1080.73 127,-1072.54"/>
<polygon fill="black" stroke="black" points="130.5,-1072.62 127,-1062.62 123.5,-1072.62 130.5,-1072.62"/>
</g>
<!-- paso2_b -->
<g id="node11" class="node">
<title>paso2_b</title>
<polygon fill="none" stroke="black" points="127,-989 0,-940.5 127,-892 254,-940.5 127,-989"/>
<text xml:space="preserve" text-anchor="middle" x="127" y="-950.3" font-family="Arial" font-size="11.00">Paso 2:</text>
<text xml:space="preserve" text-anchor="middle" x="127" y="-936.8" font-family="Arial" font-size="11.00">¿15 &gt;= 63?</text>
<text xml:space="preserve" text-anchor="middle" x="127" y="-923.3" font-family="Arial" font-size="11.00">Respuesta: NO (False)</text>
</g>
<!-- paso1_b&#45;&gt;paso2_b -->
<g id="edge10" class="edge">
<title>paso1_b&#45;&gt;paso2_b</title>
<path fill="none" stroke="black" d="M127,-1024.95C127,-1018.02 127,-1009.57 127,-1000.73"/>
<polygon fill="black" stroke="black" points="130.5,-1000.93 127,-990.93 123.5,-1000.93 130.5,-1000.93"/>
</g>
<!-- paso3_b -->
<g id="node12" class="node">
<title>paso3_b</title>
<polygon fill="none" stroke="black" points="127,-856 7.5,-807.5 127,-759 246.5,-807.5 127,-856"/>
<text xml:space="preserve" text-anchor="middle" x="127" y="-817.3" font-family="Arial" font-size="11.00">Paso 3:</text>
<text xml:space="preserve" text-anchor="middle" x="127" y="-803.8" font-family="Arial" font-size="11.00">¿8 &gt; 3? → SÍ (True)</text>
<text xml:space="preserve" text-anchor="middle" x="127" y="-790.3" font-family="Arial" font-size="11.00">¿15 &gt; 6? → SÍ (True)</text>
</g>
<!-- paso2_b&#45;&gt;paso3_b -->
<g id="edge11" class="edge">
<title>paso2_b&#45;&gt;paso3_b</title>
<path fill="none" stroke="black" d="M127,-891.84C127,-883.98 127,-875.75 127,-867.66"/>
<polygon fill="black" stroke="black" points="130.5,-867.86 127,-857.86 123.5,-867.86 130.5,-867.86"/>
</g>
<!-- paso4_b -->
<g id="node13" class="node">
<title>paso4_b</title>
<polygon fill="none" stroke="black" points="183.38,-723 70.62,-723 70.62,-674.5 183.38,-674.5 183.38,-723"/>
<text xml:space="preserve" text-anchor="middle" x="127" y="-708.55" font-family="Arial" font-size="11.00">Paso 4:</text>
<text xml:space="preserve" text-anchor="middle" x="127" y="-695.05" font-family="Arial" font-size="11.00">False Y True Y True</text>
<text xml:space="preserve" text-anchor="middle" x="127" y="-681.55" font-family="Arial" font-size="11.00">= False</text>
</g>
<!-- paso3_b&#45;&gt;paso4_b -->
<g id="edge12" class="edge">
<title>paso3_b&#45;&gt;paso4_b</title>
<path fill="none" stroke="black" d="M127,-758.75C127,-750.66 127,-742.4 127,-734.71"/>
<polygon fill="black" stroke="black" points="130.5,-734.74 127,-724.74 123.5,-734.74 130.5,-734.74"/>
</g>
<!-- paso5_b -->
<g id="node14" class="node">
<title>paso5_b</title>
<polygon fill="none" stroke="black" points="183,-638.5 71,-638.5 71,-590 183,-590 183,-638.5"/>
<text xml:space="preserve" text-anchor="middle" x="127" y="-624.05" font-family="Arial" font-size="11.00">Paso 5:</text>
<text xml:space="preserve" text-anchor="middle" x="127" y="-610.55" font-family="Arial" font-size="11.00">12×2÷3² = 24÷9 = 2</text>
<text xml:space="preserve" text-anchor="middle" x="127" y="-597.05" font-family="Arial" font-size="11.00">5 + 2 = 7</text>
</g>
<!-- paso4_b&#45;&gt;paso5_b -->
<g id="edge13" class="edge">
<title>paso4_b&#45;&gt;paso5_b</title>
<path fill="none" stroke="black" d="M127,-674.33C127,-666.75 127,-658.18 127,-649.97"/>
<polygon fill="black" stroke="black" points="130.5,-650.24 127,-640.24 123.5,-650.24 130.5,-650.24"/>
</g>
<!-- paso6_b -->
<g id="node15" class="node">
<title>paso6_b</title>
<polygon fill="none" stroke="black" points="127,-554 0,-505.5 127,-457 254,-505.5 127,-554"/>
<text xml:space="preserve" text-anchor="middle" x="127" y="-515.3" font-family="Arial" font-size="11.00">Paso 6:</text>
<text xml:space="preserve" text-anchor="middle" x="127" y="-501.8" font-family="Arial" font-size="11.00">¿21 &lt; 7?</text>
<text xml:space="preserve" text-anchor="middle" x="127" y="-488.3" font-family="Arial" font-size="11.00">Respuesta: NO (False)</text>
</g>
<!-- paso5_b&#45;&gt;paso6_b -->
<g id="edge14" class="edge">
<title>paso5_b&#45;&gt;paso6_b</title>
<path fill="none" stroke="black" d="M127,-589.56C127,-582.3 127,-573.96 127,-565.44"/>
<polygon fill="black" stroke="black" points="130.5,-565.71 127,-555.71 123.5,-565.71 130.5,-565.71"/>
</g>
<!-- paso7_b -->
<g id="node16" class="node">
<title>paso7_b</title>
<polygon fill="none" stroke="black" points="198.38,-421 55.62,-421 55.62,-372.5 198.38,-372.5 198.38,-421"/>
<text xml:space="preserve" text-anchor="middle" x="127" y="-406.55" font-family="Arial" font-size="11.00">Paso 7:</text>
<text xml:space="preserve" text-anchor="middle" x="127" y="-393.05" font-family="Arial" font-size="11.00">Aplicar NO (negación)</text>
<text xml:space="preserve" text-anchor="middle" x="127" y="-379.55" font-family="Arial" font-size="11.00">False se convierte en True</text>
</g>
<!-- paso6_b&#45;&gt;paso7_b -->
<g id="edge15" class="edge">
<title>paso6_b&#45;&gt;paso7_b</title>
<path fill="none" stroke="black" d="M127,-456.75C127,-448.66 127,-440.4 127,-432.71"/>
<polygon fill="black" stroke="black" points="130.5,-432.74 127,-422.74 123.5,-432.74 130.5,-432.74"/>
</g>
<!-- paso8_b -->
<g id="node17" class="node">
<title>paso8_b</title>
<polygon fill="none" stroke="black" points="166.12,-336.5 87.87,-336.5 87.87,-288 166.12,-288 166.12,-336.5"/>
<text xml:space="preserve" text-anchor="middle" x="127" y="-322.05" font-family="Arial" font-size="11.00">Paso 8:</text>
<text xml:space="preserve" text-anchor="middle" x="127" y="-308.55" font-family="Arial" font-size="11.00">False O True</text>
<text xml:space="preserve" text-anchor="middle" x="127" y="-295.05" font-family="Arial" font-size="11.00">= True</text>
</g>
<!-- paso7_b&#45;&gt;paso8_b -->
<g id="edge16" class="edge">
<title>paso7_b&#45;&gt;paso8_b</title>
<path fill="none" stroke="black" d="M127,-372.33C127,-364.75 127,-356.18 127,-347.97"/>
<polygon fill="black" stroke="black" points="130.5,-348.24 127,-338.24 123.5,-348.24 130.5,-348.24"/>
</g>
<!-- salida_b -->
<g id="node18" class="node">
<title>salida_b</title>
<polygon fill="#ffb6c1" stroke="black" points="135.03,-216.05 140.35,-216.15 145.61,-216.3 150.8,-216.49 155.89,-216.74 160.86,-217.03 165.69,-217.36 170.37,-217.75 174.87,-218.18 179.19,-218.65 183.29,-219.16 187.18,-219.71 190.83,-220.31 194.24,-220.94 197.39,-221.61 200.27,-222.31 202.89,-223.04 205.23,-223.8 207.29,-224.59 209.06,-225.41 210.56,-226.25 211.76,-227.11 212.69,-227.99 213.33,-228.89 213.7,-229.8 213.8,-230.72 213.64,-231.65 213.22,-232.59 212.55,-233.53 211.64,-234.47 210.51,-235.41 209.16,-236.35 207.6,-237.28 205.85,-238.2 203.91,-239.11 201.8,-240.01 199.53,-240.89 197.11,-241.75 194.55,-242.59 191.87,-243.41 189.08,-244.2 186.18,-244.96 183.19,-245.69 180.11,-246.39 176.96,-247.06 173.74,-247.69 170.46,-248.29 167.14,-248.84 163.77,-249.35 160.36,-249.82 156.92,-250.25 153.46,-250.64 149.97,-250.97 146.47,-251.26 142.94,-251.51 139.41,-251.7 135.87,-251.85 132.33,-251.95 128.78,-252 125.22,-252 121.67,-251.95 118.13,-251.85 114.59,-251.7 111.06,-251.51 107.53,-251.26 104.03,-250.97 100.54,-250.64 97.08,-250.25 93.64,-249.82 90.23,-249.35 86.86,-248.84 83.54,-248.29 80.26,-247.69 77.04,-247.06 73.89,-246.39 70.81,-245.69 67.82,-244.96 64.92,-244.2 62.13,-243.41 59.45,-242.59 56.89,-241.75 54.47,-240.89 52.2,-240.01 50.09,-239.11 48.15,-238.2 46.4,-237.28 44.84,-236.35 43.49,-235.41 42.36,-234.47 41.45,-233.53 40.78,-232.59 40.36,-231.65 40.2,-230.72 40.3,-229.8 40.67,-228.89 41.31,-227.99 42.24,-227.11 43.44,-226.25 44.94,-225.41 46.71,-224.59 48.77,-223.8 51.11,-223.04 53.73,-222.31 56.61,-221.61 59.76,-220.94 63.17,-220.31 66.82,-219.71 70.71,-219.16 74.81,-218.65 79.13,-218.18 83.63,-217.75 88.31,-217.36 93.14,-217.03 98.11,-216.74 103.2,-216.49 108.39,-216.3 113.65,-216.15 118.97,-216.05 124.32,-216 129.68,-216 135.03,-216.05"/>
<text xml:space="preserve" text-anchor="middle" x="127" y="-230.3" font-family="Arial" font-size="11.00">Caso b) Resultado: true</text>
</g>
<!-- paso8_b&#45;&gt;salida_b -->
<g id="edge17" class="edge">
<title>paso8_b&#45;&gt;salida_b</title>
<path fill="none" stroke="black" d="M127,-287.54C127,-279.99 127,-271.56 127,-263.7"/>
<polygon fill="black" stroke="black" points="130.5,-263.91 127,-253.91 123.5,-263.91 130.5,-263.91"/>
</g>
<!-- titulo_c -->
<g id="node19" class="node">
<title>titulo_c</title>
<polygon fill="#ffd700" stroke="black" points="156.38,-180 97.62,-180 97.62,-144 156.38,-144 156.38,-180"/>
<text xml:space="preserve" text-anchor="middle" x="127" y="-158.3" font-family="Arial" font-size="11.00">CASO C</text>
</g>
<!-- salida_b&#45;&gt;titulo_c -->
<g id="edge18" class="edge">
<title>salida_b&#45;&gt;titulo_c</title>
<path fill="none" stroke="black" d="M127,-215.7C127,-208.41 127,-199.73 127,-191.54"/>
<polygon fill="black" stroke="black" points="130.5,-191.62 127,-181.62 123.5,-191.62 130.5,-191.62"/>
</g>
<!-- salida_c -->
<g id="node20" class="node">
<title>salida_c</title>
<polygon fill="#ffb6c1" stroke="black" points="137.98,-72.05 145.25,-72.15 152.45,-72.3 159.54,-72.49 166.49,-72.74 173.29,-73.03 179.9,-73.36 186.29,-73.75 192.45,-74.18 198.34,-74.65 203.96,-75.16 209.27,-75.71 214.26,-76.31 218.92,-76.94 223.23,-77.61 227.17,-78.31 230.75,-79.04 233.95,-79.8 236.76,-80.59 239.19,-81.41 241.23,-82.25 242.88,-83.11 244.14,-83.99 245.02,-84.89 245.53,-85.8 245.67,-86.72 245.44,-87.65 244.87,-88.59 243.95,-89.53 242.72,-90.47 241.17,-91.41 239.32,-92.35 237.19,-93.28 234.79,-94.2 232.14,-95.11 229.26,-96.01 226.15,-96.89 222.85,-97.75 219.35,-98.59 215.69,-99.41 211.87,-100.2 207.9,-100.96 203.81,-101.69 199.61,-102.39 195.3,-103.06 190.9,-103.69 186.42,-104.29 181.87,-104.84 177.27,-105.35 172.61,-105.82 167.91,-106.25 163.17,-106.64 158.4,-106.97 153.61,-107.26 148.8,-107.51 143.97,-107.7 139.13,-107.85 134.28,-107.95 129.43,-108 124.57,-108 119.72,-107.95 114.87,-107.85 110.03,-107.7 105.2,-107.51 100.39,-107.26 95.6,-106.97 90.83,-106.64 86.09,-106.25 81.39,-105.82 76.73,-105.35 72.13,-104.84 67.58,-104.29 63.1,-103.69 58.7,-103.06 54.39,-102.39 50.19,-101.69 46.1,-100.96 42.13,-100.2 38.31,-99.41 34.65,-98.59 31.15,-97.75 27.85,-96.89 24.74,-96.01 21.86,-95.11 19.21,-94.2 16.81,-93.28 14.68,-92.35 12.83,-91.41 11.28,-90.47 10.05,-89.53 9.13,-88.59 8.56,-87.65 8.33,-86.72 8.47,-85.8 8.98,-84.89 9.86,-83.99 11.12,-83.11 12.77,-82.25 14.81,-81.41 17.24,-80.59 20.05,-79.8 23.25,-79.04 26.83,-78.31 30.77,-77.61 35.08,-76.94 39.74,-76.31 44.73,-75.71 50.04,-75.16 55.66,-74.65 61.55,-74.18 67.71,-73.75 74.1,-73.36 80.71,-73.03 87.51,-72.74 94.46,-72.49 101.55,-72.3 108.75,-72.15 116.02,-72.05 123.33,-72 130.67,-72 137.98,-72.05"/>
<text xml:space="preserve" text-anchor="middle" x="127" y="-86.3" font-family="Arial" font-size="11.00">Caso c) Produce un error de tipos</text>
</g>
<!-- titulo_c&#45;&gt;salida_c -->
<g id="edge19" class="edge">
<title>titulo_c&#45;&gt;salida_c</title>
<path fill="none" stroke="black" d="M127,-143.7C127,-136.41 127,-127.73 127,-119.54"/>
<polygon fill="black" stroke="black" points="130.5,-119.62 127,-109.62 123.5,-119.62 130.5,-119.62"/>
</g>
<!-- fin -->
<g id="node21" class="node">
<title>fin</title>
<ellipse fill="#ff6b6b" stroke="black" cx="127" cy="-18" rx="27" ry="18"/>
<text xml:space="preserve" text-anchor="middle" x="127" y="-14.3" font-family="Arial" font-size="11.00">FIN</text>
</g>
<!-- salida_c&#45;&gt;fin -->
<g id="edge20" class="edge">
<title>salida_c&#45;&gt;fin</title>
<path fill="none" stroke="black" d="M127,-71.7C127,-64.41 127,-55.73 127,-47.54"/>
<polygon fill="black" stroke="black" points="130.5,-47.62 127,-37.62 123.5,-47.62 130.5,-47.62"/>
</g>
</g>
</svg>
