<?xml version="1.0" standalone="no"?>
<svg xmlns="http://www.w3.org/2000/svg" xmlns:xlink="http://www.w3.org/1999/xlink" width="392pt" height="549pt" viewBox="0.00 0.00 391.79 548.60">
<g id="graph0" class="graph" transform="translate(20.749985975141797,499.5134948797224) scale(0.8705505632961241)" data-name="G">

<polygon fill="white" stroke="none" points="-4,4 -4,-544.6 387.79,-544.6 387.79,4 -4,4" style=""/>
<!-- INICIO -->
<g id="node1" class="node" pointer-events="visible" data-name="INICIO">

<ellipse fill="#f5f5f5" stroke="black" cx="220.39" cy="-522.6" rx="41.15" ry="18" style=""/>
<text text-anchor="middle" x="220.39" y="-518.4" font-family="Inter, sans-serif" font-size="14.00" style="">INICIO</text>
</g>
<!-- LEER -->
<g id="node3" class="node" pointer-events="visible" data-name="LEER">

<polygon fill="#f5f5f5" stroke="black" points="279.8,-467.6 185.3,-467.6 160.99,-431.6 255.49,-431.6 279.8,-467.6" style=""/>
<text text-anchor="middle" x="220.39" y="-445.4" font-family="Inter, sans-serif" font-size="14.00" style="">A, B, C</text>
</g>
<!-- INICIO&#45;&gt;LEER -->
<g id="edge1" class="edge" data-name="INICIO-&gt;LEER">

<path fill="none" stroke="black" d="M220.39,-504.41C220.39,-496.83 220.39,-487.7 220.39,-479.14" style=""/>
<polygon fill="black" stroke="black" points="223.89,-479.14 220.39,-469.14 216.89,-479.14 223.89,-479.14" style=""/>
</g>
<!-- FIN -->
<g id="node2" class="node" pointer-events="visible" data-name="FIN">

<ellipse fill="#f5f5f5" stroke="black" cx="183.39" cy="-18" rx="27" ry="18" style=""/>
<text text-anchor="middle" x="183.39" y="-13.8" font-family="Inter, sans-serif" font-size="14.00" style="">FIN</text>
</g>
<!-- D1_A_gt_B -->
<g id="node4" class="node" pointer-events="visible" data-name="D1_A_gt_B">

<polygon fill="#f5f5f5" stroke="black" points="220.39,-394.6 171.17,-376.6 220.39,-358.6 269.61,-376.6 220.39,-394.6" style=""/>
<text text-anchor="middle" x="220.39" y="-372.4" font-family="Inter, sans-serif" font-size="14.00" style="">A &gt; B</text>
</g>
<!-- LEER&#45;&gt;D1_A_gt_B -->
<g id="edge2" class="edge" data-name="LEER-&gt;D1_A_gt_B">

<path fill="none" stroke="black" d="M220.39,-431.41C220.39,-423.94 220.39,-414.97 220.39,-406.52" style=""/>
<polygon fill="black" stroke="black" points="223.89,-406.64 220.39,-396.64 216.89,-406.64 223.89,-406.64" style=""/>
</g>
<!-- D2_A_gt_C -->
<g id="node5" class="node" pointer-events="visible" data-name="D2_A_gt_C">

<polygon fill="#f5f5f5" stroke="black" points="163.39,-305.8 114.17,-287.8 163.39,-269.8 212.61,-287.8 163.39,-305.8" style=""/>
<text text-anchor="middle" x="163.39" y="-283.6" font-family="Inter, sans-serif" font-size="14.00" style="">A &gt; C</text>
</g>
<!-- D1_A_gt_B&#45;&gt;D2_A_gt_C -->
<g id="edge3" class="edge" data-name="D1_A_gt_B-&gt;D2_A_gt_C">

<path fill="none" stroke="black" d="M211.24,-361.65C202.51,-348.37 189.2,-328.11 178.84,-312.32" style=""/>
<polygon fill="black" stroke="black" points="181.77,-310.41 173.36,-303.98 175.92,-314.26 181.77,-310.41" style=""/>
<text text-anchor="middle" x="203.23" y="-328" font-family="Inter, sans-serif" font-size="14.00" style="">Si</text>
</g>
<!-- D3_B_gt_C -->
<g id="node6" class="node" pointer-events="visible" data-name="D3_B_gt_C">

<polygon fill="#f5f5f5" stroke="black" points="278.39,-305.8 230.18,-287.8 278.39,-269.8 326.61,-287.8 278.39,-305.8" style=""/>
<text text-anchor="middle" x="278.39" y="-283.6" font-family="Inter, sans-serif" font-size="14.00" style="">B &gt; C</text>
</g>
<!-- D1_A_gt_B&#45;&gt;D3_B_gt_C -->
<g id="edge8" class="edge" data-name="D1_A_gt_B-&gt;D3_B_gt_C">

<path fill="none" stroke="black" d="M229.71,-361.65C238.67,-348.24 252.39,-327.72 262.98,-311.87" style=""/>
<polygon fill="black" stroke="black" points="265.61,-314.23 268.26,-303.97 259.79,-310.34 265.61,-314.23" style=""/>
<text text-anchor="middle" x="262.95" y="-328" font-family="Inter, sans-serif" font-size="14.00" style="">No</text>
</g>
<!-- D4_B_gt_C -->
<g id="node7" class="node" pointer-events="visible" data-name="D4_B_gt_C">

<polygon fill="#f5f5f5" stroke="black" points="87.39,-217 39.18,-199 87.39,-181 135.61,-199 87.39,-217" style=""/>
<text text-anchor="middle" x="87.39" y="-194.8" font-family="Inter, sans-serif" font-size="14.00" style="">B &gt; C</text>
</g>
<!-- D2_A_gt_C&#45;&gt;D4_B_gt_C -->
<g id="edge4" class="edge" data-name="D2_A_gt_C-&gt;D4_B_gt_C">

<path fill="none" stroke="black" d="M150.66,-274.07C144.25,-267.53 136.43,-259.37 129.72,-251.8 121.37,-242.39 112.5,-231.66 105.06,-222.42" style=""/>
<polygon fill="black" stroke="black" points="107.81,-220.26 98.83,-214.63 102.34,-224.63 107.81,-220.26" style=""/>
<text text-anchor="middle" x="136.23" y="-239.2" font-family="Inter, sans-serif" font-size="14.00" style="">Si</text>
</g>
<!-- OUT_CAB -->
<g id="node11" class="node" pointer-events="visible" data-name="OUT_CAB">

<polygon fill="#f5f5f5" stroke="black" points="192.68,-163 134.11,-163 134.11,-127 192.68,-127 192.68,-163" style=""/>
<text text-anchor="middle" x="163.39" y="-140.8" font-family="Inter, sans-serif" font-size="14.00" style="">C, A, B</text>
</g>
<!-- D2_A_gt_C&#45;&gt;OUT_CAB -->
<g id="edge7" class="edge" data-name="D2_A_gt_C-&gt;OUT_CAB">

<path fill="none" stroke="black" d="M163.39,-269.54C163.39,-245.89 163.39,-203.12 163.39,-174.64" style=""/>
<polygon fill="black" stroke="black" points="166.89,-174.92 163.39,-164.92 159.89,-174.92 166.89,-174.92" style=""/>
<text text-anchor="middle" x="171.95" y="-239.2" font-family="Inter, sans-serif" font-size="14.00" style="">No</text>
</g>
<!-- D5_A_gt_C -->
<g id="node8" class="node" pointer-events="visible" data-name="D5_A_gt_C">

<polygon fill="#f5f5f5" stroke="black" points="277.39,-217 228.17,-199 277.39,-181 326.61,-199 277.39,-217" style=""/>
<text text-anchor="middle" x="277.39" y="-194.8" font-family="Inter, sans-serif" font-size="14.00" style="">A &gt; C</text>
</g>
<!-- D3_B_gt_C&#45;&gt;D5_A_gt_C -->
<g id="edge9" class="edge" data-name="D3_B_gt_C-&gt;D5_A_gt_C">

<path fill="none" stroke="black" d="M278.2,-269.65C278.06,-257.96 277.88,-242.19 277.72,-228.62" style=""/>
<polygon fill="black" stroke="black" points="281.23,-228.88 277.61,-218.92 274.23,-228.96 281.23,-228.88" style=""/>
<text text-anchor="middle" x="283.23" y="-239.2" font-family="Inter, sans-serif" font-size="14.00" style="">Si</text>
</g>
<!-- OUT_CBA -->
<g id="node14" class="node" pointer-events="visible" data-name="OUT_CBA">

<polygon fill="#f5f5f5" stroke="black" points="383.68,-163 325.11,-163 325.11,-127 383.68,-127 383.68,-163" style=""/>
<text text-anchor="middle" x="354.39" y="-140.8" font-family="Inter, sans-serif" font-size="14.00" style="">C, B, A</text>
</g>
<!-- D3_B_gt_C&#45;&gt;OUT_CBA -->
<g id="edge12" class="edge" data-name="D3_B_gt_C-&gt;OUT_CBA">

<path fill="none" stroke="black" d="M291.13,-274.6C304.09,-261.52 323.84,-239.56 335.39,-217 342.18,-203.73 346.73,-187.8 349.67,-174.38" style=""/>
<polygon fill="black" stroke="black" points="353.05,-175.35 351.56,-164.86 346.18,-173.99 353.05,-175.35" style=""/>
<text text-anchor="middle" x="332.95" y="-239.2" font-family="Inter, sans-serif" font-size="14.00" style="">No</text>
</g>
<!-- OUT_ABC -->
<g id="node9" class="node" pointer-events="visible" data-name="OUT_ABC">

<polygon fill="#f5f5f5" stroke="black" points="58.68,-109 0.11,-109 0.11,-73 58.68,-73 58.68,-109" style=""/>
<text text-anchor="middle" x="29.39" y="-86.8" font-family="Inter, sans-serif" font-size="14.00" style="">A, B, C</text>
</g>
<!-- D4_B_gt_C&#45;&gt;OUT_ABC -->
<g id="edge5" class="edge" data-name="D4_B_gt_C-&gt;OUT_ABC">

<path fill="none" stroke="black" d="M79.57,-183.7C70.57,-167.25 55.57,-139.84 44.31,-119.27" style=""/>
<polygon fill="black" stroke="black" points="47.41,-117.64 39.54,-110.55 41.27,-121 47.41,-117.64" style=""/>
<text text-anchor="middle" x="73.23" y="-140.8" font-family="Inter, sans-serif" font-size="14.00" style="">Si</text>
</g>
<!-- OUT_ACB -->
<g id="node10" class="node" pointer-events="visible" data-name="OUT_ACB">

<polygon fill="#f5f5f5" stroke="black" points="135.68,-109 77.11,-109 77.11,-73 135.68,-73 135.68,-109" style=""/>
<text text-anchor="middle" x="106.39" y="-86.8" font-family="Inter, sans-serif" font-size="14.00" style="">A, C, B</text>
</g>
<!-- D4_B_gt_C&#45;&gt;OUT_ACB -->
<g id="edge6" class="edge" data-name="D4_B_gt_C-&gt;OUT_ACB">

<path fill="none" stroke="black" d="M90.28,-181.9C93.2,-165.61 97.77,-140.1 101.3,-120.4" style=""/>
<polygon fill="black" stroke="black" points="104.7,-121.26 103.02,-110.8 97.81,-120.02 104.7,-121.26" style=""/>
<text text-anchor="middle" x="108.95" y="-140.8" font-family="Inter, sans-serif" font-size="14.00" style="">No</text>
</g>
<!-- OUT_BAC -->
<g id="node12" class="node" pointer-events="visible" data-name="OUT_BAC">

<polygon fill="#f5f5f5" stroke="black" points="249.68,-109 191.11,-109 191.11,-73 249.68,-73 249.68,-109" style=""/>
<text text-anchor="middle" x="220.39" y="-86.8" font-family="Inter, sans-serif" font-size="14.00" style="">B, A, C</text>
</g>
<!-- D5_A_gt_C&#45;&gt;OUT_BAC -->
<g id="edge10" class="edge" data-name="D5_A_gt_C-&gt;OUT_BAC">

<path fill="none" stroke="black" d="M269.71,-183.7C260.86,-167.25 246.12,-139.84 235.06,-119.27" style=""/>
<polygon fill="black" stroke="black" points="238.19,-117.71 230.37,-110.56 232.03,-121.02 238.19,-117.71" style=""/>
<text text-anchor="middle" x="262.23" y="-140.8" font-family="Inter, sans-serif" font-size="14.00" style="">Si</text>
</g>
<!-- OUT_BCA -->
<g id="node13" class="node" pointer-events="visible" data-name="OUT_BCA">

<polygon fill="#f5f5f5" stroke="black" points="326.68,-109 268.11,-109 268.11,-73 326.68,-73 326.68,-109" style=""/>
<text text-anchor="middle" x="297.39" y="-86.8" font-family="Inter, sans-serif" font-size="14.00" style="">B, C, A</text>
</g>
<!-- D5_A_gt_C&#45;&gt;OUT_BCA -->
<g id="edge11" class="edge" data-name="D5_A_gt_C-&gt;OUT_BCA">

<path fill="none" stroke="black" d="M280.43,-181.9C283.5,-165.61 288.32,-140.1 292.03,-120.4" style=""/>
<polygon fill="black" stroke="black" points="295.43,-121.27 293.85,-110.8 288.55,-119.97 295.43,-121.27" style=""/>
<text text-anchor="middle" x="297.95" y="-140.8" font-family="Inter, sans-serif" font-size="14.00" style="">No</text>
</g>
<!-- OUT_ABC&#45;&gt;FIN -->
<g id="edge13" class="edge" data-name="OUT_ABC-&gt;FIN">

<path fill="none" stroke="black" d="M59.09,-76.31C85.63,-64.07 124.42,-46.19 151.59,-33.66" style=""/>
<polygon fill="black" stroke="black" points="152.75,-36.98 160.36,-29.62 149.82,-30.63 152.75,-36.98" style=""/>
</g>
<!-- OUT_ACB&#45;&gt;FIN -->
<g id="edge14" class="edge" data-name="OUT_ACB-&gt;FIN">

<path fill="none" stroke="black" d="M125.03,-72.81C135.43,-63.23 148.48,-51.19 159.61,-40.93" style=""/>
<polygon fill="black" stroke="black" points="161.94,-43.54 166.92,-34.19 157.19,-38.4 161.94,-43.54" style=""/>
</g>
<!-- OUT_CAB&#45;&gt;FIN -->
<g id="edge15" class="edge" data-name="OUT_CAB-&gt;FIN">

<path fill="none" stroke="black" d="M166.17,-126.62C169.46,-106.1 174.97,-71.67 178.87,-47.29" style=""/>
<polygon fill="black" stroke="black" points="182.27,-48.16 180.4,-37.73 175.36,-47.05 182.27,-48.16" style=""/>
</g>
<!-- OUT_BAC&#45;&gt;FIN -->
<g id="edge16" class="edge" data-name="OUT_BAC-&gt;FIN">

<path fill="none" stroke="black" d="M211.44,-72.81C207.19,-64.67 202.03,-54.76 197.29,-45.67" style=""/>
<polygon fill="black" stroke="black" points="200.44,-44.13 192.71,-36.88 194.23,-47.37 200.44,-44.13" style=""/>
</g>
<!-- OUT_BCA&#45;&gt;FIN -->
<g id="edge17" class="edge" data-name="OUT_BCA-&gt;FIN">

<path fill="none" stroke="black" d="M269.51,-72.63C252.2,-61.86 230.01,-48.03 212.49,-37.12" style=""/>
<polygon fill="black" stroke="black" points="214.4,-34.19 204.07,-31.88 210.7,-40.13 214.4,-34.19" style=""/>
</g>
<!-- OUT_CBA&#45;&gt;FIN -->
<g id="edge18" class="edge" data-name="OUT_CBA-&gt;FIN">

<path fill="none" stroke="black" d="M354.14,-126.66C353,-110.79 348.9,-87.63 335.39,-73 305.78,-40.92 255.88,-27.89 221.37,-22.6" style=""/>
<polygon fill="black" stroke="black" points="222.19,-19.18 211.81,-21.29 221.24,-26.12 222.19,-19.18" style=""/>
</g>
</g>
</svg>