<?xml version="1.0" encoding="UTF-8" standalone="no"?>
<!DOCTYPE svg PUBLIC "-//W3C//DTD SVG 1.1//EN"
 "http://www.w3.org/Graphics/SVG/1.1/DTD/svg11.dtd">
<!-- Generated by graphviz version 14.1.0 (20251206.1807)
 -->
<!-- Title: ps_4_34 Pages: 1 -->
<svg width="240pt" height="1471pt"
 viewBox="0.00 0.00 240.00 1471.00" xmlns="http://www.w3.org/2000/svg" xmlns:xlink="http://www.w3.org/1999/xlink">
<g id="graph0" class="graph" transform="scale(1 1) rotate(0) translate(4 1467.25)">
<title>ps_4_34</title>
<polygon fill="white" stroke="none" points="-4,4 -4,-1467.25 235.93,-1467.25 235.93,4 -4,4"/>
<!-- inicio -->
<g id="node1" class="node">
<title>inicio</title>
<ellipse fill="#90ee90" stroke="black" cx="115.97" cy="-1445.25" rx="31.01" ry="18"/>
<text xml:space="preserve" text-anchor="middle" x="115.97" y="-1441.55" font-family="Arial" font-size="11.00">INICIO</text>
</g>
<!-- cargar -->
<g id="node2" class="node">
<title>cargar</title>
<polygon fill="#87ceeb" stroke="black" points="225.86,-1391.25 51.04,-1391.25 6.07,-1294.25 180.89,-1294.25 225.86,-1391.25"/>
<text xml:space="preserve" text-anchor="middle" x="115.97" y="-1352.55" font-family="Arial" font-size="11.00">Cargar arreglo</text>
<text xml:space="preserve" text-anchor="middle" x="115.97" y="-1339.05" font-family="Arial" font-size="11.00">FABRICA[12][4][3]</text>
<text xml:space="preserve" text-anchor="middle" x="115.97" y="-1325.55" font-family="Arial" font-size="11.00">(Mes, Año, Depto)</text>
</g>
<!-- inicio&#45;&gt;cargar -->
<g id="edge1" class="edge">
<title>inicio&#45;&gt;cargar</title>
<path fill="none" stroke="black" d="M115.97,-1427.21C115.97,-1420.28 115.97,-1411.82 115.97,-1402.98"/>
<polygon fill="black" stroke="black" points="119.47,-1403.18 115.97,-1393.18 112.47,-1403.18 119.47,-1403.18"/>
</g>
<!-- titulo_a -->
<g id="node3" class="node">
<title>titulo_a</title>
<polygon fill="#ffd700" stroke="black" points="192.97,-1258.25 38.97,-1258.25 38.97,-1222.25 192.97,-1222.25 192.97,-1258.25"/>
<text xml:space="preserve" text-anchor="middle" x="115.97" y="-1243.3" font-family="Arial" font-size="11.00">CONSULTA A:</text>
<text xml:space="preserve" text-anchor="middle" x="115.97" y="-1229.8" font-family="Arial" font-size="11.00">Depto con mayor producción</text>
</g>
<!-- cargar&#45;&gt;titulo_a -->
<g id="edge2" class="edge">
<title>cargar&#45;&gt;titulo_a</title>
<path fill="none" stroke="black" d="M115.97,-1293.86C115.97,-1285.6 115.97,-1277.25 115.97,-1269.72"/>
<polygon fill="black" stroke="black" points="119.47,-1269.83 115.97,-1259.83 112.47,-1269.83 119.47,-1269.83"/>
</g>
<!-- calc_a -->
<g id="node4" class="node">
<title>calc_a</title>
<polygon fill="none" stroke="black" points="190.72,-1186.25 41.22,-1186.25 41.22,-1137.75 190.72,-1137.75 190.72,-1186.25"/>
<text xml:space="preserve" text-anchor="middle" x="115.97" y="-1171.8" font-family="Arial" font-size="11.00">Para cada departamento D:</text>
<text xml:space="preserve" text-anchor="middle" x="115.97" y="-1158.3" font-family="Arial" font-size="11.00">Sumar FABRICA[M][A][D]</text>
<text xml:space="preserve" text-anchor="middle" x="115.97" y="-1144.8" font-family="Arial" font-size="11.00">para todo M y A</text>
</g>
<!-- titulo_a&#45;&gt;calc_a -->
<g id="edge3" class="edge">
<title>titulo_a&#45;&gt;calc_a</title>
<path fill="none" stroke="black" d="M115.97,-1221.95C115.97,-1214.84 115.97,-1206.34 115.97,-1198.04"/>
<polygon fill="black" stroke="black" points="119.47,-1198.11 115.97,-1188.11 112.47,-1198.11 119.47,-1198.11"/>
</g>
<!-- max_a -->
<g id="node5" class="node">
<title>max_a</title>
<polygon fill="none" stroke="black" points="182.47,-1101.75 49.47,-1101.75 49.47,-1065.75 182.47,-1065.75 182.47,-1101.75"/>
<text xml:space="preserve" text-anchor="middle" x="115.97" y="-1086.8" font-family="Arial" font-size="11.00">Encontrar departamento</text>
<text xml:space="preserve" text-anchor="middle" x="115.97" y="-1073.3" font-family="Arial" font-size="11.00">con mayor total</text>
</g>
<!-- calc_a&#45;&gt;max_a -->
<g id="edge4" class="edge">
<title>calc_a&#45;&gt;max_a</title>
<path fill="none" stroke="black" d="M115.97,-1137.3C115.97,-1129.75 115.97,-1121.32 115.97,-1113.45"/>
<polygon fill="black" stroke="black" points="119.47,-1113.66 115.97,-1103.66 112.47,-1113.66 119.47,-1113.66"/>
</g>
<!-- out_a -->
<g id="node6" class="node">
<title>out_a</title>
<polygon fill="#ffb6c1" stroke="black" points="126.7,-980.31 133.8,-980.44 140.83,-980.65 147.76,-980.92 154.56,-981.25 161.2,-981.65 167.66,-982.12 173.91,-982.64 179.93,-983.23 185.69,-983.88 191.17,-984.59 196.36,-985.35 201.24,-986.17 205.79,-987.03 210,-987.95 213.86,-988.91 217.36,-989.92 220.48,-990.97 223.23,-992.06 225.61,-993.18 227.6,-994.34 229.21,-995.52 230.44,-996.73 231.31,-997.96 231.8,-999.22 231.93,-1000.48 231.71,-1001.76 231.15,-1003.05 230.26,-1004.35 229.05,-1005.65 227.54,-1006.94 225.73,-1008.23 223.65,-1009.51 221.3,-1010.78 218.72,-1012.03 215.9,-1013.26 212.86,-1014.47 209.63,-1015.66 206.22,-1016.81 202.64,-1017.94 198.9,-1019.02 195.03,-1020.07 191.03,-1021.08 186.92,-1022.04 182.71,-1022.96 178.41,-1023.83 174.03,-1024.65 169.59,-1025.41 165.09,-1026.11 160.54,-1026.76 155.94,-1027.35 151.31,-1027.88 146.66,-1028.34 141.97,-1028.74 137.27,-1029.08 132.55,-1029.35 127.82,-1029.55 123.08,-1029.69 118.34,-1029.75 113.59,-1029.75 108.85,-1029.69 104.11,-1029.55 99.38,-1029.35 94.66,-1029.08 89.96,-1028.74 85.28,-1028.34 80.62,-1027.88 75.99,-1027.35 71.39,-1026.76 66.84,-1026.11 62.34,-1025.41 57.9,-1024.65 53.52,-1023.83 49.22,-1022.96 45.01,-1022.04 40.9,-1021.08 36.9,-1020.07 33.03,-1019.02 29.29,-1017.94 25.71,-1016.81 22.3,-1015.66 19.07,-1014.47 16.03,-1013.26 13.22,-1012.03 10.63,-1010.78 8.28,-1009.51 6.2,-1008.23 4.4,-1006.94 2.88,-1005.65 1.67,-1004.35 0.78,-1003.05 0.22,-1001.76 0,-1000.48 0.13,-999.22 0.63,-997.96 1.49,-996.73 2.72,-995.52 4.33,-994.34 6.33,-993.18 8.7,-992.06 11.45,-990.97 14.58,-989.92 18.07,-988.91 21.93,-987.95 26.14,-987.03 30.69,-986.17 35.57,-985.35 40.76,-984.59 46.24,-983.88 52.01,-983.23 58.02,-982.64 64.27,-982.12 70.73,-981.65 77.37,-981.25 84.17,-980.92 91.1,-980.65 98.13,-980.44 105.23,-980.31 112.38,-980.24 119.55,-980.24 126.7,-980.31"/>
<text xml:space="preserve" text-anchor="middle" x="115.97" y="-1008.05" font-family="Arial" font-size="11.00">Imprimir:</text>
<text xml:space="preserve" text-anchor="middle" x="115.97" y="-994.55" font-family="Arial" font-size="11.00">Depto con mayor producción</text>
</g>
<!-- max_a&#45;&gt;out_a -->
<g id="edge5" class="edge">
<title>max_a&#45;&gt;out_a</title>
<path fill="none" stroke="black" d="M115.97,-1065.34C115.97,-1058.24 115.97,-1049.77 115.97,-1041.48"/>
<polygon fill="black" stroke="black" points="119.47,-1041.55 115.97,-1031.55 112.47,-1041.55 119.47,-1041.55"/>
</g>
<!-- titulo_b -->
<g id="node7" class="node">
<title>titulo_b</title>
<polygon fill="#ffd700" stroke="black" points="218.09,-944.24 13.84,-944.24 13.84,-908.24 218.09,-908.24 218.09,-944.24"/>
<text xml:space="preserve" text-anchor="middle" x="115.97" y="-929.29" font-family="Arial" font-size="11.00">CONSULTA B:</text>
<text xml:space="preserve" text-anchor="middle" x="115.97" y="-915.79" font-family="Arial" font-size="11.00">Mes del 2do año con mayor producción</text>
</g>
<!-- out_a&#45;&gt;titulo_b -->
<g id="edge6" class="edge">
<title>out_a&#45;&gt;titulo_b</title>
<path fill="none" stroke="black" d="M115.97,-980.13C115.97,-972.42 115.97,-963.78 115.97,-955.77"/>
<polygon fill="black" stroke="black" points="119.47,-955.78 115.97,-945.78 112.47,-955.78 119.47,-955.78"/>
</g>
<!-- calc_b -->
<g id="node8" class="node">
<title>calc_b</title>
<polygon fill="none" stroke="black" points="186.97,-872.24 44.97,-872.24 44.97,-823.74 186.97,-823.74 186.97,-872.24"/>
<text xml:space="preserve" text-anchor="middle" x="115.97" y="-857.79" font-family="Arial" font-size="11.00">Para cada mes M:</text>
<text xml:space="preserve" text-anchor="middle" x="115.97" y="-844.29" font-family="Arial" font-size="11.00">Sumar FABRICA[M][1][D]</text>
<text xml:space="preserve" text-anchor="middle" x="115.97" y="-830.79" font-family="Arial" font-size="11.00">para todo D (año índice 1)</text>
</g>
<!-- titulo_b&#45;&gt;calc_b -->
<g id="edge7" class="edge">
<title>titulo_b&#45;&gt;calc_b</title>
<path fill="none" stroke="black" d="M115.97,-907.94C115.97,-900.83 115.97,-892.33 115.97,-884.03"/>
<polygon fill="black" stroke="black" points="119.47,-884.1 115.97,-874.1 112.47,-884.1 119.47,-884.1"/>
</g>
<!-- max_b -->
<g id="node9" class="node">
<title>max_b</title>
<polygon fill="none" stroke="black" points="160.72,-787.74 71.22,-787.74 71.22,-751.74 160.72,-751.74 160.72,-787.74"/>
<text xml:space="preserve" text-anchor="middle" x="115.97" y="-772.79" font-family="Arial" font-size="11.00">Encontrar mes</text>
<text xml:space="preserve" text-anchor="middle" x="115.97" y="-759.29" font-family="Arial" font-size="11.00">con mayor total</text>
</g>
<!-- calc_b&#45;&gt;max_b -->
<g id="edge8" class="edge">
<title>calc_b&#45;&gt;max_b</title>
<path fill="none" stroke="black" d="M115.97,-823.28C115.97,-815.73 115.97,-807.3 115.97,-799.44"/>
<polygon fill="black" stroke="black" points="119.47,-799.65 115.97,-789.65 112.47,-799.65 119.47,-799.65"/>
</g>
<!-- out_b -->
<g id="node10" class="node">
<title>out_b</title>
<polygon fill="#ffb6c1" stroke="black" points="124.45,-647.22 130.07,-647.41 135.63,-647.69 141.1,-648.06 146.48,-648.53 151.73,-649.08 156.83,-649.73 161.77,-650.46 166.53,-651.27 171.09,-652.17 175.42,-653.15 179.53,-654.21 183.38,-655.34 186.98,-656.54 190.31,-657.81 193.36,-659.15 196.12,-660.54 198.59,-662 200.77,-663.5 202.64,-665.06 204.22,-666.66 205.49,-668.3 206.47,-669.98 207.15,-671.69 207.54,-673.42 207.65,-675.18 207.47,-676.95 207.03,-678.74 206.32,-680.54 205.37,-682.33 204.17,-684.13 202.74,-685.91 201.1,-687.69 199.24,-689.45 197.2,-691.18 194.97,-692.89 192.57,-694.57 190.02,-696.21 187.32,-697.81 184.49,-699.36 181.53,-700.87 178.47,-702.33 175.31,-703.72 172.06,-705.06 168.73,-706.33 165.33,-707.53 161.87,-708.66 158.36,-709.72 154.8,-710.69 151.2,-711.59 147.57,-712.41 143.91,-713.14 140.23,-713.78 136.53,-714.34 132.81,-714.8 129.08,-715.18 125.34,-715.46 121.59,-715.65 117.84,-715.74 114.09,-715.74 110.34,-715.65 106.59,-715.46 102.86,-715.18 99.12,-714.8 95.41,-714.34 91.7,-713.78 88.02,-713.14 84.36,-712.41 80.73,-711.59 77.13,-710.69 73.57,-709.72 70.06,-708.66 66.6,-707.53 63.2,-706.33 59.87,-705.06 56.62,-703.72 53.46,-702.33 50.4,-700.87 47.44,-699.36 44.61,-697.81 41.91,-696.21 39.36,-694.57 36.96,-692.89 34.73,-691.18 32.69,-689.45 30.83,-687.69 29.19,-685.91 27.76,-684.13 26.56,-682.33 25.61,-680.54 24.9,-678.74 24.46,-676.95 24.29,-675.18 24.39,-673.42 24.78,-671.69 25.46,-669.98 26.44,-668.3 27.71,-666.66 29.29,-665.06 31.16,-663.5 33.34,-662 35.81,-660.54 38.57,-659.15 41.62,-657.81 44.95,-656.54 48.55,-655.34 52.4,-654.21 56.51,-653.15 60.85,-652.17 65.4,-651.27 70.16,-650.46 75.1,-649.73 80.2,-649.08 85.45,-648.53 90.83,-648.06 96.31,-647.69 101.86,-647.41 107.48,-647.22 113.13,-647.13 118.8,-647.13 124.45,-647.22"/>
<text xml:space="preserve" text-anchor="middle" x="115.97" y="-691.23" font-family="Arial" font-size="11.00">Imprimir:</text>
<text xml:space="preserve" text-anchor="middle" x="115.97" y="-677.73" font-family="Arial" font-size="11.00">Mes del 2do año</text>
<text xml:space="preserve" text-anchor="middle" x="115.97" y="-664.23" font-family="Arial" font-size="11.00">con mayor producción</text>
</g>
<!-- max_b&#45;&gt;out_b -->
<g id="edge9" class="edge">
<title>max_b&#45;&gt;out_b</title>
<path fill="none" stroke="black" d="M115.97,-751.27C115.97,-744.3 115.97,-735.91 115.97,-727.44"/>
<polygon fill="black" stroke="black" points="119.47,-727.45 115.97,-717.45 112.47,-727.45 119.47,-727.45"/>
</g>
<!-- titulo_c -->
<g id="node11" class="node">
<title>titulo_c</title>
<polygon fill="#ffd700" stroke="black" points="188.09,-611.13 43.84,-611.13 43.84,-575.13 188.09,-575.13 188.09,-611.13"/>
<text xml:space="preserve" text-anchor="middle" x="115.97" y="-596.18" font-family="Arial" font-size="11.00">CONSULTA C:</text>
<text xml:space="preserve" text-anchor="middle" x="115.97" y="-582.68" font-family="Arial" font-size="11.00">Año con mayor producción</text>
</g>
<!-- out_b&#45;&gt;titulo_c -->
<g id="edge10" class="edge">
<title>out_b&#45;&gt;titulo_c</title>
<path fill="none" stroke="black" d="M115.97,-646.82C115.97,-638.87 115.97,-630.46 115.97,-622.75"/>
<polygon fill="black" stroke="black" points="119.47,-622.9 115.97,-612.9 112.47,-622.9 119.47,-622.9"/>
</g>
<!-- calc_c -->
<g id="node12" class="node">
<title>calc_c</title>
<polygon fill="none" stroke="black" points="186.97,-539.13 44.97,-539.13 44.97,-490.63 186.97,-490.63 186.97,-539.13"/>
<text xml:space="preserve" text-anchor="middle" x="115.97" y="-524.68" font-family="Arial" font-size="11.00">Para cada año A:</text>
<text xml:space="preserve" text-anchor="middle" x="115.97" y="-511.18" font-family="Arial" font-size="11.00">Sumar FABRICA[M][A][D]</text>
<text xml:space="preserve" text-anchor="middle" x="115.97" y="-497.68" font-family="Arial" font-size="11.00">para todo M y D</text>
</g>
<!-- titulo_c&#45;&gt;calc_c -->
<g id="edge11" class="edge">
<title>titulo_c&#45;&gt;calc_c</title>
<path fill="none" stroke="black" d="M115.97,-574.83C115.97,-567.72 115.97,-559.22 115.97,-550.91"/>
<polygon fill="black" stroke="black" points="119.47,-550.98 115.97,-540.98 112.47,-550.98 119.47,-550.98"/>
</g>
<!-- max_c -->
<g id="node13" class="node">
<title>max_c</title>
<polygon fill="none" stroke="black" points="160.72,-454.63 71.22,-454.63 71.22,-418.63 160.72,-418.63 160.72,-454.63"/>
<text xml:space="preserve" text-anchor="middle" x="115.97" y="-439.68" font-family="Arial" font-size="11.00">Encontrar año</text>
<text xml:space="preserve" text-anchor="middle" x="115.97" y="-426.18" font-family="Arial" font-size="11.00">con mayor total</text>
</g>
<!-- calc_c&#45;&gt;max_c -->
<g id="edge12" class="edge">
<title>calc_c&#45;&gt;max_c</title>
<path fill="none" stroke="black" d="M115.97,-490.17C115.97,-482.62 115.97,-474.19 115.97,-466.33"/>
<polygon fill="black" stroke="black" points="119.47,-466.54 115.97,-456.54 112.47,-466.54 119.47,-466.54"/>
</g>
<!-- out_c -->
<g id="node14" class="node">
<title>out_c</title>
<polygon fill="#ffb6c1" stroke="black" points="126.02,-333.18 132.67,-333.32 139.26,-333.52 145.75,-333.79 152.12,-334.12 158.34,-334.52 164.39,-334.99 170.24,-335.52 175.88,-336.11 181.27,-336.75 186.41,-337.46 191.27,-338.22 195.84,-339.04 200.11,-339.91 204.05,-340.82 207.66,-341.79 210.94,-342.79 213.87,-343.84 216.44,-344.93 218.66,-346.05 220.53,-347.21 222.04,-348.39 223.2,-349.6 224,-350.84 224.47,-352.09 224.59,-353.36 224.38,-354.64 223.86,-355.93 223.02,-357.22 221.89,-358.52 220.47,-359.81 218.78,-361.1 216.83,-362.38 214.64,-363.65 212.21,-364.9 209.57,-366.14 206.73,-367.35 203.7,-368.53 200.5,-369.69 197.15,-370.81 193.65,-371.9 190.02,-372.95 186.28,-373.95 182.43,-374.92 178.48,-375.83 174.46,-376.7 170.36,-377.52 166.2,-378.28 161.98,-378.99 157.72,-379.63 153.41,-380.22 149.08,-380.75 144.71,-381.22 140.32,-381.62 135.92,-381.95 131.5,-382.22 127.07,-382.42 122.63,-382.56 118.19,-382.63 113.74,-382.63 109.3,-382.56 104.86,-382.42 100.43,-382.22 96.01,-381.95 91.61,-381.62 87.22,-381.22 82.85,-380.75 78.52,-380.22 74.21,-379.63 69.95,-378.99 65.73,-378.28 61.57,-377.52 57.47,-376.7 53.45,-375.83 49.5,-374.92 45.65,-373.95 41.91,-372.95 38.28,-371.9 34.78,-370.81 31.43,-369.69 28.23,-368.53 25.2,-367.35 22.36,-366.14 19.72,-364.9 17.3,-363.65 15.1,-362.38 13.15,-361.1 11.46,-359.81 10.04,-358.52 8.91,-357.22 8.07,-355.93 7.55,-354.64 7.34,-353.36 7.47,-352.09 7.93,-350.84 8.74,-349.6 9.89,-348.39 11.4,-347.21 13.27,-346.05 15.49,-344.93 18.07,-343.84 20.99,-342.79 24.27,-341.79 27.88,-340.82 31.83,-339.91 36.09,-339.04 40.66,-338.22 45.52,-337.46 50.66,-336.75 56.06,-336.11 61.69,-335.52 67.54,-334.99 73.59,-334.52 79.81,-334.12 86.18,-333.79 92.67,-333.52 99.26,-333.32 105.91,-333.18 112.61,-333.11 119.32,-333.11 126.02,-333.18"/>
<text xml:space="preserve" text-anchor="middle" x="115.97" y="-360.92" font-family="Arial" font-size="11.00">Imprimir:</text>
<text xml:space="preserve" text-anchor="middle" x="115.97" y="-347.42" font-family="Arial" font-size="11.00">Año con mayor producción</text>
</g>
<!-- max_c&#45;&gt;out_c -->
<g id="edge13" class="edge">
<title>max_c&#45;&gt;out_c</title>
<path fill="none" stroke="black" d="M115.97,-418.21C115.97,-411.11 115.97,-402.64 115.97,-394.35"/>
<polygon fill="black" stroke="black" points="119.47,-394.42 115.97,-384.42 112.47,-394.42 119.47,-394.42"/>
</g>
<!-- titulo_d -->
<g id="node15" class="node">
<title>titulo_d</title>
<polygon fill="#ffd700" stroke="black" points="190.34,-297.11 41.59,-297.11 41.59,-261.11 190.34,-261.11 190.34,-297.11"/>
<text xml:space="preserve" text-anchor="middle" x="115.97" y="-282.16" font-family="Arial" font-size="11.00">CONSULTA D:</text>
<text xml:space="preserve" text-anchor="middle" x="115.97" y="-268.66" font-family="Arial" font-size="11.00">Mayor producción individual</text>
</g>
<!-- out_c&#45;&gt;titulo_d -->
<g id="edge14" class="edge">
<title>out_c&#45;&gt;titulo_d</title>
<path fill="none" stroke="black" d="M115.97,-333C115.97,-325.29 115.97,-316.66 115.97,-308.64"/>
<polygon fill="black" stroke="black" points="119.47,-308.66 115.97,-298.66 112.47,-308.66 119.47,-308.66"/>
</g>
<!-- calc_d -->
<g id="node16" class="node">
<title>calc_d</title>
<polygon fill="none" stroke="black" points="196.34,-225.11 35.59,-225.11 35.59,-176.61 196.34,-176.61 196.34,-225.11"/>
<text xml:space="preserve" text-anchor="middle" x="115.97" y="-210.66" font-family="Arial" font-size="11.00">Recorrer toda la matriz</text>
<text xml:space="preserve" text-anchor="middle" x="115.97" y="-197.16" font-family="Arial" font-size="11.00">FABRICA[M][A][D]</text>
<text xml:space="preserve" text-anchor="middle" x="115.97" y="-183.66" font-family="Arial" font-size="11.00">Guardar máximo y sus índices</text>
</g>
<!-- titulo_d&#45;&gt;calc_d -->
<g id="edge15" class="edge">
<title>titulo_d&#45;&gt;calc_d</title>
<path fill="none" stroke="black" d="M115.97,-260.81C115.97,-253.7 115.97,-245.2 115.97,-236.9"/>
<polygon fill="black" stroke="black" points="119.47,-236.97 115.97,-226.97 112.47,-236.97 119.47,-236.97"/>
</g>
<!-- out_d -->
<g id="node17" class="node">
<title>out_d</title>
<polygon fill="#ffb6c1" stroke="black" points="124.87,-72.09 130.76,-72.28 136.59,-72.56 142.34,-72.94 147.98,-73.4 153.49,-73.96 158.85,-74.6 164.03,-75.33 169.02,-76.15 173.8,-77.05 178.35,-78.02 182.66,-79.08 186.71,-80.21 190.48,-81.41 193.97,-82.68 197.17,-84.02 200.07,-85.41 202.67,-86.87 204.95,-88.38 206.92,-89.93 208.57,-91.53 209.91,-93.17 210.93,-94.85 211.65,-96.56 212.05,-98.3 212.16,-100.05 211.98,-101.83 211.52,-103.61 210.78,-105.41 209.77,-107.2 208.52,-109 207.02,-110.79 205.29,-112.56 203.35,-114.32 201.2,-116.05 198.86,-117.76 196.35,-119.44 193.67,-121.08 190.83,-122.68 187.86,-124.24 184.76,-125.74 181.55,-127.2 178.23,-128.59 174.82,-129.93 171.33,-131.2 167.77,-132.4 164.14,-133.53 160.45,-134.59 156.72,-135.57 152.94,-136.47 149.13,-137.28 145.29,-138.01 141.42,-138.66 137.54,-139.21 133.64,-139.68 129.72,-140.05 125.8,-140.33 121.87,-140.52 117.93,-140.61 114,-140.61 110.06,-140.52 106.13,-140.33 102.21,-140.05 98.29,-139.68 94.39,-139.21 90.51,-138.66 86.64,-138.01 82.8,-137.28 78.99,-136.47 75.21,-135.57 71.48,-134.59 67.79,-133.53 64.16,-132.4 60.6,-131.2 57.11,-129.93 53.7,-128.59 50.38,-127.2 47.17,-125.74 44.07,-124.24 41.1,-122.68 38.26,-121.08 35.58,-119.44 33.07,-117.76 30.73,-116.05 28.58,-114.32 26.64,-112.56 24.91,-110.79 23.41,-109 22.16,-107.2 21.15,-105.41 20.41,-103.61 19.95,-101.83 19.77,-100.05 19.88,-98.3 20.29,-96.56 21,-94.85 22.02,-93.17 23.36,-91.53 25.01,-89.93 26.98,-88.38 29.26,-86.87 31.86,-85.41 34.76,-84.02 37.96,-82.68 41.45,-81.41 45.23,-80.21 49.27,-79.08 53.58,-78.02 58.13,-77.05 62.91,-76.15 67.9,-75.33 73.08,-74.6 78.44,-73.96 83.95,-73.4 89.59,-72.94 95.34,-72.56 101.17,-72.28 107.06,-72.09 112.99,-72 118.94,-72 124.87,-72.09"/>
<text xml:space="preserve" text-anchor="middle" x="115.97" y="-116.11" font-family="Arial" font-size="11.00">Imprimir:</text>
<text xml:space="preserve" text-anchor="middle" x="115.97" y="-102.61" font-family="Arial" font-size="11.00">Mes, Año y Depto</text>
<text xml:space="preserve" text-anchor="middle" x="115.97" y="-89.11" font-family="Arial" font-size="11.00">de la mayor producción</text>
</g>
<!-- calc_d&#45;&gt;out_d -->
<g id="edge16" class="edge">
<title>calc_d&#45;&gt;out_d</title>
<path fill="none" stroke="black" d="M115.97,-176.51C115.97,-169.07 115.97,-160.58 115.97,-152.15"/>
<polygon fill="black" stroke="black" points="119.47,-152.31 115.97,-142.31 112.47,-152.31 119.47,-152.31"/>
</g>
<!-- fin -->
<g id="node18" class="node">
<title>fin</title>
<ellipse fill="#ff6b6b" stroke="black" cx="115.97" cy="-18" rx="27" ry="18"/>
<text xml:space="preserve" text-anchor="middle" x="115.97" y="-14.3" font-family="Arial" font-size="11.00">FIN</text>
</g>
<!-- out_d&#45;&gt;fin -->
<g id="edge17" class="edge">
<title>out_d&#45;&gt;fin</title>
<path fill="none" stroke="black" d="M115.97,-71.69C115.97,-63.74 115.97,-55.33 115.97,-47.63"/>
<polygon fill="black" stroke="black" points="119.47,-47.77 115.97,-37.77 112.47,-47.77 119.47,-47.77"/>
</g>
</g>
</svg>
