<?xml version="1.0" encoding="UTF-8" standalone="no"?>
<!DOCTYPE svg PUBLIC "-//W3C//DTD SVG 1.1//EN"
 "http://www.w3.org/Graphics/SVG/1.1/DTD/svg11.dtd">
<!-- Generated by graphviz version 14.1.0 (20251206.1807)
 -->
<!-- Title: ps_4_2 Pages: 1 -->
<svg width="400pt" height="687pt"
 viewBox="0.00 0.00 400.00 687.00" xmlns="http://www.w3.org/2000/svg" xmlns:xlink="http://www.w3.org/1999/xlink">
<g id="graph0" class="graph" transform="scale(1 1) rotate(0) translate(4 682.61)">
<title>ps_4_2</title>
<polygon fill="white" stroke="none" points="-4,4 -4,-682.61 396.39,-682.61 396.39,4 -4,4"/>
<!-- inicio -->
<g id="node1" class="node">
<title>inicio</title>
<ellipse fill="#90ee90" stroke="black" cx="275.5" cy="-660.61" rx="31.01" ry="18"/>
<text xml:space="preserve" text-anchor="middle" x="275.5" y="-656.91" font-family="Arial" font-size="11.00">INICIO</text>
</g>
<!-- entrada_arr -->
<g id="node2" class="node">
<title>entrada_arr</title>
<polygon fill="#87ceeb" stroke="black" points="392.39,-605.61 206.44,-605.61 158.6,-535.61 344.56,-535.61 392.39,-605.61"/>
<text xml:space="preserve" text-anchor="middle" x="275.5" y="-573.66" font-family="Arial" font-size="11.00">Leer VEC[100]</text>
<text xml:space="preserve" text-anchor="middle" x="275.5" y="-560.16" font-family="Arial" font-size="11.00">(Arreglo de enteros)</text>
</g>
<!-- inicio&#45;&gt;entrada_arr -->
<g id="edge1" class="edge">
<title>inicio&#45;&gt;entrada_arr</title>
<path fill="none" stroke="black" d="M275.5,-642.23C275.5,-635.05 275.5,-626.37 275.5,-617.57"/>
<polygon fill="black" stroke="black" points="279,-617.59 275.5,-607.59 272,-617.59 279,-617.59"/>
</g>
<!-- entrada_num -->
<g id="node3" class="node">
<title>entrada_num</title>
<polygon fill="#87ceeb" stroke="black" points="386.17,-498.61 210.12,-498.61 164.82,-428.61 340.88,-428.61 386.17,-498.61"/>
<text xml:space="preserve" text-anchor="middle" x="275.5" y="-466.66" font-family="Arial" font-size="11.00">Leer NUM</text>
<text xml:space="preserve" text-anchor="middle" x="275.5" y="-453.16" font-family="Arial" font-size="11.00">(Número a buscar)</text>
</g>
<!-- entrada_arr&#45;&gt;entrada_num -->
<g id="edge2" class="edge">
<title>entrada_arr&#45;&gt;entrada_num</title>
<path fill="none" stroke="black" d="M275.5,-535.23C275.5,-527.35 275.5,-518.84 275.5,-510.55"/>
<polygon fill="black" stroke="black" points="279,-510.58 275.5,-500.58 272,-510.58 279,-510.58"/>
</g>
<!-- init -->
<g id="node4" class="node">
<title>init</title>
<polygon fill="none" stroke="black" points="324.37,-391.61 226.62,-391.61 226.62,-355.61 324.37,-355.61 324.37,-391.61"/>
<text xml:space="preserve" text-anchor="middle" x="275.5" y="-376.66" font-family="Arial" font-size="11.00">CONTADOR = 0</text>
<text xml:space="preserve" text-anchor="middle" x="275.5" y="-363.16" font-family="Arial" font-size="11.00">I = 0</text>
</g>
<!-- entrada_num&#45;&gt;init -->
<g id="edge3" class="edge">
<title>entrada_num&#45;&gt;init</title>
<path fill="none" stroke="black" d="M275.5,-428.34C275.5,-420.01 275.5,-411.18 275.5,-403.15"/>
<polygon fill="black" stroke="black" points="279,-403.24 275.5,-393.24 272,-403.24 279,-403.24"/>
</g>
<!-- ciclo -->
<g id="node5" class="node">
<title>ciclo</title>
<polygon fill="#ffd700" stroke="black" points="275.5,-318.61 220.4,-300.61 275.5,-282.61 330.6,-300.61 275.5,-318.61"/>
<text xml:space="preserve" text-anchor="middle" x="275.5" y="-296.91" font-family="Arial" font-size="11.00">¿I &lt; 100?</text>
</g>
<!-- init&#45;&gt;ciclo -->
<g id="edge4" class="edge">
<title>init&#45;&gt;ciclo</title>
<path fill="none" stroke="black" d="M275.5,-355.43C275.5,-347.95 275.5,-338.98 275.5,-330.53"/>
<polygon fill="black" stroke="black" points="279,-330.65 275.5,-320.65 272,-330.65 279,-330.65"/>
</g>
<!-- comp -->
<g id="node6" class="node">
<title>comp</title>
<polygon fill="none" stroke="black" points="87.5,-213.81 0,-195.81 87.5,-177.81 175,-195.81 87.5,-213.81"/>
<text xml:space="preserve" text-anchor="middle" x="87.5" y="-192.11" font-family="Arial" font-size="11.00">¿VEC[I] = NUM?</text>
</g>
<!-- ciclo&#45;&gt;comp -->
<g id="edge5" class="edge">
<title>ciclo&#45;&gt;comp</title>
<path fill="none" stroke="black" d="M255.73,-288.81C223.61,-271.24 159.73,-236.3 120.59,-214.9"/>
<polygon fill="black" stroke="black" points="122.27,-211.83 111.82,-210.1 118.91,-217.97 122.27,-211.83"/>
<text xml:space="preserve" text-anchor="middle" x="215.32" y="-251.31" font-family="Times New Roman,serif" font-size="14.00">SÍ</text>
</g>
<!-- salida -->
<g id="node9" class="node">
<title>salida</title>
<polygon fill="#ffb6c1" stroke="black" points="283.15,-161.59 288.21,-161.78 293.22,-162.06 298.16,-162.44 303,-162.9 307.74,-163.46 312.34,-164.1 316.79,-164.83 321.08,-165.65 325.19,-166.55 329.1,-167.52 332.79,-168.58 336.27,-169.71 339.51,-170.91 342.52,-172.18 345.26,-173.52 347.76,-174.91 349.98,-176.37 351.94,-177.88 353.63,-179.43 355.05,-181.03 356.2,-182.67 357.08,-184.35 357.7,-186.06 358.05,-187.8 358.14,-189.55 357.99,-191.33 357.59,-193.11 356.95,-194.91 356.09,-196.7 355.01,-198.5 353.72,-200.29 352.24,-202.06 350.57,-203.82 348.72,-205.55 346.72,-207.26 344.55,-208.94 342.25,-210.58 339.82,-212.18 337.27,-213.74 334.6,-215.24 331.84,-216.7 328.99,-218.09 326.06,-219.43 323.06,-220.7 320,-221.9 316.88,-223.03 313.72,-224.09 310.51,-225.07 307.26,-225.97 303.99,-226.78 300.69,-227.51 297.37,-228.16 294.03,-228.71 290.68,-229.18 287.32,-229.55 283.95,-229.83 280.57,-230.02 277.19,-230.11 273.81,-230.11 270.43,-230.02 267.05,-229.83 263.68,-229.55 260.32,-229.18 256.97,-228.71 253.63,-228.16 250.31,-227.51 247.01,-226.78 243.73,-225.97 240.49,-225.07 237.28,-224.09 234.11,-223.03 231,-221.9 227.93,-220.7 224.93,-219.43 222,-218.09 219.15,-216.7 216.39,-215.24 213.73,-213.74 211.18,-212.18 208.75,-210.58 206.44,-208.94 204.28,-207.26 202.27,-205.55 200.43,-203.82 198.76,-202.06 197.27,-200.29 195.99,-198.5 194.91,-196.7 194.05,-194.91 193.41,-193.11 193.01,-191.33 192.85,-189.55 192.95,-187.8 193.3,-186.06 193.91,-184.35 194.79,-182.67 195.94,-181.03 197.36,-179.43 199.05,-177.88 201.01,-176.37 203.24,-174.91 205.73,-173.52 208.48,-172.18 211.48,-170.91 214.73,-169.71 218.2,-168.58 221.9,-167.52 225.81,-166.55 229.92,-165.65 234.2,-164.83 238.66,-164.1 243.26,-163.46 247.99,-162.9 252.84,-162.44 257.78,-162.06 262.79,-161.78 267.85,-161.59 272.95,-161.5 278.05,-161.5 283.15,-161.59"/>
<text xml:space="preserve" text-anchor="middle" x="275.5" y="-205.61" font-family="Arial" font-size="11.00">Imprimir:</text>
<text xml:space="preserve" text-anchor="middle" x="275.5" y="-192.11" font-family="Arial" font-size="11.00">NUM aparece</text>
<text xml:space="preserve" text-anchor="middle" x="275.5" y="-178.61" font-family="Arial" font-size="11.00">CONTADOR veces</text>
</g>
<!-- ciclo&#45;&gt;salida -->
<g id="edge10" class="edge">
<title>ciclo&#45;&gt;salida</title>
<path fill="none" stroke="black" d="M275.5,-282.17C275.5,-271.05 275.5,-256.09 275.5,-241.81"/>
<polygon fill="black" stroke="black" points="279,-242.09 275.5,-232.09 272,-242.09 279,-242.09"/>
<text xml:space="preserve" text-anchor="middle" x="285.25" y="-251.31" font-family="Times New Roman,serif" font-size="14.00">NO</text>
</g>
<!-- inc_cont -->
<g id="node7" class="node">
<title>inc_cont</title>
<polygon fill="none" stroke="black" points="136.37,-109 38.62,-109 38.62,-73 136.37,-73 136.37,-109"/>
<text xml:space="preserve" text-anchor="middle" x="87.5" y="-94.05" font-family="Arial" font-size="11.00">CONTADOR =</text>
<text xml:space="preserve" text-anchor="middle" x="87.5" y="-80.55" font-family="Arial" font-size="11.00">CONTADOR + 1</text>
</g>
<!-- comp&#45;&gt;inc_cont -->
<g id="edge6" class="edge">
<title>comp&#45;&gt;inc_cont</title>
<path fill="none" stroke="black" d="M87.5,-177.37C87.5,-161.84 87.5,-138.83 87.5,-120.61"/>
<polygon fill="black" stroke="black" points="91,-120.7 87.5,-110.7 84,-120.7 91,-120.7"/>
<text xml:space="preserve" text-anchor="middle" x="93.5" y="-130.2" font-family="Times New Roman,serif" font-size="14.00">SÍ</text>
</g>
<!-- inc_i -->
<g id="node8" class="node">
<title>inc_i</title>
<polygon fill="none" stroke="black" points="199.5,-36 145.5,-36 145.5,0 199.5,0 199.5,-36"/>
<text xml:space="preserve" text-anchor="middle" x="172.5" y="-14.3" font-family="Arial" font-size="11.00">I = I + 1</text>
</g>
<!-- comp&#45;&gt;inc_i -->
<g id="edge7" class="edge">
<title>comp&#45;&gt;inc_i</title>
<path fill="none" stroke="black" d="M99.69,-179.85C112.61,-163.36 132.86,-135.64 145.5,-109 154.85,-89.29 161.8,-65.62 166.3,-47.5"/>
<polygon fill="black" stroke="black" points="169.66,-48.5 168.56,-37.96 162.85,-46.89 169.66,-48.5"/>
<text xml:space="preserve" text-anchor="middle" x="168.55" y="-85.95" font-family="Times New Roman,serif" font-size="14.00">NO</text>
</g>
<!-- inc_cont&#45;&gt;inc_i -->
<g id="edge8" class="edge">
<title>inc_cont&#45;&gt;inc_i</title>
<path fill="none" stroke="black" d="M108.07,-72.81C118.65,-63.98 131.71,-53.07 143.3,-43.39"/>
<polygon fill="black" stroke="black" points="145.22,-46.34 150.66,-37.25 140.74,-40.97 145.22,-46.34"/>
</g>
<!-- inc_i&#45;&gt;ciclo -->
<g id="edge9" class="edge">
<title>inc_i&#45;&gt;ciclo</title>
<path fill="none" stroke="black" d="M199.93,-24.27C230.01,-31.18 278.41,-45.77 311.5,-73 347.44,-102.58 354.54,-116.79 367.5,-161.5 375.99,-190.79 381.09,-202.81 367.5,-230.11 355.29,-254.64 329.83,-272.81 308.79,-284.4"/>
<polygon fill="black" stroke="black" points="307.18,-281.3 299.93,-289.02 310.41,-287.5 307.18,-281.3"/>
</g>
<!-- fin -->
<g id="node10" class="node">
<title>fin</title>
<ellipse fill="#ff6b6b" stroke="black" cx="275.5" cy="-91" rx="27" ry="18"/>
<text xml:space="preserve" text-anchor="middle" x="275.5" y="-87.3" font-family="Arial" font-size="11.00">FIN</text>
</g>
<!-- salida&#45;&gt;fin -->
<g id="edge11" class="edge">
<title>salida&#45;&gt;fin</title>
<path fill="none" stroke="black" d="M275.5,-161.14C275.5,-148.01 275.5,-133.11 275.5,-120.52"/>
<polygon fill="black" stroke="black" points="279,-120.79 275.5,-110.79 272,-120.79 279,-120.79"/>
</g>
</g>
</svg>
