<?xml version="1.0" encoding="UTF-8" standalone="no"?>
<!DOCTYPE svg PUBLIC "-//W3C//DTD SVG 1.1//EN"
 "http://www.w3.org/Graphics/SVG/1.1/DTD/svg11.dtd">
<!-- Generated by graphviz version 14.1.0 (20251206.1807)
 -->
<!-- Title: problema_1_5 Pages: 1 -->
<svg width="320pt" height="498pt"
 viewBox="0.00 0.00 320.00 498.00" xmlns="http://www.w3.org/2000/svg" xmlns:xlink="http://www.w3.org/1999/xlink">
<g id="graph0" class="graph" transform="scale(1 1) rotate(0) translate(4 493.61)">
<title>problema_1_5</title>
<polygon fill="white" stroke="none" points="-4,4 -4,-493.61 315.54,-493.61 315.54,4 -4,4"/>
<!-- inicio -->
<g id="node1" class="node">
<title>inicio</title>
<ellipse fill="#90ee90" stroke="black" cx="155.77" cy="-471.61" rx="31.01" ry="18"/>
<text xml:space="preserve" text-anchor="middle" x="155.77" y="-467.91" font-family="Arial" font-size="11.00">INICIO</text>
</g>
<!-- entrada -->
<g id="node2" class="node">
<title>entrada</title>
<polygon fill="#87ceeb" stroke="black" points="311.54,-417.61 63.75,-417.61 0,-320.61 247.8,-320.61 311.54,-417.61"/>
<text xml:space="preserve" text-anchor="middle" x="155.77" y="-378.91" font-family="Arial" font-size="11.00">Leer:</text>
<text xml:space="preserve" text-anchor="middle" x="155.77" y="-365.41" font-family="Arial" font-size="11.00">RADIO (radio del cilindro)</text>
<text xml:space="preserve" text-anchor="middle" x="155.77" y="-351.91" font-family="Arial" font-size="11.00">ALTURA (altura del cilindro)</text>
</g>
<!-- inicio&#45;&gt;entrada -->
<g id="edge1" class="edge">
<title>inicio&#45;&gt;entrada</title>
<path fill="none" stroke="black" d="M155.77,-453.56C155.77,-446.63 155.77,-438.18 155.77,-429.34"/>
<polygon fill="black" stroke="black" points="159.27,-429.54 155.77,-419.54 152.27,-429.54 159.27,-429.54"/>
</g>
<!-- calc_vol -->
<g id="node3" class="node">
<title>calc_vol</title>
<polygon fill="none" stroke="black" points="238.4,-284.61 73.15,-284.61 73.15,-248.61 238.4,-248.61 238.4,-284.61"/>
<text xml:space="preserve" text-anchor="middle" x="155.77" y="-269.66" font-family="Arial" font-size="11.00">VOL = π × RADIO² × ALTURA</text>
<text xml:space="preserve" text-anchor="middle" x="155.77" y="-256.16" font-family="Arial" font-size="11.00">(Calcular volumen)</text>
</g>
<!-- entrada&#45;&gt;calc_vol -->
<g id="edge2" class="edge">
<title>entrada&#45;&gt;calc_vol</title>
<path fill="none" stroke="black" d="M155.77,-320.22C155.77,-311.96 155.77,-303.61 155.77,-296.07"/>
<polygon fill="black" stroke="black" points="159.27,-296.19 155.77,-286.19 152.27,-296.19 159.27,-296.19"/>
</g>
<!-- calc_area -->
<g id="node4" class="node">
<title>calc_area</title>
<polygon fill="none" stroke="black" points="250.02,-212.61 61.52,-212.61 61.52,-176.61 250.02,-176.61 250.02,-212.61"/>
<text xml:space="preserve" text-anchor="middle" x="155.77" y="-197.66" font-family="Arial" font-size="11.00">AREA = 2 × π × RADIO × ALTURA</text>
<text xml:space="preserve" text-anchor="middle" x="155.77" y="-184.16" font-family="Arial" font-size="11.00">(Calcular área lateral)</text>
</g>
<!-- calc_vol&#45;&gt;calc_area -->
<g id="edge3" class="edge">
<title>calc_vol&#45;&gt;calc_area</title>
<path fill="none" stroke="black" d="M155.77,-248.31C155.77,-241.02 155.77,-232.34 155.77,-224.15"/>
<polygon fill="black" stroke="black" points="159.27,-224.23 155.77,-214.23 152.27,-224.23 159.27,-224.23"/>
</g>
<!-- salida -->
<g id="node5" class="node">
<title>salida</title>
<polygon fill="#ffb6c1" stroke="black" points="164.47,-72.09 170.22,-72.28 175.92,-72.56 181.53,-72.94 187.04,-73.4 192.42,-73.96 197.65,-74.6 202.71,-75.33 207.58,-76.15 212.25,-77.05 216.69,-78.02 220.9,-79.08 224.85,-80.21 228.54,-81.41 231.95,-82.68 235.07,-84.02 237.91,-85.41 240.44,-86.87 242.67,-88.38 244.59,-89.93 246.2,-91.53 247.51,-93.17 248.51,-94.85 249.2,-96.56 249.6,-98.3 249.71,-100.05 249.53,-101.83 249.08,-103.61 248.36,-105.41 247.38,-107.2 246.15,-109 244.69,-110.79 243,-112.56 241.1,-114.32 239.01,-116.05 236.72,-117.76 234.27,-119.44 231.65,-121.08 228.88,-122.68 225.98,-124.24 222.96,-125.74 219.82,-127.2 216.58,-128.59 213.25,-129.93 209.84,-131.2 206.36,-132.4 202.81,-133.53 199.21,-134.59 195.57,-135.57 191.88,-136.47 188.16,-137.28 184.41,-138.01 180.63,-138.66 176.84,-139.21 173.03,-139.68 169.21,-140.05 165.37,-140.33 161.54,-140.52 157.69,-140.61 153.85,-140.61 150.01,-140.52 146.17,-140.33 142.34,-140.05 138.52,-139.68 134.71,-139.21 130.91,-138.66 127.14,-138.01 123.39,-137.28 119.67,-136.47 115.98,-135.57 112.33,-134.59 108.73,-133.53 105.19,-132.4 101.71,-131.2 98.3,-129.93 94.97,-128.59 91.73,-127.2 88.59,-125.74 85.56,-124.24 82.66,-122.68 79.9,-121.08 77.28,-119.44 74.82,-117.76 72.54,-116.05 70.44,-114.32 68.54,-112.56 66.86,-110.79 65.39,-109 64.17,-107.2 63.19,-105.41 62.46,-103.61 62.01,-101.83 61.83,-100.05 61.94,-98.3 62.34,-96.56 63.04,-94.85 64.04,-93.17 65.34,-91.53 66.96,-89.93 68.88,-88.38 71.11,-86.87 73.64,-85.41 76.47,-84.02 79.6,-82.68 83.01,-81.41 86.69,-80.21 90.65,-79.08 94.85,-78.02 99.29,-77.05 103.96,-76.15 108.83,-75.33 113.9,-74.6 119.13,-73.96 124.51,-73.4 130.01,-72.94 135.63,-72.56 141.32,-72.28 147.08,-72.09 152.87,-72 158.67,-72 164.47,-72.09"/>
<text xml:space="preserve" text-anchor="middle" x="155.77" y="-116.11" font-family="Arial" font-size="11.00">Imprimir:</text>
<text xml:space="preserve" text-anchor="middle" x="155.77" y="-102.61" font-family="Arial" font-size="11.00">&quot;Volumen: &quot;, VOL</text>
<text xml:space="preserve" text-anchor="middle" x="155.77" y="-89.11" font-family="Arial" font-size="11.00">&quot;Área Lateral: &quot;, AREA</text>
</g>
<!-- calc_area&#45;&gt;salida -->
<g id="edge4" class="edge">
<title>calc_area&#45;&gt;salida</title>
<path fill="none" stroke="black" d="M155.77,-176.15C155.77,-169.17 155.77,-160.79 155.77,-152.31"/>
<polygon fill="black" stroke="black" points="159.27,-152.32 155.77,-142.32 152.27,-152.32 159.27,-152.32"/>
</g>
<!-- fin -->
<g id="node6" class="node">
<title>fin</title>
<ellipse fill="#ff6b6b" stroke="black" cx="155.77" cy="-18" rx="27" ry="18"/>
<text xml:space="preserve" text-anchor="middle" x="155.77" y="-14.3" font-family="Arial" font-size="11.00">FIN</text>
</g>
<!-- salida&#45;&gt;fin -->
<g id="edge5" class="edge">
<title>salida&#45;&gt;fin</title>
<path fill="none" stroke="black" d="M155.77,-71.69C155.77,-63.74 155.77,-55.33 155.77,-47.63"/>
<polygon fill="black" stroke="black" points="159.27,-47.77 155.77,-37.77 152.27,-47.77 159.27,-47.77"/>
</g>
</g>
</svg>
