<?xml version="1.0" encoding="UTF-8" standalone="no"?>
<!DOCTYPE svg PUBLIC "-//W3C//DTD SVG 1.1//EN"
 "http://www.w3.org/Graphics/SVG/1.1/DTD/svg11.dtd">
<!-- Generated by graphviz version 14.1.0 (20251206.1807)
 -->
<!-- Title: ps_4_18 Pages: 1 -->
<svg width="407pt" height="795pt"
 viewBox="0.00 0.00 407.00 795.00" xmlns="http://www.w3.org/2000/svg" xmlns:xlink="http://www.w3.org/1999/xlink">
<g id="graph0" class="graph" transform="scale(1 1) rotate(0) translate(4 791.01)">
<title>ps_4_18</title>
<polygon fill="white" stroke="none" points="-4,4 -4,-791.01 403.13,-791.01 403.13,4 -4,4"/>
<!-- inicio -->
<g id="node1" class="node">
<title>inicio</title>
<ellipse fill="#90ee90" stroke="black" cx="245.25" cy="-769.01" rx="31.01" ry="18"/>
<text xml:space="preserve" text-anchor="middle" x="245.25" y="-765.31" font-family="Arial" font-size="11.00">INICIO</text>
</g>
<!-- entrada -->
<g id="node2" class="node">
<title>entrada</title>
<polygon fill="#87ceeb" stroke="black" points="383.14,-714.01 163.79,-714.01 107.36,-644.01 326.71,-644.01 383.14,-714.01"/>
<text xml:space="preserve" text-anchor="middle" x="245.25" y="-682.06" font-family="Arial" font-size="11.00">Leer N</text>
<text xml:space="preserve" text-anchor="middle" x="245.25" y="-668.56" font-family="Arial" font-size="11.00">(Dimensión de la matriz)</text>
</g>
<!-- inicio&#45;&gt;entrada -->
<g id="edge1" class="edge">
<title>inicio&#45;&gt;entrada</title>
<path fill="none" stroke="black" d="M245.25,-750.63C245.25,-743.45 245.25,-734.77 245.25,-725.98"/>
<polygon fill="black" stroke="black" points="248.75,-725.99 245.25,-715.99 241.75,-725.99 248.75,-725.99"/>
</g>
<!-- crear -->
<g id="node3" class="node">
<title>crear</title>
<polygon fill="none" stroke="black" points="302.38,-607.01 188.12,-607.01 188.12,-571.01 302.38,-571.01 302.38,-607.01"/>
<text xml:space="preserve" text-anchor="middle" x="245.25" y="-585.31" font-family="Arial" font-size="11.00">Crear matriz A[N][N]</text>
</g>
<!-- entrada&#45;&gt;crear -->
<g id="edge2" class="edge">
<title>entrada&#45;&gt;crear</title>
<path fill="none" stroke="black" d="M245.25,-643.74C245.25,-635.41 245.25,-626.58 245.25,-618.55"/>
<polygon fill="black" stroke="black" points="248.75,-618.64 245.25,-608.64 241.75,-618.64 248.75,-618.64"/>
</g>
<!-- init_i -->
<g id="node4" class="node">
<title>init_i</title>
<polygon fill="none" stroke="black" points="272.25,-534.01 218.25,-534.01 218.25,-498.01 272.25,-498.01 272.25,-534.01"/>
<text xml:space="preserve" text-anchor="middle" x="245.25" y="-512.31" font-family="Arial" font-size="11.00">I = 0</text>
</g>
<!-- crear&#45;&gt;init_i -->
<g id="edge3" class="edge">
<title>crear&#45;&gt;init_i</title>
<path fill="none" stroke="black" d="M245.25,-570.83C245.25,-563.24 245.25,-554.12 245.25,-545.55"/>
<polygon fill="black" stroke="black" points="248.75,-545.56 245.25,-535.56 241.75,-545.56 248.75,-545.56"/>
</g>
<!-- ciclo_i -->
<g id="node5" class="node">
<title>ciclo_i</title>
<polygon fill="#ffd700" stroke="black" points="245.25,-461.01 198.75,-443.01 245.25,-425.01 291.75,-443.01 245.25,-461.01"/>
<text xml:space="preserve" text-anchor="middle" x="245.25" y="-439.31" font-family="Arial" font-size="11.00">¿I &lt; N?</text>
</g>
<!-- init_i&#45;&gt;ciclo_i -->
<g id="edge4" class="edge">
<title>init_i&#45;&gt;ciclo_i</title>
<path fill="none" stroke="black" d="M245.25,-497.83C245.25,-490.35 245.25,-481.38 245.25,-472.93"/>
<polygon fill="black" stroke="black" points="248.75,-473.05 245.25,-463.05 241.75,-473.05 248.75,-473.05"/>
</g>
<!-- init_j -->
<g id="node6" class="node">
<title>init_j</title>
<polygon fill="none" stroke="black" points="212.25,-365.76 158.25,-365.76 158.25,-329.76 212.25,-329.76 212.25,-365.76"/>
<text xml:space="preserve" text-anchor="middle" x="185.25" y="-344.06" font-family="Arial" font-size="11.00">J = 0</text>
</g>
<!-- ciclo_i&#45;&gt;init_j -->
<g id="edge5" class="edge">
<title>ciclo_i&#45;&gt;init_j</title>
<path fill="none" stroke="black" d="M234.77,-428.63C229.88,-422.21 224.09,-414.34 219.25,-407.01 212.69,-397.08 205.98,-385.84 200.27,-375.91"/>
<polygon fill="black" stroke="black" points="203.45,-374.43 195.48,-367.46 197.36,-377.88 203.45,-374.43"/>
<text xml:space="preserve" text-anchor="middle" x="225.25" y="-393.71" font-family="Times New Roman,serif" font-size="14.00">SÍ</text>
</g>
<!-- salida -->
<g id="node13" class="node">
<title>salida</title>
<polygon fill="#ffb6c1" stroke="black" points="342.07,-323.07 345.92,-323.2 349.73,-323.41 353.49,-323.68 357.18,-324.01 360.78,-324.41 364.28,-324.88 367.67,-325.4 370.93,-325.99 374.05,-326.64 377.03,-327.35 379.84,-328.11 382.49,-328.93 384.96,-329.79 387.24,-330.71 389.33,-331.67 391.22,-332.68 392.92,-333.73 394.41,-334.82 395.7,-335.94 396.78,-337.1 397.65,-338.28 398.32,-339.49 398.79,-340.72 399.06,-341.98 399.13,-343.24 399.01,-344.52 398.7,-345.81 398.22,-347.11 397.57,-348.41 396.74,-349.7 395.76,-350.99 394.64,-352.27 393.37,-353.54 391.96,-354.79 390.43,-356.02 388.79,-357.23 387.04,-358.42 385.19,-359.57 383.24,-360.7 381.22,-361.78 379.12,-362.83 376.95,-363.84 374.72,-364.8 372.44,-365.72 370.11,-366.59 367.74,-367.41 365.33,-368.17 362.89,-368.87 360.42,-369.52 357.93,-370.11 355.42,-370.64 352.89,-371.1 350.35,-371.5 347.8,-371.84 345.24,-372.11 342.68,-372.31 340.11,-372.45 337.54,-372.51 334.96,-372.51 332.39,-372.45 329.82,-372.31 327.26,-372.11 324.7,-371.84 322.15,-371.5 319.61,-371.1 317.08,-370.64 314.57,-370.11 312.08,-369.52 309.61,-368.87 307.17,-368.17 304.76,-367.41 302.39,-366.59 300.06,-365.72 297.78,-364.8 295.55,-363.84 293.38,-362.83 291.28,-361.78 289.26,-360.7 287.31,-359.57 285.46,-358.42 283.71,-357.23 282.07,-356.02 280.54,-354.79 279.13,-353.54 277.86,-352.27 276.74,-350.99 275.76,-349.7 274.93,-348.41 274.28,-347.11 273.8,-345.81 273.49,-344.52 273.37,-343.24 273.44,-341.98 273.71,-340.72 274.18,-339.49 274.85,-338.28 275.72,-337.1 276.8,-335.94 278.09,-334.82 279.58,-333.73 281.28,-332.68 283.17,-331.67 285.26,-330.71 287.54,-329.79 290.01,-328.93 292.66,-328.11 295.47,-327.35 298.45,-326.64 301.57,-325.99 304.83,-325.4 308.22,-324.88 311.72,-324.41 315.32,-324.01 319.01,-323.68 322.77,-323.41 326.58,-323.2 330.43,-323.07 334.31,-323 338.19,-323 342.07,-323.07"/>
<text xml:space="preserve" text-anchor="middle" x="336.25" y="-350.81" font-family="Arial" font-size="11.00">Imprimir</text>
<text xml:space="preserve" text-anchor="middle" x="336.25" y="-337.31" font-family="Arial" font-size="11.00">Matriz A[N][N]</text>
</g>
<!-- ciclo_i&#45;&gt;salida -->
<g id="edge15" class="edge">
<title>ciclo_i&#45;&gt;salida</title>
<path fill="none" stroke="black" d="M257.52,-429.44C270.2,-416.45 290.43,-395.71 307.22,-378.51"/>
<polygon fill="black" stroke="black" points="309.59,-381.09 314.07,-371.48 304.58,-376.2 309.59,-381.09"/>
<text xml:space="preserve" text-anchor="middle" x="303.23" y="-393.71" font-family="Times New Roman,serif" font-size="14.00">NO</text>
</g>
<!-- ciclo_j -->
<g id="node7" class="node">
<title>ciclo_j</title>
<polygon fill="#ffa500" stroke="black" points="169.25,-286 120.76,-268 169.25,-250 217.74,-268 169.25,-286"/>
<text xml:space="preserve" text-anchor="middle" x="169.25" y="-264.3" font-family="Arial" font-size="11.00">¿J &lt; N?</text>
</g>
<!-- init_j&#45;&gt;ciclo_j -->
<g id="edge6" class="edge">
<title>init_j&#45;&gt;ciclo_j</title>
<path fill="none" stroke="black" d="M181.7,-329.5C179.7,-319.77 177.15,-307.4 174.88,-296.38"/>
<polygon fill="black" stroke="black" points="178.32,-295.72 172.88,-286.63 171.46,-297.13 178.32,-295.72"/>
</g>
<!-- comp -->
<g id="node8" class="node">
<title>comp</title>
<polygon fill="none" stroke="black" points="99.25,-197.5 55.39,-179.5 99.25,-161.5 143.11,-179.5 99.25,-197.5"/>
<text xml:space="preserve" text-anchor="middle" x="99.25" y="-175.8" font-family="Arial" font-size="11.00">¿I = J?</text>
</g>
<!-- ciclo_j&#45;&gt;comp -->
<g id="edge7" class="edge">
<title>ciclo_j&#45;&gt;comp</title>
<path fill="none" stroke="black" d="M158.62,-253.86C147.56,-240.19 130.05,-218.56 116.9,-202.32"/>
<polygon fill="black" stroke="black" points="119.72,-200.23 110.7,-194.65 114.27,-204.63 119.72,-200.23"/>
<text xml:space="preserve" text-anchor="middle" x="146.52" y="-218.7" font-family="Times New Roman,serif" font-size="14.00">SÍ</text>
</g>
<!-- inc_i -->
<g id="node12" class="node">
<title>inc_i</title>
<polygon fill="none" stroke="black" points="263.25,-197.5 209.25,-197.5 209.25,-161.5 263.25,-161.5 263.25,-197.5"/>
<text xml:space="preserve" text-anchor="middle" x="236.25" y="-175.8" font-family="Arial" font-size="11.00">I = I + 1</text>
</g>
<!-- ciclo_j&#45;&gt;inc_i -->
<g id="edge13" class="edge">
<title>ciclo_j&#45;&gt;inc_i</title>
<path fill="none" stroke="black" d="M179.72,-253.48C189.35,-241.05 203.9,-222.26 215.83,-206.86"/>
<polygon fill="black" stroke="black" points="218.57,-209.04 221.93,-198.99 213.04,-204.76 218.57,-209.04"/>
<text xml:space="preserve" text-anchor="middle" x="218.5" y="-218.7" font-family="Times New Roman,serif" font-size="14.00">NO</text>
</g>
<!-- asigna_1 -->
<g id="node9" class="node">
<title>asigna_1</title>
<polygon fill="none" stroke="black" points="62.5,-109 0,-109 0,-73 62.5,-73 62.5,-109"/>
<text xml:space="preserve" text-anchor="middle" x="31.25" y="-87.3" font-family="Arial" font-size="11.00">A[I][J] = 1</text>
</g>
<!-- comp&#45;&gt;asigna_1 -->
<g id="edge8" class="edge">
<title>comp&#45;&gt;asigna_1</title>
<path fill="none" stroke="black" d="M88.92,-165.36C79.11,-152.88 64.07,-133.75 51.81,-118.15"/>
<polygon fill="black" stroke="black" points="54.84,-116.34 45.91,-110.65 49.34,-120.67 54.84,-116.34"/>
<text xml:space="preserve" text-anchor="middle" x="77.34" y="-130.2" font-family="Times New Roman,serif" font-size="14.00">SÍ</text>
</g>
<!-- asigna_0 -->
<g id="node10" class="node">
<title>asigna_0</title>
<polygon fill="none" stroke="black" points="143.5,-109 81,-109 81,-73 143.5,-73 143.5,-109"/>
<text xml:space="preserve" text-anchor="middle" x="112.25" y="-87.3" font-family="Arial" font-size="11.00">A[I][J] = 0</text>
</g>
<!-- comp&#45;&gt;asigna_0 -->
<g id="edge9" class="edge">
<title>comp&#45;&gt;asigna_0</title>
<path fill="none" stroke="black" d="M101.7,-162.23C103.45,-150.57 105.85,-134.56 107.93,-120.77"/>
<polygon fill="black" stroke="black" points="111.39,-121.29 109.41,-110.88 104.46,-120.25 111.39,-121.29"/>
<text xml:space="preserve" text-anchor="middle" x="116.66" y="-130.2" font-family="Times New Roman,serif" font-size="14.00">NO</text>
</g>
<!-- inc_j -->
<g id="node11" class="node">
<title>inc_j</title>
<polygon fill="none" stroke="black" points="141.25,-36 83.25,-36 83.25,0 141.25,0 141.25,-36"/>
<text xml:space="preserve" text-anchor="middle" x="112.25" y="-14.3" font-family="Arial" font-size="11.00">J = J + 1</text>
</g>
<!-- asigna_1&#45;&gt;inc_j -->
<g id="edge10" class="edge">
<title>asigna_1&#45;&gt;inc_j</title>
<path fill="none" stroke="black" d="M50.86,-72.81C60.83,-64.07 73.14,-53.28 84.1,-43.67"/>
<polygon fill="black" stroke="black" points="86.19,-46.5 91.4,-37.27 81.58,-41.23 86.19,-46.5"/>
</g>
<!-- asigna_0&#45;&gt;inc_j -->
<g id="edge11" class="edge">
<title>asigna_0&#45;&gt;inc_j</title>
<path fill="none" stroke="black" d="M112.25,-72.81C112.25,-65.23 112.25,-56.1 112.25,-47.54"/>
<polygon fill="black" stroke="black" points="115.75,-47.54 112.25,-37.54 108.75,-47.54 115.75,-47.54"/>
</g>
<!-- inc_j&#45;&gt;ciclo_j -->
<g id="edge12" class="edge">
<title>inc_j&#45;&gt;ciclo_j</title>
<path fill="none" stroke="black" d="M129.1,-36.48C137.58,-46.38 147.12,-59.47 152.25,-73 173.45,-128.91 173.47,-200.16 171.46,-238.87"/>
<polygon fill="black" stroke="black" points="167.97,-238.53 170.85,-248.73 174.96,-238.96 167.97,-238.53"/>
</g>
<!-- inc_i&#45;&gt;ciclo_i -->
<g id="edge14" class="edge">
<title>inc_i&#45;&gt;ciclo_i</title>
<path fill="none" stroke="black" d="M236.84,-197.72C238.36,-241.85 242.4,-359.29 244.27,-413.66"/>
<polygon fill="black" stroke="black" points="240.77,-413.47 244.61,-423.34 247.76,-413.23 240.77,-413.47"/>
</g>
<!-- fin -->
<g id="node14" class="node">
<title>fin</title>
<ellipse fill="#ff6b6b" stroke="black" cx="336.25" cy="-268" rx="27" ry="18"/>
<text xml:space="preserve" text-anchor="middle" x="336.25" y="-264.3" font-family="Arial" font-size="11.00">FIN</text>
</g>
<!-- salida&#45;&gt;fin -->
<g id="edge16" class="edge">
<title>salida&#45;&gt;fin</title>
<path fill="none" stroke="black" d="M336.25,-322.58C336.25,-314.67 336.25,-305.81 336.25,-297.61"/>
<polygon fill="black" stroke="black" points="339.75,-297.76 336.25,-287.76 332.75,-297.76 339.75,-297.76"/>
</g>
</g>
</svg>
