<?xml version="1.0" standalone="no"?>
<svg xmlns="http://www.w3.org/2000/svg" xmlns:xlink="http://www.w3.org/1999/xlink" width="206pt" height="449pt" viewBox="0.00 0.00 205.84 449.47">
<g id="graph0" class="graph" transform="translate(47.97499484797805,403.44247509440925) scale(0.6839676519512468)" data-name="problema_1_5">

<polygon fill="white" stroke="none" points="-4,4 -4,-445.47 201.84,-445.47 201.84,4 -4,4"/>
<!-- inicio -->
<g id="node1" class="node" pointer-events="visible" data-name="inicio">

<ellipse fill="#90ee90" stroke="black" cx="98.92" cy="-423.47" rx="30.89" ry="18"/>
<text text-anchor="middle" x="98.92" y="-420.17" font-family="Arial" font-size="11.00">INICIO</text>
</g>
<!-- entrada -->
<g id="node2" class="node" pointer-events="visible" data-name="entrada">

<polygon fill="#87ceeb" stroke="black" points="163.92,-369.37 60.52,-369.37 33.92,-300.77 137.32,-300.77 163.92,-369.37"/>
<text text-anchor="middle" x="98.92" y="-338.37" font-family="Arial" font-size="11.00">RADIO</text>
<text text-anchor="middle" x="98.92" y="-325.17" font-family="Arial" font-size="11.00">ALTURA </text>
</g>
<!-- inicio&#45;&gt;entrada -->
<g id="edge1" class="edge" data-name="inicio-&gt;entrada">

<path fill="none" stroke="black" d="M98.92,-404.98C98.92,-398 98.92,-389.6 98.92,-381.12"/>
<polygon fill="black" stroke="black" points="102.42,-381.12 98.92,-371.12 95.42,-381.12 102.42,-381.12"/>
</g>
<!-- calc_vol -->
<g id="node3" class="node" pointer-events="visible" data-name="calc_vol">

<polygon fill="none" stroke="black" points="197.77,-264.67 0.08,-264.67 0.08,-228.67 197.77,-228.67 197.77,-264.67"/>
<text text-anchor="middle" x="98.92" y="-243.37" font-family="Arial" font-size="11.00">VOLUMEN = π × RADIO² × ALTURA</text>
</g>
<!-- entrada&#45;&gt;calc_vol -->
<g id="edge2" class="edge" data-name="entrada-&gt;calc_vol">

<path fill="none" stroke="black" d="M98.92,-300.41C98.92,-292.45 98.92,-284.04 98.92,-276.32"/>
<polygon fill="black" stroke="black" points="102.42,-276.46 98.92,-266.46 95.42,-276.46 102.42,-276.46"/>
</g>
<!-- calc_area -->
<g id="node4" class="node" pointer-events="visible" data-name="calc_area">

<polygon fill="none" stroke="black" points="191.55,-192.67 6.29,-192.67 6.29,-156.67 191.55,-156.67 191.55,-192.67"/>
<text text-anchor="middle" x="98.92" y="-171.37" font-family="Arial" font-size="11.00">AREA = 2 × π × RADIO × ALTURA</text>
</g>
<!-- calc_vol&#45;&gt;calc_area -->
<g id="edge3" class="edge" data-name="calc_vol-&gt;calc_area">

<path fill="none" stroke="black" d="M98.92,-228.36C98.92,-221.07 98.92,-212.39 98.92,-204.2"/>
<polygon fill="black" stroke="black" points="102.42,-204.28 98.92,-194.28 95.42,-204.28 102.42,-204.28"/>
</g>
<!-- salida -->
<g id="node5" class="node" pointer-events="visible" data-name="salida">

<polygon fill="#ffb6c1" stroke="black" points="103.28,-72.23 106.16,-72.36 109.02,-72.56 111.83,-72.83 114.59,-73.15 117.29,-73.54 119.91,-74 122.45,-74.51 124.89,-75.09 127.23,-75.72 129.46,-76.41 131.56,-77.15 133.55,-77.95 135.39,-78.8 137.1,-79.69 138.67,-80.63 140.09,-81.62 141.36,-82.64 142.47,-83.7 143.44,-84.8 144.25,-85.93 144.9,-87.08 145.4,-88.26 145.75,-89.47 145.95,-90.69 146.01,-91.93 145.92,-93.18 145.69,-94.44 145.33,-95.7 144.84,-96.97 144.22,-98.23 143.49,-99.49 142.64,-100.74 141.69,-101.98 140.64,-103.2 139.5,-104.4 138.26,-105.58 136.95,-106.74 135.57,-107.87 134.11,-108.96 132.6,-110.03 131.02,-111.05 129.4,-112.03 127.73,-112.97 126.02,-113.87 124.28,-114.72 122.5,-115.51 120.69,-116.26 118.87,-116.95 117.02,-117.58 115.15,-118.15 113.27,-118.67 111.38,-119.12 109.48,-119.51 107.57,-119.84 105.65,-120.1 103.73,-120.3 101.81,-120.43 99.89,-120.5 97.96,-120.5 96.03,-120.43 94.11,-120.3 92.19,-120.1 90.27,-119.84 88.36,-119.51 86.46,-119.12 84.57,-118.67 82.69,-118.15 80.82,-117.58 78.98,-116.95 77.15,-116.26 75.34,-115.51 73.57,-114.72 71.82,-113.87 70.11,-112.97 68.44,-112.03 66.82,-111.05 65.25,-110.03 63.73,-108.96 62.28,-107.87 60.89,-106.74 59.58,-105.58 58.35,-104.4 57.2,-103.2 56.15,-101.98 55.2,-100.74 54.36,-99.49 53.62,-98.23 53.01,-96.97 52.52,-95.7 52.15,-94.44 51.93,-93.18 51.84,-91.93 51.89,-90.69 52.09,-89.47 52.44,-88.26 52.94,-87.08 53.6,-85.93 54.41,-84.8 55.37,-83.7 56.49,-82.64 57.76,-81.62 59.17,-80.63 60.74,-79.69 62.45,-78.8 64.3,-77.95 66.28,-77.15 68.39,-76.41 70.61,-75.72 72.95,-75.09 75.4,-74.51 77.93,-74 80.55,-73.54 83.25,-73.15 86.01,-72.83 88.83,-72.56 91.68,-72.36 94.56,-72.23 97.47,-72.17 100.38,-72.17 103.28,-72.23"/>
<text text-anchor="middle" x="98.92" y="-99.63" font-family="Arial" font-size="11.00"> Volumen</text>
<text text-anchor="middle" x="98.92" y="-86.43" font-family="Arial" font-size="11.00"> AREA</text>
</g>
<!-- calc_area&#45;&gt;salida -->
<g id="edge4" class="edge" data-name="calc_area-&gt;salida">

<path fill="none" stroke="black" d="M98.92,-156.34C98.92,-149.23 98.92,-140.72 98.92,-132.41"/>
<polygon fill="black" stroke="black" points="102.42,-132.46 98.92,-122.46 95.42,-132.46 102.42,-132.46"/>
</g>
<!-- fin -->
<g id="node6" class="node" pointer-events="visible" data-name="fin">

<ellipse fill="#ff6b6b" stroke="black" cx="98.92" cy="-18" rx="27" ry="18"/>
<text text-anchor="middle" x="98.92" y="-14.7" font-family="Arial" font-size="11.00">FIN</text>
</g>
<!-- salida&#45;&gt;fin -->
<g id="edge5" class="edge" data-name="salida-&gt;fin">

<path fill="none" stroke="black" d="M98.92,-72.02C98.92,-64.24 98.92,-55.49 98.92,-47.37"/>
<polygon fill="black" stroke="black" points="102.42,-47.63 98.92,-37.63 95.42,-47.63 102.42,-47.63"/>
</g>
</g>
</svg>