<?xml version="1.0" encoding="UTF-8" standalone="no"?>
<!DOCTYPE svg PUBLIC "-//W3C//DTD SVG 1.1//EN"
 "http://www.w3.org/Graphics/SVG/1.1/DTD/svg11.dtd">
<!-- Generated by graphviz version 14.1.0 (20251206.1807)
 -->
<!-- Title: problema_4_13 Pages: 1 -->
<svg width="622pt" height="1356pt"
 viewBox="0.00 0.00 622.00 1356.00" xmlns="http://www.w3.org/2000/svg" xmlns:xlink="http://www.w3.org/1999/xlink">
<g id="graph0" class="graph" transform="scale(1 1) rotate(0) translate(4 1352.01)">
<title>problema_4_13</title>
<polygon fill="white" stroke="none" points="-4,4 -4,-1352.01 618.43,-1352.01 618.43,4 -4,4"/>
<!-- inicio -->
<g id="node1" class="node">
<title>inicio</title>
<ellipse fill="#90ee90" stroke="black" cx="249.43" cy="-1330.01" rx="31.01" ry="18"/>
<text xml:space="preserve" text-anchor="middle" x="249.43" y="-1326.31" font-family="Arial" font-size="11.00">INICIO</text>
</g>
<!-- entrada_n -->
<g id="node2" class="node">
<title>entrada_n</title>
<polygon fill="#87ceeb" stroke="black" points="387.32,-1275.01 167.97,-1275.01 111.54,-1205.01 330.89,-1205.01 387.32,-1275.01"/>
<text xml:space="preserve" text-anchor="middle" x="249.43" y="-1243.06" font-family="Arial" font-size="11.00">Leer N</text>
<text xml:space="preserve" text-anchor="middle" x="249.43" y="-1229.56" font-family="Arial" font-size="11.00">(Dimensión de la matriz)</text>
</g>
<!-- inicio&#45;&gt;entrada_n -->
<g id="edge1" class="edge">
<title>inicio&#45;&gt;entrada_n</title>
<path fill="none" stroke="black" d="M249.43,-1311.63C249.43,-1304.45 249.43,-1295.77 249.43,-1286.98"/>
<polygon fill="black" stroke="black" points="252.93,-1286.99 249.43,-1276.99 245.93,-1286.99 252.93,-1286.99"/>
</g>
<!-- validar -->
<g id="node3" class="node">
<title>validar</title>
<polygon fill="#ffd700" stroke="black" points="249.43,-1168.01 147.38,-1150.01 249.43,-1132.01 351.47,-1150.01 249.43,-1168.01"/>
<text xml:space="preserve" text-anchor="middle" x="249.43" y="-1146.31" font-family="Arial" font-size="11.00">¿(N ≥ 1) Y (N ≤ 50)?</text>
</g>
<!-- entrada_n&#45;&gt;validar -->
<g id="edge2" class="edge">
<title>entrada_n&#45;&gt;validar</title>
<path fill="none" stroke="black" d="M249.43,-1204.74C249.43,-1196.41 249.43,-1187.58 249.43,-1179.55"/>
<polygon fill="black" stroke="black" points="252.93,-1179.64 249.43,-1169.64 245.93,-1179.64 252.93,-1179.64"/>
</g>
<!-- error -->
<g id="node4" class="node">
<title>error</title>
<polygon fill="#ffb6c1" stroke="black" points="184.87,-976.07 189.14,-976.2 193.36,-976.41 197.53,-976.68 201.61,-977.01 205.6,-977.41 209.48,-977.88 213.23,-978.4 216.85,-978.99 220.31,-979.64 223.6,-980.35 226.72,-981.11 229.65,-981.93 232.38,-982.79 234.91,-983.71 237.23,-984.67 239.33,-985.68 241.21,-986.73 242.86,-987.82 244.28,-988.94 245.48,-990.1 246.45,-991.28 247.19,-992.49 247.71,-993.72 248,-994.98 248.08,-996.24 247.95,-997.52 247.61,-998.81 247.08,-1000.11 246.35,-1001.41 245.44,-1002.7 244.36,-1003.99 243.11,-1005.27 241.7,-1006.54 240.14,-1007.79 238.45,-1009.02 236.63,-1010.23 234.69,-1011.42 232.64,-1012.57 230.49,-1013.7 228.24,-1014.78 225.92,-1015.83 223.52,-1016.84 221.05,-1017.8 218.52,-1018.72 215.94,-1019.59 213.31,-1020.41 210.64,-1021.17 207.94,-1021.87 205.2,-1022.52 202.44,-1023.11 199.66,-1023.64 196.86,-1024.1 194.05,-1024.5 191.22,-1024.84 188.39,-1025.11 185.55,-1025.31 182.7,-1025.45 179.85,-1025.51 177,-1025.51 174.15,-1025.45 171.31,-1025.31 168.47,-1025.11 165.63,-1024.84 162.81,-1024.5 159.99,-1024.1 157.2,-1023.64 154.41,-1023.11 151.66,-1022.52 148.92,-1021.87 146.22,-1021.17 143.55,-1020.41 140.92,-1019.59 138.34,-1018.72 135.81,-1017.8 133.34,-1016.84 130.94,-1015.83 128.61,-1014.78 126.37,-1013.7 124.22,-1012.57 122.17,-1011.42 120.23,-1010.23 118.4,-1009.02 116.71,-1007.79 115.16,-1006.54 113.75,-1005.27 112.5,-1003.99 111.41,-1002.7 110.5,-1001.41 109.78,-1000.11 109.24,-998.81 108.91,-997.52 108.77,-996.24 108.85,-994.98 109.15,-993.72 109.67,-992.49 110.41,-991.28 111.38,-990.1 112.57,-988.94 114,-987.82 115.65,-986.73 117.53,-985.68 119.63,-984.67 121.94,-983.71 124.47,-982.79 127.21,-981.93 130.14,-981.11 133.26,-980.35 136.55,-979.64 140.01,-978.99 143.62,-978.4 147.38,-977.88 151.26,-977.41 155.25,-977.01 159.33,-976.68 163.49,-976.41 167.72,-976.2 171.98,-976.07 176.28,-976 180.58,-976 184.87,-976.07"/>
<text xml:space="preserve" text-anchor="middle" x="178.43" y="-1003.81" font-family="Arial" font-size="11.00">Imprimir:</text>
<text xml:space="preserve" text-anchor="middle" x="178.43" y="-990.31" font-family="Arial" font-size="11.00">&quot;Error en datos&quot;</text>
</g>
<!-- validar&#45;&gt;error -->
<g id="edge4" class="edge">
<title>validar&#45;&gt;error</title>
<path fill="none" stroke="black" d="M241.69,-1132.98C230.47,-1109.7 209.42,-1066.03 194.69,-1035.48"/>
<polygon fill="black" stroke="black" points="197.92,-1034.13 190.43,-1026.64 191.62,-1037.17 197.92,-1034.13"/>
<text xml:space="preserve" text-anchor="middle" x="241.22" y="-1100.71" font-family="Times New Roman,serif" font-size="14.00">NO</text>
</g>
<!-- titulo_leer -->
<g id="node5" class="node">
<title>titulo_leer</title>
<polygon fill="#ffd700" stroke="black" points="396.93,-1079.51 281.93,-1079.51 281.93,-1043.51 396.93,-1043.51 396.93,-1079.51"/>
<text xml:space="preserve" text-anchor="middle" x="339.43" y="-1057.81" font-family="Arial" font-size="11.00">PASO 1: Leer Matriz</text>
</g>
<!-- validar&#45;&gt;titulo_leer -->
<g id="edge3" class="edge">
<title>validar&#45;&gt;titulo_leer</title>
<path fill="none" stroke="black" d="M264.7,-1134.34C277.9,-1121.65 297.28,-1103.02 313,-1087.92"/>
<polygon fill="black" stroke="black" points="315.41,-1090.45 320.2,-1081 310.56,-1085.4 315.41,-1090.45"/>
<text xml:space="preserve" text-anchor="middle" x="308.49" y="-1100.71" font-family="Times New Roman,serif" font-size="14.00">SÍ</text>
</g>
<!-- fin -->
<g id="node29" class="node">
<title>fin</title>
<ellipse fill="#ff6b6b" stroke="black" cx="80.43" cy="-252.5" rx="27" ry="18"/>
<text xml:space="preserve" text-anchor="middle" x="80.43" y="-248.8" font-family="Arial" font-size="11.00">FIN</text>
</g>
<!-- error&#45;&gt;fin -->
<g id="edge5" class="edge">
<title>error&#45;&gt;fin</title>
<path fill="none" stroke="black" d="M135.73,-979.49C108.55,-963.32 78.43,-937.77 78.43,-904 78.43,-904 78.43,-904 78.43,-353 78.43,-329.11 79.01,-301.99 79.55,-282.11"/>
<polygon fill="black" stroke="black" points="83.04,-282.36 79.83,-272.27 76.05,-282.16 83.04,-282.36"/>
</g>
<!-- init_i_leer -->
<g id="node6" class="node">
<title>init_i_leer</title>
<polygon fill="none" stroke="black" points="407.43,-958 353.43,-958 353.43,-922 407.43,-922 407.43,-958"/>
<text xml:space="preserve" text-anchor="middle" x="380.43" y="-936.3" font-family="Arial" font-size="11.00">I = 1</text>
</g>
<!-- titulo_leer&#45;&gt;init_i_leer -->
<g id="edge6" class="edge">
<title>titulo_leer&#45;&gt;init_i_leer</title>
<path fill="none" stroke="black" d="M345.39,-1043.14C352.04,-1023.75 362.89,-992.11 370.76,-969.18"/>
<polygon fill="black" stroke="black" points="374.03,-970.43 373.97,-959.83 367.41,-968.15 374.03,-970.43"/>
</g>
<!-- ciclo_i_leer -->
<g id="node7" class="node">
<title>ciclo_i_leer</title>
<polygon fill="none" stroke="black" points="414.43,-885 368.59,-867 414.43,-849 460.27,-867 414.43,-885"/>
<text xml:space="preserve" text-anchor="middle" x="414.43" y="-863.3" font-family="Arial" font-size="11.00">¿I ≤ N?</text>
</g>
<!-- init_i_leer&#45;&gt;ciclo_i_leer -->
<g id="edge7" class="edge">
<title>init_i_leer&#45;&gt;ciclo_i_leer</title>
<path fill="none" stroke="black" d="M388.66,-921.81C392.83,-913.11 397.97,-902.38 402.56,-892.79"/>
<polygon fill="black" stroke="black" points="405.61,-894.53 406.77,-884 399.29,-891.5 405.61,-894.53"/>
</g>
<!-- init_j_leer -->
<g id="node8" class="node">
<title>init_j_leer</title>
<polygon fill="none" stroke="black" points="512.43,-796.5 458.43,-796.5 458.43,-760.5 512.43,-760.5 512.43,-796.5"/>
<text xml:space="preserve" text-anchor="middle" x="485.43" y="-774.8" font-family="Arial" font-size="11.00">J = 1</text>
</g>
<!-- ciclo_i_leer&#45;&gt;init_j_leer -->
<g id="edge8" class="edge">
<title>ciclo_i_leer&#45;&gt;init_j_leer</title>
<path fill="none" stroke="black" d="M425.21,-852.86C435.46,-840.38 451.16,-821.25 463.96,-805.65"/>
<polygon fill="black" stroke="black" points="466.5,-808.08 470.14,-798.13 461.09,-803.63 466.5,-808.08"/>
<text xml:space="preserve" text-anchor="middle" x="462.29" y="-817.7" font-family="Times New Roman,serif" font-size="14.00">SÍ</text>
</g>
<!-- titulo_swap -->
<g id="node13" class="node">
<title>titulo_swap</title>
<polygon fill="#ffd700" stroke="black" points="399.3,-796.5 223.55,-796.5 223.55,-760.5 399.3,-760.5 399.3,-796.5"/>
<text xml:space="preserve" text-anchor="middle" x="311.43" y="-774.8" font-family="Arial" font-size="11.00">PASO 2: Intercambiar Renglones</text>
</g>
<!-- ciclo_i_leer&#45;&gt;titulo_swap -->
<g id="edge15" class="edge">
<title>ciclo_i_leer&#45;&gt;titulo_swap</title>
<path fill="none" stroke="black" d="M400.54,-854.33C385.3,-841.54 360.4,-820.63 340.79,-804.16"/>
<polygon fill="black" stroke="black" points="343.28,-801.68 333.37,-797.93 338.78,-807.04 343.28,-801.68"/>
<text xml:space="preserve" text-anchor="middle" x="381.9" y="-817.7" font-family="Times New Roman,serif" font-size="14.00">NO</text>
</g>
<!-- ciclo_j_leer -->
<g id="node9" class="node">
<title>ciclo_j_leer</title>
<polygon fill="none" stroke="black" points="507.43,-723.5 459.6,-705.5 507.43,-687.5 555.25,-705.5 507.43,-723.5"/>
<text xml:space="preserve" text-anchor="middle" x="507.43" y="-701.8" font-family="Arial" font-size="11.00">¿J ≤ N?</text>
</g>
<!-- init_j_leer&#45;&gt;ciclo_j_leer -->
<g id="edge9" class="edge">
<title>init_j_leer&#45;&gt;ciclo_j_leer</title>
<path fill="none" stroke="black" d="M490.75,-760.31C493.29,-752.12 496.39,-742.13 499.22,-732.99"/>
<polygon fill="black" stroke="black" points="502.54,-734.11 502.15,-723.52 495.85,-732.04 502.54,-734.11"/>
</g>
<!-- leer_elem -->
<g id="node10" class="node">
<title>leer_elem</title>
<polygon fill="#87ceeb" stroke="black" points="497.35,-635 398.85,-635 373.51,-599 472.01,-599 497.35,-635"/>
<text xml:space="preserve" text-anchor="middle" x="435.43" y="-613.3" font-family="Arial" font-size="11.00">Leer A[I][J]</text>
</g>
<!-- ciclo_j_leer&#45;&gt;leer_elem -->
<g id="edge10" class="edge">
<title>ciclo_j_leer&#45;&gt;leer_elem</title>
<path fill="none" stroke="black" d="M496.49,-691.36C486.1,-678.88 470.18,-659.75 457.2,-644.15"/>
<polygon fill="black" stroke="black" points="460.01,-642.07 450.93,-636.62 454.63,-646.54 460.01,-642.07"/>
<text xml:space="preserve" text-anchor="middle" x="483.88" y="-656.2" font-family="Times New Roman,serif" font-size="14.00">SÍ</text>
</g>
<!-- inc_i_leer -->
<g id="node12" class="node">
<title>inc_i_leer</title>
<polygon fill="none" stroke="black" points="614.43,-635 560.43,-635 560.43,-599 614.43,-599 614.43,-635"/>
<text xml:space="preserve" text-anchor="middle" x="587.43" y="-613.3" font-family="Arial" font-size="11.00">I = I + 1</text>
</g>
<!-- ciclo_j_leer&#45;&gt;inc_i_leer -->
<g id="edge13" class="edge">
<title>ciclo_j_leer&#45;&gt;inc_i_leer</title>
<path fill="none" stroke="black" d="M519.23,-691.74C530.89,-679.13 549.06,-659.48 563.71,-643.64"/>
<polygon fill="black" stroke="black" points="566.18,-646.13 570.4,-636.41 561.04,-641.38 566.18,-646.13"/>
<text xml:space="preserve" text-anchor="middle" x="564.34" y="-656.2" font-family="Times New Roman,serif" font-size="14.00">NO</text>
</g>
<!-- inc_j_leer -->
<g id="node11" class="node">
<title>inc_j_leer</title>
<polygon fill="none" stroke="black" points="541.43,-546.5 483.43,-546.5 483.43,-510.5 541.43,-510.5 541.43,-546.5"/>
<text xml:space="preserve" text-anchor="middle" x="512.43" y="-524.8" font-family="Arial" font-size="11.00">J = J + 1</text>
</g>
<!-- leer_elem&#45;&gt;inc_j_leer -->
<g id="edge11" class="edge">
<title>leer_elem&#45;&gt;inc_j_leer</title>
<path fill="none" stroke="black" d="M450.64,-598.91C461.75,-586.43 477,-569.3 489.56,-555.18"/>
<polygon fill="black" stroke="black" points="491.94,-557.78 495.98,-547.98 486.71,-553.12 491.94,-557.78"/>
</g>
<!-- inc_j_leer&#45;&gt;ciclo_j_leer -->
<g id="edge12" class="edge">
<title>inc_j_leer&#45;&gt;ciclo_j_leer</title>
<path fill="none" stroke="black" d="M511.93,-546.93C511.07,-577.14 509.28,-639.52 508.24,-676.08"/>
<polygon fill="black" stroke="black" points="504.75,-675.79 507.96,-685.89 511.74,-675.99 504.75,-675.79"/>
</g>
<!-- inc_i_leer&#45;&gt;ciclo_i_leer -->
<g id="edge14" class="edge">
<title>inc_i_leer&#45;&gt;ciclo_i_leer</title>
<path fill="none" stroke="black" d="M584.77,-635.23C583.14,-645.27 580.89,-658.15 578.43,-669.5 565.33,-729.97 563.37,-751.01 521.43,-796.5 499.55,-820.23 467.92,-839.46 444.72,-851.62"/>
<polygon fill="black" stroke="black" points="443.4,-848.37 436.07,-856.02 446.57,-854.61 443.4,-848.37"/>
</g>
<!-- init_i_swap -->
<g id="node14" class="node">
<title>init_i_swap</title>
<polygon fill="none" stroke="black" points="332.43,-723.5 278.43,-723.5 278.43,-687.5 332.43,-687.5 332.43,-723.5"/>
<text xml:space="preserve" text-anchor="middle" x="305.43" y="-701.8" font-family="Arial" font-size="11.00">I = 1</text>
</g>
<!-- titulo_swap&#45;&gt;init_i_swap -->
<g id="edge16" class="edge">
<title>titulo_swap&#45;&gt;init_i_swap</title>
<path fill="none" stroke="black" d="M309.98,-760.31C309.33,-752.64 308.55,-743.39 307.82,-734.74"/>
<polygon fill="black" stroke="black" points="311.32,-734.71 306.99,-725.04 304.35,-735.3 311.32,-734.71"/>
</g>
<!-- ciclo_i_swap -->
<g id="node15" class="node">
<title>ciclo_i_swap</title>
<polygon fill="#ffa500" stroke="black" points="301.43,-635 247.65,-617 301.43,-599 355.21,-617 301.43,-635"/>
<text xml:space="preserve" text-anchor="middle" x="301.43" y="-613.3" font-family="Arial" font-size="11.00">¿I ≤ N/2?</text>
</g>
<!-- init_i_swap&#45;&gt;ciclo_i_swap -->
<g id="edge17" class="edge">
<title>init_i_swap&#45;&gt;ciclo_i_swap</title>
<path fill="none" stroke="black" d="M304.64,-687.41C304.1,-675.68 303.36,-659.84 302.73,-646.25"/>
<polygon fill="black" stroke="black" points="306.25,-646.39 302.29,-636.57 299.25,-646.72 306.25,-646.39"/>
</g>
<!-- init_j_swap -->
<g id="node16" class="node">
<title>init_j_swap</title>
<polygon fill="none" stroke="black" points="370.43,-546.5 316.43,-546.5 316.43,-510.5 370.43,-510.5 370.43,-546.5"/>
<text xml:space="preserve" text-anchor="middle" x="343.43" y="-524.8" font-family="Arial" font-size="11.00">J = 1</text>
</g>
<!-- ciclo_i_swap&#45;&gt;init_j_swap -->
<g id="edge18" class="edge">
<title>ciclo_i_swap&#45;&gt;init_j_swap</title>
<path fill="none" stroke="black" d="M308.74,-600.93C314.64,-588.78 323.1,-571.37 330.18,-556.78"/>
<polygon fill="black" stroke="black" points="333.16,-558.66 334.38,-548.13 326.87,-555.6 333.16,-558.66"/>
<text xml:space="preserve" text-anchor="middle" x="332.19" y="-567.7" font-family="Times New Roman,serif" font-size="14.00">SÍ</text>
</g>
<!-- titulo_impr -->
<g id="node21" class="node">
<title>titulo_impr</title>
<polygon fill="#ffd700" stroke="black" points="266.55,-546.5 134.3,-546.5 134.3,-510.5 266.55,-510.5 266.55,-546.5"/>
<text xml:space="preserve" text-anchor="middle" x="200.43" y="-524.8" font-family="Arial" font-size="11.00">PASO 3: Imprimir Matriz</text>
</g>
<!-- ciclo_i_swap&#45;&gt;titulo_impr -->
<g id="edge25" class="edge">
<title>ciclo_i_swap&#45;&gt;titulo_impr</title>
<path fill="none" stroke="black" d="M286.96,-603.61C271.98,-590.78 248.19,-570.41 229.34,-554.26"/>
<polygon fill="black" stroke="black" points="231.83,-551.79 221.96,-547.94 227.28,-557.11 231.83,-551.79"/>
<text xml:space="preserve" text-anchor="middle" x="269.72" y="-567.7" font-family="Times New Roman,serif" font-size="14.00">NO</text>
</g>
<!-- ciclo_j_swap -->
<g id="node17" class="node">
<title>ciclo_j_swap</title>
<polygon fill="none" stroke="black" points="370.43,-473.5 322.6,-455.5 370.43,-437.5 418.25,-455.5 370.43,-473.5"/>
<text xml:space="preserve" text-anchor="middle" x="370.43" y="-451.8" font-family="Arial" font-size="11.00">¿J ≤ N?</text>
</g>
<!-- init_j_swap&#45;&gt;ciclo_j_swap -->
<g id="edge19" class="edge">
<title>init_j_swap&#45;&gt;ciclo_j_swap</title>
<path fill="none" stroke="black" d="M349.96,-510.31C353.16,-501.91 357.07,-491.62 360.62,-482.3"/>
<polygon fill="black" stroke="black" points="363.86,-483.61 364.15,-473.02 357.32,-481.12 363.86,-483.61"/>
</g>
<!-- swap -->
<g id="node18" class="node">
<title>swap</title>
<polygon fill="none" stroke="black" points="353.43,-385 217.43,-385 217.43,-323 353.43,-323 353.43,-385"/>
<text xml:space="preserve" text-anchor="middle" x="285.43" y="-370.55" font-family="Arial" font-size="11.00">AUX = A[I][J]</text>
<text xml:space="preserve" text-anchor="middle" x="285.43" y="-357.05" font-family="Arial" font-size="11.00">A[I][J] = A[N&#45;I+1][J]</text>
<text xml:space="preserve" text-anchor="middle" x="285.43" y="-343.55" font-family="Arial" font-size="11.00">A[N&#45;I+1][J] = AUX</text>
<text xml:space="preserve" text-anchor="middle" x="285.43" y="-330.05" font-family="Arial" font-size="11.00">(Intercambiar elementos)</text>
</g>
<!-- ciclo_j_swap&#45;&gt;swap -->
<g id="edge20" class="edge">
<title>ciclo_j_swap&#45;&gt;swap</title>
<path fill="none" stroke="black" d="M359.32,-441.49C348.97,-429.38 333.02,-410.7 318.58,-393.8"/>
<polygon fill="black" stroke="black" points="321.34,-391.65 312.18,-386.32 316.02,-396.2 321.34,-391.65"/>
<text xml:space="preserve" text-anchor="middle" x="346.51" y="-406.2" font-family="Times New Roman,serif" font-size="14.00">SÍ</text>
</g>
<!-- inc_i_swap -->
<g id="node20" class="node">
<title>inc_i_swap</title>
<polygon fill="none" stroke="black" points="470.43,-372 416.43,-372 416.43,-336 470.43,-336 470.43,-372"/>
<text xml:space="preserve" text-anchor="middle" x="443.43" y="-350.3" font-family="Arial" font-size="11.00">I = I + 1</text>
</g>
<!-- ciclo_j_swap&#45;&gt;inc_i_swap -->
<g id="edge23" class="edge">
<title>ciclo_j_swap&#45;&gt;inc_i_swap</title>
<path fill="none" stroke="black" d="M380.27,-441.08C391.46,-425.83 409.99,-400.58 424.09,-381.35"/>
<polygon fill="black" stroke="black" points="426.82,-383.56 429.91,-373.42 421.17,-379.42 426.82,-383.56"/>
<text xml:space="preserve" text-anchor="middle" x="416.68" y="-406.2" font-family="Times New Roman,serif" font-size="14.00">NO</text>
</g>
<!-- inc_j_swap -->
<g id="node19" class="node">
<title>inc_j_swap</title>
<polygon fill="none" stroke="black" points="380.43,-270.5 322.43,-270.5 322.43,-234.5 380.43,-234.5 380.43,-270.5"/>
<text xml:space="preserve" text-anchor="middle" x="351.43" y="-248.8" font-family="Arial" font-size="11.00">J = J + 1</text>
</g>
<!-- swap&#45;&gt;inc_j_swap -->
<g id="edge21" class="edge">
<title>swap&#45;&gt;inc_j_swap</title>
<path fill="none" stroke="black" d="M305.59,-322.61C314.53,-309.13 324.96,-293.4 333.61,-280.36"/>
<polygon fill="black" stroke="black" points="336.38,-282.52 338.99,-272.25 330.55,-278.65 336.38,-282.52"/>
</g>
<!-- inc_j_swap&#45;&gt;ciclo_j_swap -->
<g id="edge22" class="edge">
<title>inc_j_swap&#45;&gt;ciclo_j_swap</title>
<path fill="none" stroke="black" d="M354.65,-270.86C357.14,-284.88 360.48,-305.15 362.43,-323 366.31,-358.49 368.43,-399.59 369.5,-426.26"/>
<polygon fill="black" stroke="black" points="365.99,-426.06 369.86,-435.92 372.98,-425.8 365.99,-426.06"/>
</g>
<!-- inc_i_swap&#45;&gt;ciclo_i_swap -->
<g id="edge24" class="edge">
<title>inc_i_swap&#45;&gt;ciclo_i_swap</title>
<path fill="none" stroke="black" d="M443.47,-372.46C442.99,-396.1 440.23,-439.28 427.43,-473.5 407.51,-526.76 357.38,-572.84 326.7,-597.31"/>
<polygon fill="black" stroke="black" points="324.79,-594.35 319.05,-603.26 329.09,-599.88 324.79,-594.35"/>
</g>
<!-- init_i_impr -->
<g id="node22" class="node">
<title>init_i_impr</title>
<polygon fill="none" stroke="black" points="196.43,-473.5 142.43,-473.5 142.43,-437.5 196.43,-437.5 196.43,-473.5"/>
<text xml:space="preserve" text-anchor="middle" x="169.43" y="-451.8" font-family="Arial" font-size="11.00">I = 1</text>
</g>
<!-- titulo_impr&#45;&gt;init_i_impr -->
<g id="edge26" class="edge">
<title>titulo_impr&#45;&gt;init_i_impr</title>
<path fill="none" stroke="black" d="M192.92,-510.31C189.46,-502.38 185.26,-492.76 181.38,-483.86"/>
<polygon fill="black" stroke="black" points="184.68,-482.68 177.47,-474.92 178.26,-485.48 184.68,-482.68"/>
</g>
<!-- ciclo_i_impr -->
<g id="node23" class="node">
<title>ciclo_i_impr</title>
<polygon fill="none" stroke="black" points="153.43,-372 107.59,-354 153.43,-336 199.27,-354 153.43,-372"/>
<text xml:space="preserve" text-anchor="middle" x="153.43" y="-350.3" font-family="Arial" font-size="11.00">¿I ≤ N?</text>
</g>
<!-- init_i_impr&#45;&gt;ciclo_i_impr -->
<g id="edge27" class="edge">
<title>init_i_impr&#45;&gt;ciclo_i_impr</title>
<path fill="none" stroke="black" d="M166.64,-437.17C164.23,-422.15 160.69,-400.15 157.88,-382.69"/>
<polygon fill="black" stroke="black" points="161.36,-382.28 156.32,-372.97 154.45,-383.4 161.36,-382.28"/>
</g>
<!-- init_j_impr -->
<g id="node24" class="node">
<title>init_j_impr</title>
<polygon fill="none" stroke="black" points="180.43,-270.5 126.43,-270.5 126.43,-234.5 180.43,-234.5 180.43,-270.5"/>
<text xml:space="preserve" text-anchor="middle" x="153.43" y="-248.8" font-family="Arial" font-size="11.00">J = 1</text>
</g>
<!-- ciclo_i_impr&#45;&gt;init_j_impr -->
<g id="edge28" class="edge">
<title>ciclo_i_impr&#45;&gt;init_j_impr</title>
<path fill="none" stroke="black" d="M153.43,-335.67C153.43,-320.99 153.43,-299.65 153.43,-282.39"/>
<polygon fill="black" stroke="black" points="156.93,-282.48 153.43,-272.48 149.93,-282.48 156.93,-282.48"/>
<text xml:space="preserve" text-anchor="middle" x="159.43" y="-291.7" font-family="Times New Roman,serif" font-size="14.00">SÍ</text>
</g>
<!-- ciclo_i_impr&#45;&gt;fin -->
<g id="edge35" class="edge">
<title>ciclo_i_impr&#45;&gt;fin</title>
<path fill="none" stroke="black" d="M143.58,-339.58C132.06,-323.88 112.76,-297.56 98.52,-278.15"/>
<polygon fill="black" stroke="black" points="101.43,-276.2 92.69,-270.21 95.78,-280.34 101.43,-276.2"/>
<text xml:space="preserve" text-anchor="middle" x="126.68" y="-291.7" font-family="Times New Roman,serif" font-size="14.00">NO</text>
</g>
<!-- ciclo_j_impr -->
<g id="node25" class="node">
<title>ciclo_j_impr</title>
<polygon fill="none" stroke="black" points="138.43,-197.5 90.6,-179.5 138.43,-161.5 186.25,-179.5 138.43,-197.5"/>
<text xml:space="preserve" text-anchor="middle" x="138.43" y="-175.8" font-family="Arial" font-size="11.00">¿J ≤ N?</text>
</g>
<!-- init_j_impr&#45;&gt;ciclo_j_impr -->
<g id="edge29" class="edge">
<title>init_j_impr&#45;&gt;ciclo_j_impr</title>
<path fill="none" stroke="black" d="M149.8,-234.31C148.11,-226.32 146.06,-216.63 144.17,-207.68"/>
<polygon fill="black" stroke="black" points="147.62,-207.1 142.13,-198.04 140.78,-208.54 147.62,-207.1"/>
</g>
<!-- impr_elem -->
<g id="node26" class="node">
<title>impr_elem</title>
<polygon fill="#ffb6c1" stroke="black" points="61.65,-73.05 65.11,-73.15 68.53,-73.3 71.9,-73.49 75.21,-73.74 78.44,-74.03 81.58,-74.36 84.62,-74.75 87.55,-75.18 90.35,-75.65 93.02,-76.16 95.55,-76.71 97.92,-77.31 100.14,-77.94 102.19,-78.61 104.06,-79.31 105.76,-80.04 107.29,-80.8 108.62,-81.59 109.78,-82.41 110.75,-83.25 111.53,-84.11 112.13,-84.99 112.55,-85.89 112.79,-86.8 112.86,-87.72 112.75,-88.65 112.48,-89.59 112.04,-90.53 111.45,-91.47 110.72,-92.41 109.84,-93.35 108.83,-94.28 107.69,-95.2 106.43,-96.11 105.05,-97.01 103.58,-97.89 102.01,-98.75 100.34,-99.59 98.6,-100.41 96.78,-101.2 94.9,-101.96 92.95,-102.69 90.95,-103.39 88.91,-104.06 86.81,-104.69 84.68,-105.29 82.52,-105.84 80.33,-106.35 78.12,-106.82 75.88,-107.25 73.63,-107.64 71.36,-107.97 69.08,-108.26 66.79,-108.51 64.5,-108.7 62.2,-108.85 59.89,-108.95 57.58,-109 55.27,-109 52.97,-108.95 50.66,-108.85 48.36,-108.7 46.06,-108.51 43.77,-108.26 41.49,-107.97 39.23,-107.64 36.97,-107.25 34.74,-106.82 32.52,-106.35 30.33,-105.84 28.17,-105.29 26.04,-104.69 23.95,-104.06 21.9,-103.39 19.9,-102.69 17.96,-101.96 16.07,-101.2 14.25,-100.41 12.51,-99.59 10.85,-98.75 9.28,-97.89 7.8,-97.01 6.43,-96.11 5.17,-95.2 4.03,-94.28 3.02,-93.35 2.14,-92.41 1.4,-91.47 0.81,-90.53 0.38,-89.59 0.11,-88.65 0,-87.72 0.06,-86.8 0.3,-85.89 0.72,-84.99 1.32,-84.11 2.11,-83.25 3.08,-82.41 4.23,-81.59 5.57,-80.8 7.09,-80.04 8.79,-79.31 10.67,-78.61 12.72,-77.94 14.93,-77.31 17.31,-76.71 19.83,-76.16 22.5,-75.65 25.31,-75.18 28.23,-74.75 31.27,-74.36 34.42,-74.03 37.65,-73.74 40.96,-73.49 44.33,-73.3 47.75,-73.15 51.21,-73.05 54.69,-73 58.17,-73 61.65,-73.05"/>
<text xml:space="preserve" text-anchor="middle" x="56.43" y="-87.3" font-family="Arial" font-size="11.00">Imprimir A[I][J]</text>
</g>
<!-- ciclo_j_impr&#45;&gt;impr_elem -->
<g id="edge30" class="edge">
<title>ciclo_j_impr&#45;&gt;impr_elem</title>
<path fill="none" stroke="black" d="M126.33,-165.74C114.04,-152.77 94.69,-132.37 79.47,-116.31"/>
<polygon fill="black" stroke="black" points="82.4,-114.31 72.98,-109.46 77.32,-119.13 82.4,-114.31"/>
<text xml:space="preserve" text-anchor="middle" x="110.77" y="-130.2" font-family="Times New Roman,serif" font-size="14.00">SÍ</text>
</g>
<!-- inc_i_impr -->
<g id="node28" class="node">
<title>inc_i_impr</title>
<polygon fill="none" stroke="black" points="231.43,-109 177.43,-109 177.43,-73 231.43,-73 231.43,-109"/>
<text xml:space="preserve" text-anchor="middle" x="204.43" y="-87.3" font-family="Arial" font-size="11.00">I = I + 1</text>
</g>
<!-- ciclo_j_impr&#45;&gt;inc_i_impr -->
<g id="edge33" class="edge">
<title>ciclo_j_impr&#45;&gt;inc_i_impr</title>
<path fill="none" stroke="black" d="M148.74,-164.98C158.23,-152.55 172.56,-133.76 184.32,-118.36"/>
<polygon fill="black" stroke="black" points="187.03,-120.57 190.31,-110.5 181.46,-116.33 187.03,-120.57"/>
<text xml:space="preserve" text-anchor="middle" x="187.09" y="-130.2" font-family="Times New Roman,serif" font-size="14.00">NO</text>
</g>
<!-- inc_j_impr -->
<g id="node27" class="node">
<title>inc_j_impr</title>
<polygon fill="none" stroke="black" points="127.43,-36 69.43,-36 69.43,0 127.43,0 127.43,-36"/>
<text xml:space="preserve" text-anchor="middle" x="98.43" y="-14.3" font-family="Arial" font-size="11.00">J = J + 1</text>
</g>
<!-- impr_elem&#45;&gt;inc_j_impr -->
<g id="edge31" class="edge">
<title>impr_elem&#45;&gt;inc_j_impr</title>
<path fill="none" stroke="black" d="M66.6,-72.81C71.39,-64.7 77.23,-54.84 82.59,-45.78"/>
<polygon fill="black" stroke="black" points="85.51,-47.72 87.58,-37.33 79.48,-44.16 85.51,-47.72"/>
</g>
<!-- inc_j_impr&#45;&gt;ciclo_j_impr -->
<g id="edge32" class="edge">
<title>inc_j_impr&#45;&gt;ciclo_j_impr</title>
<path fill="none" stroke="black" d="M106.99,-36.12C111.88,-46.55 117.75,-60.27 121.43,-73 128.87,-98.75 133.32,-129.03 135.79,-150.53"/>
<polygon fill="black" stroke="black" points="132.29,-150.7 136.84,-160.27 139.25,-149.96 132.29,-150.7"/>
</g>
<!-- inc_i_impr&#45;&gt;ciclo_i_impr -->
<g id="edge34" class="edge">
<title>inc_i_impr&#45;&gt;ciclo_i_impr</title>
<path fill="none" stroke="black" d="M204.85,-109.29C205.22,-141.53 204.1,-212.78 189.43,-270.5 184.27,-290.8 174.64,-312.47 166.64,-328.5"/>
<polygon fill="black" stroke="black" points="163.59,-326.77 162.13,-337.26 169.81,-329.98 163.59,-326.77"/>
</g>
</g>
</svg>
